<?xml version="1.0" encoding="UTF-8" standalone="no"?>
<svg
   version="1.0"
   width="36.906202mm"
   height="7.5184001mm"
   id="svg5"
   sodipodi:docname="logo-4.wmf"
   xmlns:inkscape="http://www.inkscape.org/namespaces/inkscape"
   xmlns:sodipodi="http://sodipodi.sourceforge.net/DTD/sodipodi-0.dtd"
   xmlns="http://www.w3.org/2000/svg"
   xmlns:svg="http://www.w3.org/2000/svg">
  <sodipodi:namedview
     id="namedview5"
     pagecolor="#ffffff"
     bordercolor="#000000"
     borderopacity="0.25"
     inkscape:showpageshadow="2"
     inkscape:pageopacity="0.0"
     inkscape:pagecheckerboard="0"
     inkscape:deskcolor="#d1d1d1"
     inkscape:document-units="mm" />
  <defs
     id="defs1">
    <pattern
       id="WMFhbasepattern"
       patternUnits="userSpaceOnUse"
       width="6"
       height="6"
       x="0"
       y="0" />
  </defs>
  <path
     style="fill:#b0cb1f;fill-rule:evenodd;fill-opacity:1;stroke:none;"
     d="  M 0,0   L 28.235592,0   L 28.235592,28.32   L 0,28.32   L 0,0  z "
     id="path1" />
  <path
     style="fill:#22201e;fill-rule:nonzero;fill-opacity:1;stroke:none;"
     d="  M 10.140768,8.379784   L 13.98276,8.379784   L 15.132744,8.379784   L 18.791784,8.379784   L 13.67784,19.940216   L 14.819112,19.940216   L 19.941768,8.379784   L 23.208768,8.379784   L 22.189464,10.730318   L 22.677336,10.730318   L 21.658032,12.941043   L 21.178872,12.941043   L 19.148976,17.502302   L 20.203128,17.502302   L 19.105416,19.940216   L 14.819112,19.940216   L 13.67784,19.940216   L 10.010088,19.940216   L 15.132744,8.379784   L 13.98276,8.379784   L 8.868816,19.940216   L 5.026824,19.940216   L 10.140768,8.379784  z "
     id="path2" />
  <path
     style="fill:#fefefe;fill-rule:nonzero;fill-opacity:1;stroke:none;"
     d="  M 34.595352,10.782746   L 35.945712,10.782746   L 35.945712,15.378957   L 38.829384,10.782746   L 40.266864,10.782746   L 40.266864,17.694539   L 38.916504,17.694539   L 38.916504,13.168232   L 36.032832,17.694539   L 34.595352,17.694539   L 34.595352,10.782746  z    M 41.739192,17.694539   L 41.739192,10.782746   L 43.185384,10.782746   L 43.185384,13.500278   L 45.990648,13.500278   L 45.990648,10.782746   L 47.43684,10.782746   L 47.43684,17.694539   L 45.990648,17.694539   L 45.990648,14.671176   L 43.185384,14.671176   L 43.185384,17.694539   L 41.739192,17.694539  z    M 53.160624,16.881901   L 53.160624,17.694539   L 51.74928,17.694539   L 51.74928,16.881901   L 51.540192,16.873163   L 51.339816,16.855687   L 51.13944,16.829472   L 50.956488,16.803258   L 50.773536,16.777044   L 50.608008,16.733354   L 50.44248,16.689664   L 50.285664,16.645973   L 50.146272,16.593545   L 50.00688,16.532379   L 49.8762,16.471213   L 49.74552,16.401308   L 49.632264,16.322666   L 49.52772,16.244023   L 49.423176,16.156643   L 49.336056,16.060525   L 49.248936,15.964406   L 49.170528,15.868288   L 49.09212,15.763431   L 49.022424,15.658575   L 48.96144,15.553718   L 48.909168,15.440123   L 48.856896,15.326529   L 48.804624,15.212934   L 48.761064,15.090602   L 48.726216,14.968269   L 48.70008,14.845936   L 48.673944,14.714866   L 48.65652,14.583795   L 48.639096,14.443986   L 48.630384,14.312916   L 48.630384,14.173107   L 48.630384,14.02456   L 48.639096,13.876014   L 48.65652,13.736205   L 48.673944,13.605134   L 48.70008,13.465326   L 48.734928,13.342993   L 48.769776,13.211922   L 48.813336,13.08959   L 48.865608,12.975995   L 48.91788,12.8624   L 48.978864,12.748806   L 49.04856,12.643949   L 49.118256,12.539093   L 49.196664,12.442974   L 49.275072,12.346856   L 49.362192,12.250737   L 49.458024,12.163357   L 49.562568,12.084715   L 49.675824,12.006072   L 49.78908,11.92743   L 49.911048,11.866263   L 50.05044,11.805097   L 50.18112,11.743931   L 50.329224,11.691503   L 50.48604,11.647812   L 50.642856,11.604122   L 50.808384,11.56917   L 50.982624,11.542956   L 51.165576,11.516742   L 51.348528,11.490528   L 51.548904,11.473052   L 51.74928,11.464313   L 51.74928,10.782746   L 53.160624,10.782746   L 53.160624,11.464313   L 53.369712,11.473052   L 53.570088,11.490528   L 53.761752,11.516742   L 53.953416,11.542956   L 54.127656,11.56917   L 54.293184,11.61286   L 54.458712,11.647812   L 54.615528,11.700241   L 54.763632,11.752669   L 54.903024,11.813835   L 55.033704,11.875002   L 55.155672,11.944906   L 55.268928,12.023548   L 55.373472,12.102191   L 55.478016,12.189571   L 55.573848,12.276952   L 55.652256,12.37307   L 55.739376,12.469189   L 55.809072,12.574045   L 55.878768,12.678902   L 55.948464,12.783758   L 56.000736,12.897353   L 56.053008,13.010947   L 56.10528,13.124542   L 56.140128,13.246874   L 56.183688,13.369207   L 56.209824,13.500278   L 56.23596,13.62261   L 56.253384,13.762419   L 56.270808,13.89349   L 56.27952,14.033298   L 56.27952,14.173107   L 56.27952,14.312916   L 56.270808,14.452724   L 56.253384,14.592533   L 56.23596,14.723604   L 56.209824,14.845936   L 56.183688,14.977007   L 56.140128,15.09934   L 56.10528,15.221672   L 56.053008,15.335267   L 56.000736,15.448861   L 55.948464,15.562456   L 55.878768,15.667313   L 55.817784,15.772169   L 55.739376,15.877026   L 55.660968,15.973144   L 55.573848,16.069263   L 55.478016,16.156643   L 55.382184,16.244023   L 55.27764,16.322666   L 55.155672,16.401308   L 55.033704,16.471213   L 54.903024,16.532379   L 54.763632,16.593545   L 54.615528,16.645973   L 54.458712,16.698402   L 54.301896,16.733354   L 54.127656,16.777044   L 53.953416,16.803258   L 53.770464,16.829472   L 53.570088,16.855687   L 53.369712,16.873163   L 53.160624,16.881901  z    M 53.160624,15.711003   L 53.300016,15.711003   L 53.439408,15.702265   L 53.561376,15.684789   L 53.692056,15.667313   L 53.805312,15.641098   L 53.918568,15.606146   L 54.031824,15.571194   L 54.136368,15.527504   L 54.2322,15.483814   L 54.328032,15.431385   L 54.40644,15.370219   L 54.484848,15.317791   L 54.554544,15.247886   L 54.615528,15.18672   L 54.6678,15.108078   L 54.71136,15.038173   L 54.75492,14.950793   L 54.789768,14.863413   L 54.815904,14.767294   L 54.84204,14.653699   L 54.859464,14.540105   L 54.876888,14.409034   L 54.8856,14.269226   L 54.8856,14.129417   L 54.876888,13.945918   L 54.859464,13.779895   L 54.824616,13.62261   L 54.781056,13.474064   L 54.720072,13.342993   L 54.641664,13.22066   L 54.598104,13.159494   L 54.554544,13.107066   L 54.502272,13.054637   L 54.45,13.010947   L 54.336744,12.923567   L 54.214776,12.844924   L 54.066672,12.783758   L 53.918568,12.73133   L 53.744328,12.68764   L 53.570088,12.661425   L 53.369712,12.643949   L 53.160624,12.635211   L 53.160624,15.711003  z    M 51.74928,15.711003   L 51.74928,12.635211   L 51.53148,12.643949   L 51.322392,12.661425   L 51.130728,12.68764   L 50.9652,12.73133   L 50.808384,12.783758   L 50.66028,12.853662   L 50.599296,12.897353   L 50.538312,12.932305   L 50.48604,12.975995   L 50.433768,13.028423   L 50.381496,13.080852   L 50.337936,13.13328   L 50.294376,13.185708   L 50.250816,13.246874   L 50.18112,13.377945   L 50.128848,13.517754   L 50.085288,13.675039   L 50.05044,13.841061   L 50.033016,14.02456   L 50.024304,14.216797   L 50.033016,14.391558   L 50.05044,14.566319   L 50.085288,14.723604   L 50.128848,14.872151   L 50.189832,15.003221   L 50.26824,15.125554   L 50.3118,15.18672   L 50.35536,15.239148   L 50.407632,15.291577   L 50.451192,15.335267   L 50.57316,15.422647   L 50.695128,15.50129   L 50.843232,15.562456   L 50.991336,15.614884   L 51.165576,15.658575   L 51.339816,15.684789   L 51.540192,15.711003   L 51.74928,15.711003  z    M 57.133296,14.277964   L 57.133296,14.015822   L 57.15072,13.771157   L 57.176856,13.53523   L 57.211704,13.308041   L 57.255264,13.08959   L 57.316248,12.879877   L 57.377232,12.68764   L 57.45564,12.504141   L 57.525336,12.37307   L 57.58632,12.241999   L 57.664728,12.119667   L 57.743136,11.997334   L 57.830256,11.88374   L 57.926088,11.770145   L 58.02192,11.65655   L 58.117752,11.551694   L 58.231008,11.455575   L 58.335552,11.359457   L 58.448808,11.272077   L 58.562064,11.184696   L 58.67532,11.114792   L 58.797288,11.044887   L 58.919256,10.983721   L 59.041224,10.931293   L 59.215464,10.870127   L 59.389704,10.80896   L 59.572656,10.76527   L 59.76432,10.72158   L 59.955984,10.695366   L 60.15636,10.669151   L 60.365448,10.660413   L 60.583248,10.660413   L 60.774912,10.660413   L 60.966576,10.669151   L 61.149528,10.686628   L 61.33248,10.712842   L 61.50672,10.747794   L 61.672248,10.791484   L 61.837776,10.835174   L 62.003304,10.896341   L 62.16012,10.957507   L 62.308224,11.027411   L 62.456328,11.106054   L 62.59572,11.193434   L 62.7264,11.280815   L 62.85708,11.385671   L 62.98776,11.490528   L 63.109728,11.604122   L 63.222984,11.726455   L 63.327528,11.857525   L 63.432072,11.988596   L 63.519192,12.128405   L 63.606312,12.268214   L 63.68472,12.425498   L 63.754416,12.574045   L 63.8154,12.740068   L 63.867672,12.906091   L 63.919944,13.080852   L 63.963504,13.264351   L 63.98964,13.447849   L 64.015776,13.640086   L 64.041912,13.832323   L 64.050624,14.033298   L 64.050624,14.243011   L 64.050624,14.452724   L 64.041912,14.653699   L 64.015776,14.845936   L 63.98964,15.038173   L 63.963504,15.221672   L 63.919944,15.396433   L 63.876384,15.571194   L 63.8154,15.737217   L 63.754416,15.90324   L 63.68472,16.060525   L 63.606312,16.209071   L 63.527904,16.34888   L 63.432072,16.488689   L 63.33624,16.619759   L 63.222984,16.75083   L 63.109728,16.864425   L 62.996472,16.986757   L 62.865792,17.091614   L 62.735112,17.187732   L 62.604432,17.283851   L 62.46504,17.371231   L 62.316936,17.449873   L 62.168832,17.519778   L 62.012016,17.580944   L 61.8552,17.633372   L 61.689672,17.685801   L 61.524144,17.720753   L 61.349904,17.755705   L 61.166952,17.781919   L 60.984,17.799395   L 60.792336,17.808133   L 60.600672,17.816871   L 60.409008,17.808133   L 60.217344,17.799395   L 60.02568,17.781919   L 59.842728,17.755705   L 59.668488,17.720753   L 59.50296,17.685801   L 59.337432,17.633372   L 59.171904,17.580944   L 59.015088,17.519778   L 58.866984,17.449873   L 58.71888,17.371231   L 58.579488,17.283851   L 58.448808,17.19647   L 58.318128,17.091614   L 58.187448,16.986757   L 58.074192,16.873163   L 57.952224,16.75083   L 57.84768,16.628497   L 57.751848,16.497427   L 57.656016,16.357618   L 57.577608,16.217809   L 57.4992,16.069263   L 57.429504,15.911978   L 57.36852,15.754693   L 57.307536,15.58867   L 57.263976,15.422647   L 57.220416,15.239148   L 57.185568,15.064388   L 57.168144,14.872151   L 57.142008,14.679914   L 57.133296,14.478939   L 57.133296,14.277964  z    M 58.614336,14.234273   L 58.614336,14.374082   L 58.623048,14.513891   L 58.63176,14.653699   L 58.649184,14.78477   L 58.666608,14.907103   L 58.692744,15.029435   L 58.71888,15.151768   L 58.753728,15.265363   L 58.788576,15.370219   L 58.832136,15.475076   L 58.875696,15.579932   L 58.927968,15.676051   L 58.988952,15.763431   L 59.041224,15.850811   L 59.11092,15.938192   L 59.171904,16.016834   L 59.250312,16.086739   L 59.320008,16.156643   L 59.398416,16.217809   L 59.476824,16.278976   L 59.555232,16.331404   L 59.642352,16.383832   L 59.72076,16.427522   L 59.80788,16.471213   L 59.903712,16.506165   L 59.990832,16.532379   L 60.086664,16.558593   L 60.182496,16.584807   L 60.28704,16.602283   L 60.391584,16.611021   L 60.487416,16.619759   L 60.600672,16.619759   L 60.705216,16.619759   L 60.80976,16.611021   L 60.914304,16.602283   L 61.010136,16.584807   L 61.105968,16.558593   L 61.2018,16.532379   L 61.297632,16.506165   L 61.384752,16.471213   L 61.471872,16.427522   L 61.558992,16.383832   L 61.6374,16.331404   L 61.715808,16.278976   L 61.794216,16.217809   L 61.872624,16.156643   L 61.94232,16.086739   L 62.012016,16.016834   L 62.081712,15.938192   L 62.142696,15.85955   L 62.20368,15.772169   L 62.255952,15.676051   L 62.308224,15.579932   L 62.351784,15.483814   L 62.395344,15.378957   L 62.430192,15.265363   L 62.46504,15.151768   L 62.491176,15.029435   L 62.517312,14.907103   L 62.534736,14.776032   L 62.55216,14.644961   L 62.560872,14.505153   L 62.569584,14.356606   L 62.569584,14.208059   L 62.569584,14.068251   L 62.560872,13.919704   L 62.55216,13.788633   L 62.534736,13.657562   L 62.517312,13.526492   L 62.491176,13.404159   L 62.46504,13.290565   L 62.430192,13.17697   L 62.395344,13.063376   L 62.360496,12.958519   L 62.316936,12.8624   L 62.264664,12.766282   L 62.212392,12.678902   L 62.151408,12.591521   L 62.090424,12.512879   L 62.02944,12.434236   L 61.959744,12.364332   L 61.890048,12.303166   L 61.81164,12.241999   L 61.741944,12.180833   L 61.654824,12.128405   L 61.576416,12.084715   L 61.489296,12.041024   L 61.402176,11.997334   L 61.315056,11.962382   L 61.219224,11.936168   L 61.123392,11.909954   L 61.018848,11.892478   L 60.923016,11.875002   L 60.818472,11.866263   L 60.705216,11.857525   L 60.600672,11.848787   L 60.487416,11.857525   L 60.382872,11.866263   L 60.278328,11.875002   L 60.173784,11.892478   L 60.077952,11.909954   L 59.98212,11.936168   L 59.886288,11.962382   L 59.790456,11.997334   L 59.703336,12.041024   L 59.616216,12.084715   L 59.537808,12.137143   L 59.4594,12.189571   L 59.380992,12.241999   L 59.302584,12.303166   L 59.232888,12.37307   L 59.163192,12.442974   L 59.093496,12.521617   L 59.032512,12.600259   L 58.971528,12.68764   L 58.919256,12.77502   L 58.875696,12.871139   L 58.832136,12.975995   L 58.788576,13.080852   L 58.753728,13.185708   L 58.71888,13.299303   L 58.692744,13.421635   L 58.666608,13.543968   L 58.649184,13.675039   L 58.63176,13.806109   L 58.623048,13.945918   L 58.614336,14.085727   L 58.614336,14.234273  z    M 65.174472,17.694539   L 65.174472,10.782746   L 67.483152,10.782746   L 67.796784,10.782746   L 68.08428,10.791484   L 68.336928,10.800222   L 68.572152,10.80896   L 68.763816,10.817698   L 68.938056,10.835174   L 69.077448,10.861388   L 69.190704,10.887603   L 69.34752,10.931293   L 69.486912,10.983721   L 69.626304,11.053625   L 69.756984,11.132268   L 69.878952,11.219648   L 70.00092,11.324505   L 70.114176,11.438099   L 70.21872,11.560432   L 70.314552,11.700241   L 70.401672,11.840049   L 70.471368,11.997334   L 70.532352,12.154619   L 70.575912,12.32938   L 70.61076,12.512879   L 70.628184,12.705116   L 70.636896,12.906091   L 70.628184,13.063376   L 70.619472,13.211922   L 70.602048,13.360469   L 70.575912,13.49154   L 70.541064,13.62261   L 70.497504,13.744943   L 70.453944,13.867276   L 70.39296,13.98087   L 70.331976,14.085727   L 70.270992,14.181845   L 70.201296,14.277964   L 70.122888,14.365344   L 70.04448,14.443986   L 69.966072,14.522629   L 69.878952,14.592533   L 69.791832,14.662438   L 69.704712,14.714866   L 69.60888,14.776032   L 69.513048,14.819722   L 69.425928,14.863413   L 69.330096,14.898365   L 69.234264,14.933317   L 69.138432,14.959531   L 69.051312,14.985745   L 68.91192,15.011959   L 68.763816,15.029435   L 68.598288,15.046911   L 68.415336,15.064388   L 68.223672,15.073126   L 68.014584,15.081864   L 67.796784,15.081864   L 67.552848,15.081864   L 66.620664,15.081864   L 66.620664,17.694539   L 65.174472,17.694539  z    M 66.620664,11.944906   L 66.620664,13.919704   L 67.404744,13.919704   L 67.796784,13.910966   L 68.110416,13.89349   L 68.249808,13.876014   L 68.363064,13.858537   L 68.458896,13.832323   L 68.537304,13.806109   L 68.607,13.779895   L 68.676696,13.744943   L 68.73768,13.709991   L 68.789952,13.666301   L 68.850936,13.62261   L 68.894496,13.57892   L 68.946768,13.526492   L 68.990328,13.465326   L 69.025176,13.404159   L 69.060024,13.342993   L 69.08616,13.281827   L 69.112296,13.22066   L 69.12972,13.150756   L 69.138432,13.080852   L 69.147144,13.002209   L 69.147144,12.932305   L 69.147144,12.836186   L 69.138432,12.748806   L 69.121008,12.661425   L 69.094872,12.582783   L 69.060024,12.504141   L 69.025176,12.434236   L 68.972904,12.364332   L 68.920632,12.303166   L 68.859648,12.241999   L 68.798664,12.189571   L 68.73768,12.145881   L 68.667984,12.102191   L 68.589576,12.067239   L 68.511168,12.041024   L 68.43276,12.01481   L 68.34564,11.997334   L 68.180112,11.979858   L 67.962312,11.962382   L 67.666104,11.953644   L 67.308912,11.944906   L 66.620664,11.944906  z    M 71.664912,17.694539   L 71.664912,10.782746   L 73.8342,10.782746   L 75.106152,15.492552   L 76.369392,10.782746   L 78.53868,10.782746   L 78.53868,17.694539   L 77.205744,17.694539   L 77.197032,12.250737   L 75.7944,17.694539   L 74.409192,17.694539   L 73.00656,12.250737   L 73.00656,17.694539   L 71.664912,17.694539  z    M 86.405616,17.694539   L 84.85488,17.694539   L 84.236328,16.121691   L 81.378792,16.121691   L 80.786376,17.694539   L 79.253064,17.694539   L 82.02348,10.782746   L 83.54808,10.782746   L 86.405616,17.694539  z    M 83.76588,14.950793   L 82.772712,12.390546   L 81.814392,14.950793   L 83.76588,14.950793  z    M 87.198408,10.782746   L 88.635888,10.782746   L 88.635888,16.523641   L 91.415016,16.523641   L 91.415016,10.782746   L 92.861208,10.782746   L 92.861208,16.523641   L 93.462336,16.523641   L 93.462336,19.197482   L 92.251368,19.197482   L 92.251368,17.694539   L 87.198408,17.694539   L 87.198408,10.782746  z    M 94.472928,10.782746   L 95.814576,10.782746   L 95.814576,15.378957   L 98.70696,10.782746   L 100.13573,10.782746   L 100.13573,17.694539   L 98.79408,17.694539   L 98.79408,13.168232   L 95.901696,17.694539   L 94.472928,17.694539   L 94.472928,10.782746  z    M 101.31185,14.277964   L 101.32056,14.015822   L 101.32927,13.771157   L 101.35541,13.53523   L 101.39026,13.308041   L 101.44253,13.08959   L 101.4948,12.879877   L 101.5645,12.68764   L 101.63419,12.504141   L 101.70389,12.37307   L 101.77358,12.241999   L 101.84328,12.119667   L 101.92169,11.997334   L 102.00881,11.88374   L 102.10464,11.770145   L 102.20047,11.65655   L 102.30502,11.551694   L 102.40956,11.455575   L 102.5141,11.359457   L 102.62736,11.272077   L 102.74062,11.184696   L 102.86258,11.114792   L 102.97584,11.044887   L 103.09781,10.983721   L 103.21978,10.931293   L 103.39402,10.870127   L 103.56826,10.80896   L 103.75121,10.76527   L 103.94287,10.72158   L 104.13454,10.695366   L 104.34362,10.669151   L 104.544,10.660413   L 104.7618,10.660413   L 104.95346,10.660413   L 105.14513,10.669151   L 105.32808,10.686628   L 105.51103,10.712842   L 105.68527,10.747794   L 105.85951,10.791484   L 106.02504,10.835174   L 106.18186,10.896341   L 106.33867,10.957507   L 106.48678,11.027411   L 106.63488,11.106054   L 106.77427,11.193434   L 106.91366,11.280815   L 107.04434,11.385671   L 107.16631,11.490528   L 107.28828,11.604122   L 107.40154,11.726455   L 107.50608,11.857525   L 107.61062,11.988596   L 107.69774,12.128405   L 107.78486,12.268214   L 107.86327,12.425498   L 107.93297,12.574045   L 107.99395,12.740068   L 108.05494,12.906091   L 108.0985,13.080852   L 108.14206,13.264351   L 108.1769,13.447849   L 108.20304,13.640086   L 108.22046,13.832323   L 108.22918,14.033298   L 108.22918,14.243011   L 108.22918,14.452724   L 108.22046,14.653699   L 108.20304,14.845936   L 108.1769,15.038173   L 108.14206,15.221672   L 108.0985,15.396433   L 108.05494,15.571194   L 107.99395,15.737217   L 107.93297,15.90324   L 107.86327,16.060525   L 107.78486,16.209071   L 107.70646,16.34888   L 107.61062,16.488689   L 107.51479,16.619759   L 107.41025,16.75083   L 107.29699,16.864425   L 107.17502,16.986757   L 107.05306,17.091614   L 106.92238,17.187732   L 106.78298,17.283851   L 106.64359,17.371231   L 106.5042,17.449873   L 106.34738,17.519778   L 106.19928,17.580944   L 106.03375,17.633372   L 105.86822,17.685801   L 105.7027,17.720753   L 105.52846,17.755705   L 105.3455,17.781919   L 105.16255,17.799395   L 104.9796,17.808133   L 104.77922,17.816871   L 104.58756,17.808133   L 104.3959,17.799395   L 104.20423,17.781919   L 104.02999,17.755705   L 103.84704,17.720753   L 103.68151,17.685801   L 103.51598,17.633372   L 103.35046,17.580944   L 103.19364,17.519778   L 103.04554,17.449873   L 102.89743,17.371231   L 102.75804,17.283851   L 102.62736,17.19647   L 102.49668,17.091614   L 102.37471,16.986757   L 102.25274,16.873163   L 102.13949,16.75083   L 102.03494,16.628497   L 101.9304,16.497427   L 101.84328,16.357618   L 101.75616,16.217809   L 101.67775,16.069263   L 101.60806,15.911978   L 101.54707,15.754693   L 101.4948,15.58867   L 101.44253,15.422647   L 101.40768,15.239148   L 101.37283,15.064388   L 101.3467,14.872151   L 101.32927,14.679914   L 101.31185,14.478939   L 101.31185,14.277964  z    M 102.79289,14.234273   L 102.8016,14.374082   L 102.8016,14.513891   L 102.81902,14.653699   L 102.82774,14.78477   L 102.85387,14.907103   L 102.8713,15.029435   L 102.90614,15.151768   L 102.93228,15.265363   L 102.97584,15.370219   L 103.01069,15.475076   L 103.06296,15.579932   L 103.11523,15.676051   L 103.1675,15.763431   L 103.22849,15.850811   L 103.28947,15.938192   L 103.35917,16.016834   L 103.42886,16.086739   L 103.49856,16.156643   L 103.57697,16.217809   L 103.65538,16.278976   L 103.73378,16.331404   L 103.8209,16.383832   L 103.90802,16.427522   L 103.99514,16.471213   L 104.08226,16.506165   L 104.1781,16.532379   L 104.26522,16.558593   L 104.36976,16.584807   L 104.46559,16.602283   L 104.57014,16.611021   L 104.67468,16.619759   L 104.77922,16.619759   L 104.88377,16.619759   L 104.98831,16.611021   L 105.09286,16.602283   L 105.18869,16.584807   L 105.28452,16.558593   L 105.38035,16.532379   L 105.47618,16.506165   L 105.5633,16.471213   L 105.65042,16.427522   L 105.73754,16.383832   L 105.81595,16.331404   L 105.90307,16.278976   L 105.98148,16.217809   L 106.05118,16.156643   L 106.12958,16.086739   L 106.19928,16.016834   L 106.26026,15.938192   L 106.32996,15.85955   L 106.38223,15.772169   L 106.4345,15.676051   L 106.48678,15.579932   L 106.53034,15.483814   L 106.5739,15.378957   L 106.60874,15.265363   L 106.64359,15.151768   L 106.66973,15.029435   L 106.69586,14.907103   L 106.71329,14.776032   L 106.73071,14.644961   L 106.73942,14.505153   L 106.74814,14.356606   L 106.74814,14.208059   L 106.74814,14.068251   L 106.73942,13.919704   L 106.73071,13.788633   L 106.71329,13.657562   L 106.69586,13.526492   L 106.66973,13.404159   L 106.64359,13.290565   L 106.61746,13.17697   L 106.58261,13.063376   L 106.53905,12.958519   L 106.49549,12.8624   L 106.44322,12.766282   L 106.39094,12.678902   L 106.33867,12.591521   L 106.27769,12.512879   L 106.20799,12.434236   L 106.1383,12.364332   L 106.0686,12.303166   L 105.9989,12.241999   L 105.9205,12.180833   L 105.84209,12.128405   L 105.75497,12.084715   L 105.66785,12.041024   L 105.58073,11.997334   L 105.49361,11.962382   L 105.39778,11.936168   L 105.30194,11.909954   L 105.20611,11.892478   L 105.10157,11.875002   L 104.99702,11.866263   L 104.89248,11.857525   L 104.77922,11.848787   L 104.66597,11.857525   L 104.56142,11.866263   L 104.45688,11.875002   L 104.35234,11.892478   L 104.2565,11.909954   L 104.16067,11.936168   L 104.06484,11.962382   L 103.97772,11.997334   L 103.88189,12.041024   L 103.80348,12.084715   L 103.71636,12.137143   L 103.63795,12.189571   L 103.55954,12.241999   L 103.48114,12.303166   L 103.41144,12.37307   L 103.34174,12.442974   L 103.27205,12.521617   L 103.21106,12.600259   L 103.15879,12.68764   L 103.10652,12.77502   L 103.05425,12.871139   L 103.01069,12.975995   L 102.96713,13.080852   L 102.93228,13.185708   L 102.89743,13.299303   L 102.8713,13.421635   L 102.84516,13.543968   L 102.82774,13.675039   L 102.81902,13.806109   L 102.8016,13.945918   L 102.8016,14.085727   L 102.79289,14.234273  z    M 109.35302,17.694539   L 109.35302,10.782746   L 110.79922,10.782746   L 110.79922,13.500278   L 113.61319,13.500278   L 113.61319,10.782746   L 115.05067,10.782746   L 115.05067,17.694539   L 113.61319,17.694539   L 113.61319,14.671176   L 110.79922,14.671176   L 110.79922,17.694539   L 109.35302,17.694539  z    M 116.54914,17.694539   L 116.54914,10.782746   L 117.99533,10.782746   L 117.99533,13.500278   L 120.80059,13.500278   L 120.80059,10.782746   L 122.24678,10.782746   L 122.24678,17.694539   L 120.80059,17.694539   L 120.80059,14.671176   L 117.99533,14.671176   L 117.99533,17.694539   L 116.54914,17.694539  z    M 123.7801,10.782746   L 125.22629,10.782746   L 125.22629,13.543968   L 127.15164,13.543968   L 127.33459,13.543968   L 127.51754,13.552706   L 127.68307,13.570182   L 127.85731,13.587658   L 128.01413,13.62261   L 128.16223,13.657562   L 128.31034,13.692515   L 128.44973,13.744943   L 128.58912,13.797371   L 128.71109,13.858537   L 128.83306,13.93718   L 128.95502,14.02456   L 129.06828,14.111941   L 129.17282,14.216797   L 129.26866,14.330392   L 129.36449,14.461463   L 129.45161,14.592533   L 129.5213,14.723604   L 129.58229,14.863413   L 129.63456,15.011959   L 129.67812,15.160506   L 129.70426,15.317791   L 129.72168,15.483814   L 129.73039,15.641098   L 129.72168,15.815859   L 129.70426,15.981882   L 129.67812,16.147905   L 129.63456,16.296452   L 129.58229,16.444998   L 129.51259,16.584807   L 129.43418,16.724616   L 129.34706,16.855687   L 129.25123,16.978019   L 129.1554,17.082876   L 129.05086,17.187732   L 128.94631,17.275113   L 128.84177,17.353755   L 128.72851,17.423659   L 128.61526,17.476088   L 128.502,17.528516   L 128.38003,17.563468   L 128.24935,17.59842   L 128.09254,17.624634   L 127.93572,17.650849   L 127.75277,17.668325   L 127.56982,17.677063   L 127.36073,17.685801   L 127.14293,17.694539   L 123.7801,17.694539   L 123.7801,10.782746  z    M 125.22629,16.523641   L 126.62892,16.523641   L 126.94255,16.514903   L 127.1952,16.506165   L 127.40429,16.488689   L 127.56982,16.462475   L 127.6308,16.444998   L 127.69178,16.418784   L 127.75277,16.39257   L 127.81375,16.357618   L 127.87474,16.313928   L 127.92701,16.270238   L 127.98799,16.226547   L 128.04026,16.174119   L 128.08382,16.112953   L 128.12738,16.051786   L 128.16223,15.99062   L 128.18837,15.920716   L 128.2145,15.850811   L 128.23193,15.780907   L 128.24064,15.702265   L 128.24064,15.623622   L 128.24064,15.518766   L 128.22322,15.413909   L 128.19708,15.317791   L 128.16223,15.221672   L 128.10996,15.14303   L 128.04898,15.064388   L 127.98799,14.994483   L 127.90958,14.933317   L 127.81375,14.880889   L 127.7005,14.837198   L 127.57853,14.793508   L 127.43042,14.767294   L 127.27361,14.74108   L 127.09066,14.723604   L 126.89899,14.714866   L 126.6899,14.706128   L 125.22629,14.706128   L 125.22629,16.523641  z    M 130.54932,10.782746   L 131.99551,10.782746   L 131.99551,17.694539   L 130.54932,17.694539   L 130.54932,10.782746  z    M 132.77088,17.694539   L 135.22766,14.085727   L 132.99739,10.782746   L 134.67881,10.782746   L 136.08144,12.836186   L 137.48407,10.782746   L 139.1742,10.782746   L 136.93522,14.085727   L 139.392,17.694539   L 137.66702,17.694539   L 136.08144,15.352743   L 134.50457,17.694539   L 132.77088,17.694539  z   "
     id="path3" />
  <path
     style="fill:#fefefe;fill-rule:nonzero;fill-opacity:1;stroke:none;"
     d="  M 34.36884,1.7476088   L 35.7192,1.7476088   L 35.7192,6.3438198   L 38.602872,1.7476088   L 40.040352,1.7476088   L 40.040352,8.6506634   L 38.689992,8.6506634   L 38.689992,4.1330947   L 35.80632,8.6506634   L 34.36884,8.6506634   L 34.36884,1.7476088  z    M 41.51268,8.6506634   L 41.51268,1.7476088   L 42.95016,1.7476088   L 42.95016,4.4651404   L 45.764136,4.4651404   L 45.764136,1.7476088   L 47.210328,1.7476088   L 47.210328,8.6506634   L 45.764136,8.6506634   L 45.764136,5.6360383   L 42.95016,5.6360383   L 42.95016,8.6506634   L 41.51268,8.6506634  z    M 53.265168,6.1078926   L 54.659088,6.5185807   L 54.615528,6.6583894   L 54.571968,6.7981981   L 54.519696,6.9292687   L 54.467424,7.0516014   L 54.415152,7.173934   L 54.354168,7.2962666   L 54.293184,7.4098612   L 54.2322,7.5147177   L 54.162504,7.6195742   L 54.092808,7.7156927   L 54.0144,7.8118112   L 53.935992,7.8991916   L 53.857584,7.986572   L 53.770464,8.0652144   L 53.683344,8.1438568   L 53.587512,8.2137612   L 53.49168,8.2836655   L 53.395848,8.3448318   L 53.291304,8.4059981   L 53.18676,8.4584264   L 53.082216,8.5108547   L 52.96896,8.5545449   L 52.855704,8.5982351   L 52.742448,8.6331873   L 52.62048,8.6681395   L 52.498512,8.6943536   L 52.376544,8.7118297   L 52.245864,8.7380438   L 52.115184,8.7467819   L 51.975792,8.7642579   L 51.8364,8.7642579   L 51.697008,8.772996   L 51.522768,8.7642579   L 51.348528,8.7555199   L 51.183,8.7380438   L 51.017472,8.7118297   L 50.851944,8.6768775   L 50.70384,8.6419253   L 50.547024,8.5894971   L 50.39892,8.5370688   L 50.259528,8.4759025   L 50.111424,8.4059981   L 49.980744,8.3273558   L 49.850064,8.2399753   L 49.719384,8.1525949   L 49.597416,8.0477384   L 49.475448,7.9428818   L 49.35348,7.8292873   L 49.248936,7.7069546   L 49.144392,7.584622   L 49.04856,7.4535514   L 48.96144,7.3137427   L 48.87432,7.173934   L 48.804624,7.0253872   L 48.734928,6.8768405   L 48.673944,6.7195557   L 48.621672,6.5535329   L 48.5694,6.38751   L 48.534552,6.2127492   L 48.499704,6.0292502   L 48.473568,5.8457513   L 48.456144,5.6535143   L 48.447432,5.4612774   L 48.43872,5.2603024   L 48.447432,5.0418513   L 48.456144,4.8408763   L 48.473568,4.6399013   L 48.499704,4.4389263   L 48.534552,4.2554273   L 48.5694,4.0719284   L 48.621672,3.8971675   L 48.673944,3.7224067   L 48.734928,3.5563838   L 48.804624,3.399099   L 48.87432,3.2505523   L 48.96144,3.1020056   L 49.04856,2.9621969   L 49.144392,2.8223882   L 49.248936,2.7000555   L 49.362192,2.5777229   L 49.475448,2.4641284   L 49.597416,2.3505338   L 49.728096,2.2544153   L 49.858776,2.1582968   L 49.989456,2.0709164   L 50.13756,1.992274   L 50.276952,1.9223696   L 50.425056,1.8612033   L 50.581872,1.800037   L 50.738688,1.7563468   L 50.904216,1.7126566   L 51.069744,1.6777044   L 51.235272,1.6514903   L 51.418224,1.6340142   L 51.592464,1.6252761   L 51.784128,1.6165381   L 51.940944,1.6252761   L 52.09776,1.6340142   L 52.254576,1.6427522   L 52.40268,1.6689664   L 52.550784,1.6951805   L 52.690176,1.7301327   L 52.829568,1.7650849   L 52.96896,1.8087751   L 53.09964,1.8612033   L 53.221608,1.9136316   L 53.352288,1.9747979   L 53.465544,2.0447023   L 53.587512,2.1146066   L 53.692056,2.193249   L 53.805312,2.2806294   L 53.909856,2.3680099   L 54.023112,2.4903425   L 54.136368,2.6214131   L 54.240912,2.7612218   L 54.336744,2.9097686   L 54.423864,3.0757914   L 54.502272,3.2592903   L 54.571968,3.4427893   L 54.641664,3.6437643   L 53.212896,3.9758099   L 53.178048,3.8447393   L 53.134488,3.7224067   L 53.082216,3.6088121   L 53.021232,3.4952175   L 52.951536,3.390361   L 52.864416,3.2942425   L 52.777296,3.2068621   L 52.681464,3.1282197   L 52.585632,3.0583153   L 52.472376,2.988411   L 52.35912,2.9359827   L 52.237152,2.8922925   L 52.115184,2.8573403   L 51.984504,2.8398642   L 51.853824,2.8223882   L 51.70572,2.8136501   L 51.609888,2.8223882   L 51.514056,2.8223882   L 51.418224,2.8398642   L 51.331104,2.8486023   L 51.243984,2.8748164   L 51.156864,2.8922925   L 51.069744,2.9185066   L 50.991336,2.9534588   L 50.912928,2.988411   L 50.83452,3.0321012   L 50.756112,3.0757914   L 50.686416,3.1282197   L 50.61672,3.1806479   L 50.547024,3.2418143   L 50.48604,3.3029806   L 50.425056,3.3728849   L 50.364072,3.4427893   L 50.303088,3.5126936   L 50.250816,3.6000741   L 50.207256,3.6874545   L 50.163696,3.783573   L 50.120136,3.8796915   L 50.085288,3.984548   L 50.05044,4.0894045   L 50.024304,4.2029991   L 49.998168,4.3253317   L 49.972032,4.4476643   L 49.954608,4.578735   L 49.937184,4.8583524   L 49.928472,5.1554459   L 49.937184,5.4700154   L 49.954608,5.7583709   L 49.972032,5.8981796   L 49.998168,6.0292502   L 50.024304,6.1515828   L 50.05044,6.2739155   L 50.085288,6.38751   L 50.120136,6.4923666   L 50.154984,6.5972231   L 50.198544,6.6933416   L 50.250816,6.780722   L 50.303088,6.8681024   L 50.35536,6.9467448   L 50.416344,7.0166492   L 50.477328,7.0865535   L 50.538312,7.1477198   L 50.608008,7.2088861   L 50.677704,7.2613144   L 50.7474,7.3137427   L 50.817096,7.3574329   L 50.895504,7.4011231   L 50.973912,7.4360753   L 51.05232,7.4710275   L 51.13944,7.4972416   L 51.217848,7.5234557   L 51.304968,7.5409318   L 51.4008,7.5584079   L 51.48792,7.5671459   L 51.583752,7.575884   L 51.679584,7.575884   L 51.818976,7.5671459   L 51.958368,7.5496699   L 52.089048,7.5234557   L 52.211016,7.4885035   L 52.332984,7.4360753   L 52.454952,7.374909   L 52.559496,7.3050046   L 52.672752,7.2176242   L 52.768584,7.1215057   L 52.864416,7.0166492   L 52.942824,6.8943166   L 53.021232,6.7632459   L 53.09964,6.6234372   L 53.160624,6.4661524   L 53.212896,6.2913915   L 53.265168,6.1078926  z    M 57.246552,8.6506634   L 57.246552,2.9097686   L 55.138248,2.9097686   L 55.138248,1.7476088   L 60.792336,1.7476088   L 60.792336,2.9097686   L 58.692744,2.9097686   L 58.692744,8.6506634   L 57.246552,8.6506634  z    M 61.750656,1.7476088   L 63.092304,1.7476088   L 63.092304,6.3438198   L 65.984688,1.7476088   L 67.413456,1.7476088   L 67.413456,8.6506634   L 66.071808,8.6506634   L 66.071808,4.1330947   L 63.188136,8.6506634   L 61.750656,8.6506634   L 61.750656,1.7476088  z    M 70.488792,8.6506634   L 70.488792,2.9097686   L 68.380488,2.9097686   L 68.380488,1.7476088   L 74.034576,1.7476088   L 74.034576,2.9097686   L 71.934984,2.9097686   L 71.934984,8.6506634   L 70.488792,8.6506634  z    M 74.243664,1.7476088   L 75.864096,1.7476088   L 77.519376,5.3214687   L 78.939432,1.7476088   L 80.446608,1.7476088   L 78.033384,6.9991731   L 77.937552,7.2001481   L 77.833008,7.4011231   L 77.737176,7.575884   L 77.632632,7.7506449   L 77.5368,7.9079297   L 77.432256,8.0477384   L 77.336424,8.178809   L 77.23188,8.2924036   L 77.127336,8.3972601   L 77.01408,8.4933786   L 76.892112,8.572021   L 76.761432,8.6331873   L 76.630752,8.6768775   L 76.482648,8.7118297   L 76.334544,8.7380438   L 76.177728,8.7380438   L 75.872808,8.7380438   L 75.611448,8.7205677   L 75.376224,8.6943536   L 75.18456,8.6594014   L 75.18456,7.6195742   L 75.332664,7.6283122   L 75.472056,7.6370503   L 75.611448,7.6370503   L 75.733416,7.6457883   L 75.855384,7.6370503   L 75.96864,7.6283122   L 76.073184,7.6195742   L 76.160304,7.5933601   L 76.247424,7.575884   L 76.325832,7.5409318   L 76.395528,7.5059796   L 76.4478,7.4622894   L 76.500072,7.4098612   L 76.552344,7.3486948   L 76.613328,7.2700525   L 76.6656,7.182672   L 76.70916,7.0778155   L 76.761432,6.9642209   L 76.813704,6.8418883   L 76.865976,6.7020796   L 74.243664,1.7476088  z    M 82.772712,8.6506634   L 82.772712,2.9097686   L 80.655696,2.9097686   L 80.655696,1.7476088   L 86.318496,1.7476088   L 86.318496,2.9097686   L 84.218904,2.9097686   L 84.218904,8.6506634   L 82.772712,8.6506634  z   "
     id="path4" />
  <path
     style="fill:#fefefe;fill-rule:nonzero;fill-opacity:1;stroke:none;"
     d="  M 35.388144,26.284036   L 35.388144,20.543141   L 33.271128,20.543141   L 33.271128,19.372243   L 38.933928,19.372243   L 38.933928,20.543141   L 36.825624,20.543141   L 36.825624,26.284036   L 35.388144,26.284036  z    M 39.866112,26.284036   L 39.866112,19.372243   L 45.145584,19.372243   L 45.145584,20.543141   L 41.312304,20.543141   L 41.312304,22.081037   L 44.875512,22.081037   L 44.875512,23.243197   L 41.312304,23.243197   L 41.312304,25.121876   L 45.284976,25.121876   L 45.284976,26.284036   L 39.866112,26.284036  z    M 45.790272,26.284036   L 48.247056,22.683962   L 46.016784,19.372243   L 47.6982,19.372243   L 49.100832,21.434421   L 50.503464,19.372243   L 52.193592,19.372243   L 49.954608,22.683962   L 52.411392,26.284036   L 50.677704,26.284036   L 49.100832,23.94224   L 47.515248,26.284036   L 45.790272,26.284036  z    M 53.151912,26.284036   L 53.151912,19.372243   L 54.598104,19.372243   L 54.598104,22.098513   L 57.403368,22.098513   L 57.403368,19.372243   L 58.84956,19.372243   L 58.84956,26.284036   L 57.403368,26.284036   L 57.403368,23.269411   L 54.598104,23.269411   L 54.598104,26.284036   L 53.151912,26.284036  z    M 60.043104,22.876199   L 60.051816,22.614057   L 60.060528,22.369392   L 60.086664,22.124727   L 60.130224,21.897538   L 60.173784,21.687825   L 60.226056,21.478112   L 60.295752,21.285875   L 60.37416,21.093638   L 60.435144,20.971305   L 60.50484,20.840234   L 60.574536,20.717902   L 60.661656,20.595569   L 60.740064,20.481975   L 60.835896,20.36838   L 60.931728,20.254786   L 61.036272,20.149929   L 61.140816,20.045073   L 61.254072,19.948954   L 61.358616,19.861574   L 61.471872,19.782931   L 61.59384,19.704289   L 61.707096,19.643122   L 61.829064,19.581956   L 61.959744,19.52079   L 62.125272,19.459624   L 62.299512,19.407195   L 62.482464,19.354767   L 62.674128,19.319815   L 62.865792,19.293601   L 63.07488,19.267387   L 63.283968,19.258649   L 63.493056,19.249911   L 63.693432,19.258649   L 63.876384,19.267387   L 64.068048,19.284863   L 64.242288,19.311077   L 64.416528,19.346029   L 64.590768,19.380981   L 64.756296,19.433409   L 64.913112,19.485838   L 65.069928,19.555742   L 65.218032,19.625646   L 65.366136,19.695551   L 65.505528,19.782931   L 65.64492,19.87905   L 65.7756,19.975168   L 65.897568,20.088763   L 66.019536,20.202357   L 66.132792,20.32469   L 66.237336,20.447023   L 66.34188,20.578093   L 66.437712,20.717902   L 66.51612,20.866449   L 66.594528,21.014995   L 66.664224,21.17228   L 66.725208,21.338303   L 66.786192,21.504326   L 66.829752,21.679087   L 66.873312,21.853848   L 66.90816,22.037346   L 66.934296,22.229583   L 66.95172,22.430558   L 66.960432,22.631533   L 66.969144,22.841247   L 66.960432,23.05096   L 66.95172,23.251935   L 66.934296,23.444172   L 66.90816,23.636409   L 66.873312,23.819907   L 66.829752,23.994668   L 66.786192,24.169429   L 66.73392,24.335452   L 66.664224,24.492737   L 66.594528,24.650022   L 66.524832,24.798568   L 66.437712,24.947115   L 66.34188,25.086924   L 66.246048,25.217994   L 66.141504,25.340327   L 66.028248,25.46266   L 65.90628,25.576254   L 65.784312,25.689849   L 65.653632,25.785967   L 65.51424,25.882086   L 65.374848,25.960728   L 65.235456,26.039371   L 65.087352,26.109275   L 64.930536,26.170441   L 64.765008,26.231608   L 64.608192,26.275298   L 64.433952,26.318988   L 64.259712,26.35394   L 64.085472,26.380154   L 63.893808,26.39763   L 63.710856,26.406368   L 63.519192,26.406368   L 63.318816,26.406368   L 63.127152,26.39763   L 62.9442,26.380154   L 62.761248,26.35394   L 62.587008,26.318988   L 62.412768,26.275298   L 62.24724,26.231608   L 62.090424,26.179179   L 61.933608,26.109275   L 61.776792,26.039371   L 61.6374,25.969466   L 61.498008,25.882086   L 61.358616,25.785967   L 61.227936,25.689849   L 61.105968,25.584992   L 60.984,25.471398   L 60.870744,25.349065   L 60.7662,25.217994   L 60.661656,25.086924   L 60.574536,24.955853   L 60.487416,24.807306   L 60.409008,24.65876   L 60.339312,24.510213   L 60.278328,24.352928   L 60.226056,24.186905   L 60.173784,24.012144   L 60.138936,23.837384   L 60.104088,23.653885   L 60.077952,23.470386   L 60.060528,23.278149   L 60.051816,23.077174   L 60.043104,22.876199  z    M 61.524144,22.82377   L 61.532856,22.972317   L 61.532856,23.112126   L 61.55028,23.243197   L 61.558992,23.374267   L 61.585128,23.505338   L 61.602552,23.62767   L 61.6374,23.741265   L 61.672248,23.85486   L 61.707096,23.968454   L 61.750656,24.073311   L 61.794216,24.169429   L 61.846488,24.265548   L 61.89876,24.361666   L 61.959744,24.449047   L 62.020728,24.527689   L 62.090424,24.606331   L 62.16012,24.684974   L 62.229816,24.74614   L 62.308224,24.816044   L 62.386632,24.868473   L 62.46504,24.929639   L 62.55216,24.973329   L 62.63928,25.025757   L 62.7264,25.06071   L 62.81352,25.095662   L 62.909352,25.130614   L 63.005184,25.156828   L 63.101016,25.174304   L 63.196848,25.19178   L 63.301392,25.200518   L 63.405936,25.209256   L 63.51048,25.217994   L 63.615024,25.209256   L 63.719568,25.200518   L 63.824112,25.19178   L 63.919944,25.174304   L 64.024488,25.156828   L 64.111608,25.130614   L 64.20744,25.095662   L 64.29456,25.06071   L 64.38168,25.025757   L 64.4688,24.982067   L 64.55592,24.929639   L 64.634328,24.877211   L 64.712736,24.816044   L 64.782432,24.754878   L 64.86084,24.684974   L 64.930536,24.615069   L 65.000232,24.536427   L 65.061216,24.449047   L 65.113488,24.361666   L 65.174472,24.274286   L 65.218032,24.178167   L 65.261592,24.073311   L 65.305152,23.968454   L 65.34,23.863598   L 65.374848,23.741265   L 65.400984,23.62767   L 65.42712,23.4966   L 65.444544,23.374267   L 65.461968,23.234459   L 65.47068,23.09465   L 65.479392,22.954841   L 65.479392,22.806294   L 65.479392,22.657748   L 65.47068,22.517939   L 65.461968,22.37813   L 65.444544,22.24706   L 65.42712,22.124727   L 65.409696,22.002394   L 65.374848,21.880062   L 65.348712,21.766467   L 65.313864,21.661611   L 65.270304,21.556754   L 65.226744,21.460636   L 65.174472,21.364517   L 65.1222,21.277137   L 65.069928,21.189756   L 65.008944,21.111114   L 64.939248,21.032471   L 64.869552,20.962567   L 64.799856,20.892663   L 64.73016,20.831496   L 64.651752,20.779068   L 64.573344,20.72664   L 64.486224,20.674212   L 64.407816,20.630521   L 64.311984,20.595569   L 64.224864,20.560617   L 64.129032,20.525665   L 64.0332,20.508189   L 63.937368,20.481975   L 63.832824,20.464499   L 63.72828,20.455761   L 63.623736,20.447023   L 63.51048,20.447023   L 63.397224,20.447023   L 63.29268,20.455761   L 63.188136,20.464499   L 63.083592,20.481975   L 62.98776,20.508189   L 62.891928,20.534403   L 62.796096,20.560617   L 62.708976,20.595569   L 62.621856,20.639259   L 62.534736,20.68295   L 62.447616,20.72664   L 62.369208,20.779068   L 62.2908,20.840234   L 62.212392,20.901401   L 62.142696,20.971305   L 62.073,21.04121   L 62.012016,21.119852   L 61.94232,21.198494   L 61.890048,21.285875   L 61.837776,21.373255   L 61.785504,21.469374   L 61.741944,21.565492   L 61.698384,21.670349   L 61.663536,21.783943   L 61.628688,21.897538   L 61.602552,22.011132   L 61.585128,22.142203   L 61.558992,22.264536   L 61.55028,22.395606   L 61.532856,22.535415   L 61.532856,22.675224   L 61.524144,22.82377  z    M 68.354352,19.372243   L 73.346328,19.372243   L 73.346328,26.284036   L 71.908848,26.284036   L 71.908848,20.543141   L 69.765696,20.543141   L 69.765696,23.4966   L 69.765696,23.802431   L 69.756984,24.082049   L 69.748272,24.335452   L 69.73956,24.571379   L 69.730848,24.781092   L 69.713424,24.964591   L 69.696,25.121876   L 69.678576,25.261685   L 69.65244,25.384017   L 69.617592,25.497612   L 69.574032,25.602468   L 69.530472,25.707325   L 69.469488,25.803443   L 69.408504,25.890824   L 69.330096,25.969466   L 69.251688,26.048109   L 69.164568,26.109275   L 69.060024,26.170441   L 68.946768,26.214131   L 68.816088,26.257822   L 68.676696,26.284036   L 68.528592,26.31025   L 68.371776,26.318988   L 68.197536,26.327726   L 68.04072,26.318988   L 67.840344,26.31025   L 67.578984,26.301512   L 67.274064,26.275298   L 67.274064,25.19178   L 67.596408,25.200518   L 67.805496,25.19178   L 67.971024,25.174304   L 68.049432,25.156828   L 68.110416,25.130614   L 68.162688,25.113138   L 68.206248,25.078186   L 68.241096,25.043234   L 68.275944,24.999543   L 68.30208,24.947115   L 68.319504,24.877211   L 68.336928,24.798568   L 68.354352,24.711188   L 68.354352,24.615069   L 68.363064,24.501475   L 68.354352,23.313101   L 68.354352,19.372243  z    M 74.53116,22.876199   L 74.539872,22.614057   L 74.548584,22.369392   L 74.57472,22.124727   L 74.609568,21.897538   L 74.66184,21.687825   L 74.714112,21.478112   L 74.783808,21.285875   L 74.862216,21.093638   L 74.9232,20.971305   L 74.992896,20.840234   L 75.062592,20.717902   L 75.149712,20.595569   L 75.22812,20.481975   L 75.323952,20.36838   L 75.419784,20.254786   L 75.524328,20.149929   L 75.628872,20.045073   L 75.742128,19.948954   L 75.846672,19.861574   L 75.959928,19.782931   L 76.081896,19.704289   L 76.195152,19.643122   L 76.31712,19.581956   L 76.4478,19.52079   L 76.613328,19.459624   L 76.787568,19.407195   L 76.97052,19.354767   L 77.162184,19.319815   L 77.353848,19.293601   L 77.562936,19.267387   L 77.772024,19.258649   L 77.981112,19.249911   L 78.172776,19.258649   L 78.36444,19.267387   L 78.556104,19.284863   L 78.730344,19.311077   L 78.904584,19.346029   L 79.078824,19.380981   L 79.244352,19.433409   L 79.401168,19.485838   L 79.557984,19.555742   L 79.706088,19.625646   L 79.854192,19.695551   L 79.993584,19.782931   L 80.132976,19.87905   L 80.263656,19.975168   L 80.385624,20.088763   L 80.507592,20.202357   L 80.620848,20.32469   L 80.725392,20.447023   L 80.829936,20.578093   L 80.917056,20.717902   L 81.004176,20.866449   L 81.082584,21.014995   L 81.15228,21.17228   L 81.213264,21.338303   L 81.274248,21.504326   L 81.317808,21.679087   L 81.361368,21.853848   L 81.396216,22.037346   L 81.422352,22.229583   L 81.439776,22.430558   L 81.448488,22.631533   L 81.4572,22.841247   L 81.448488,23.05096   L 81.439776,23.251935   L 81.422352,23.444172   L 81.396216,23.636409   L 81.361368,23.819907   L 81.317808,23.994668   L 81.274248,24.169429   L 81.221976,24.335452   L 81.15228,24.492737   L 81.082584,24.650022   L 81.012888,24.798568   L 80.925768,24.947115   L 80.829936,25.086924   L 80.734104,25.217994   L 80.62956,25.340327   L 80.516304,25.46266   L 80.394336,25.576254   L 80.272368,25.689849   L 80.141688,25.785967   L 80.002296,25.882086   L 79.862904,25.960728   L 79.723512,26.039371   L 79.566696,26.109275   L 79.418592,26.170441   L 79.253064,26.231608   L 79.096248,26.275298   L 78.922008,26.318988   L 78.747768,26.35394   L 78.573528,26.380154   L 78.381864,26.39763   L 78.198912,26.406368   L 77.998536,26.406368   L 77.806872,26.406368   L 77.615208,26.39763   L 77.432256,26.380154   L 77.249304,26.35394   L 77.075064,26.318988   L 76.900824,26.275298   L 76.735296,26.231608   L 76.569768,26.179179   L 76.421664,26.109275   L 76.264848,26.039371   L 76.125456,25.969466   L 75.977352,25.882086   L 75.846672,25.785967   L 75.715992,25.689849   L 75.594024,25.584992   L 75.472056,25.471398   L 75.3588,25.349065   L 75.254256,25.217994   L 75.149712,25.086924   L 75.062592,24.955853   L 74.975472,24.807306   L 74.897064,24.65876   L 74.827368,24.510213   L 74.766384,24.352928   L 74.714112,24.186905   L 74.66184,24.012144   L 74.626992,23.837384   L 74.592144,23.653885   L 74.566008,23.470386   L 74.548584,23.278149   L 74.53116,23.077174   L 74.53116,22.876199  z    M 76.0122,22.82377   L 76.020912,22.972317   L 76.020912,23.112126   L 76.038336,23.243197   L 76.047048,23.374267   L 76.073184,23.505338   L 76.090608,23.62767   L 76.125456,23.741265   L 76.160304,23.85486   L 76.195152,23.968454   L 76.238712,24.073311   L 76.282272,24.169429   L 76.334544,24.265548   L 76.386816,24.361666   L 76.4478,24.449047   L 76.508784,24.527689   L 76.57848,24.606331   L 76.648176,24.684974   L 76.717872,24.74614   L 76.79628,24.816044   L 76.874688,24.868473   L 76.953096,24.929639   L 77.040216,24.973329   L 77.127336,25.025757   L 77.214456,25.06071   L 77.301576,25.095662   L 77.397408,25.130614   L 77.49324,25.156828   L 77.589072,25.174304   L 77.684904,25.19178   L 77.789448,25.200518   L 77.893992,25.209256   L 77.998536,25.217994   L 78.10308,25.209256   L 78.207624,25.200518   L 78.312168,25.19178   L 78.408,25.174304   L 78.512544,25.156828   L 78.599664,25.130614   L 78.695496,25.095662   L 78.782616,25.06071   L 78.869736,25.025757   L 78.956856,24.982067   L 79.043976,24.929639   L 79.122384,24.877211   L 79.200792,24.816044   L 79.270488,24.754878   L 79.348896,24.684974   L 79.418592,24.615069   L 79.479576,24.536427   L 79.549272,24.449047   L 79.601544,24.361666   L 79.662528,24.274286   L 79.706088,24.178167   L 79.749648,24.073311   L 79.793208,23.968454   L 79.828056,23.863598   L 79.862904,23.741265   L 79.88904,23.62767   L 79.915176,23.4966   L 79.9326,23.374267   L 79.950024,23.234459   L 79.958736,23.09465   L 79.967448,22.954841   L 79.967448,22.806294   L 79.967448,22.657748   L 79.958736,22.517939   L 79.950024,22.37813   L 79.9326,22.24706   L 79.915176,22.124727   L 79.897752,22.002394   L 79.862904,21.880062   L 79.836768,21.766467   L 79.80192,21.661611   L 79.75836,21.556754   L 79.7148,21.460636   L 79.662528,21.364517   L 79.610256,21.277137   L 79.557984,21.189756   L 79.497,21.111114   L 79.427304,21.032471   L 79.357608,20.962567   L 79.287912,20.892663   L 79.218216,20.831496   L 79.139808,20.779068   L 79.0614,20.72664   L 78.97428,20.674212   L 78.895872,20.630521   L 78.80004,20.595569   L 78.71292,20.560617   L 78.617088,20.525665   L 78.521256,20.508189   L 78.425424,20.481975   L 78.32088,20.464499   L 78.216336,20.455761   L 78.111792,20.447023   L 77.998536,20.447023   L 77.88528,20.447023   L 77.780736,20.455761   L 77.676192,20.464499   L 77.571648,20.481975   L 77.475816,20.508189   L 77.379984,20.534403   L 77.284152,20.560617   L 77.197032,20.595569   L 77.1012,20.639259   L 77.022792,20.68295   L 76.935672,20.72664   L 76.857264,20.779068   L 76.778856,20.840234   L 76.700448,20.901401   L 76.630752,20.971305   L 76.561056,21.04121   L 76.49136,21.119852   L 76.430376,21.198494   L 76.378104,21.285875   L 76.325832,21.373255   L 76.27356,21.469374   L 76.23,21.565492   L 76.18644,21.670349   L 76.151592,21.783943   L 76.116744,21.897538   L 76.090608,22.011132   L 76.064472,22.142203   L 76.047048,22.264536   L 76.038336,22.395606   L 76.020912,22.535415   L 76.020912,22.675224   L 76.0122,22.82377  z    M 82.650744,19.372243   L 87.477192,19.372243   L 87.477192,20.543141   L 84.088224,20.543141   L 84.088224,26.284036   L 82.650744,26.284036   L 82.650744,19.372243  z    M 88.243848,19.372243   L 89.585496,19.372243   L 89.585496,23.977192   L 92.47788,19.372243   L 93.906648,19.372243   L 93.906648,26.284036   L 92.565,26.284036   L 92.565,21.757729   L 89.672616,26.284036   L 88.243848,26.284036   L 88.243848,19.372243  z    M 95.405112,19.372243   L 96.74676,19.372243   L 96.74676,23.977192   L 99.630432,19.372243   L 101.06791,19.372243   L 101.06791,26.284036   L 99.726264,26.284036   L 99.726264,21.757729   L 96.83388,26.284036   L 95.405112,26.284036   L 95.405112,19.372243  z    M 99.090288,17.379969   L 99.7524,17.379969   L 99.734976,17.537254   L 99.700128,17.685801   L 99.656568,17.816871   L 99.604296,17.947942   L 99.543312,18.070275   L 99.473616,18.183869   L 99.386496,18.288726   L 99.290664,18.384844   L 99.18612,18.472225   L 99.072864,18.542129   L 98.950896,18.603295   L 98.820216,18.655724   L 98.689536,18.699414   L 98.541432,18.725628   L 98.393328,18.743104   L 98.236512,18.751842   L 98.079696,18.743104   L 97.931592,18.725628   L 97.783488,18.699414   L 97.652808,18.655724   L 97.522128,18.603295   L 97.40016,18.542129   L 97.286904,18.472225   L 97.18236,18.384844   L 97.086528,18.288726   L 97.00812,18.183869   L 96.929712,18.070275   L 96.868728,17.947942   L 96.816456,17.816871   L 96.772896,17.685801   L 96.738048,17.537254   L 96.720624,17.379969   L 97.391448,17.379969   L 97.40016,17.458612   L 97.417584,17.537254   L 97.435008,17.607158   L 97.469856,17.668325   L 97.495992,17.729491   L 97.539552,17.790657   L 97.583112,17.834347   L 97.626672,17.886776   L 97.687656,17.921728   L 97.74864,17.95668   L 97.818336,17.991632   L 97.888032,18.009108   L 97.96644,18.026584   L 98.05356,18.04406   L 98.14068,18.052799   L 98.236512,18.052799   L 98.332344,18.052799   L 98.428176,18.04406   L 98.506584,18.026584   L 98.584992,18.009108   L 98.6634,17.991632   L 98.724384,17.95668   L 98.785368,17.921728   L 98.846352,17.886776   L 98.889912,17.834347   L 98.933472,17.790657   L 98.977032,17.729491   L 99.01188,17.668325   L 99.038016,17.607158   L 99.05544,17.537254   L 99.072864,17.458612   L 99.090288,17.379969  z   "
     id="path5" />
</svg>
