<svg width="3449" height="3449" viewBox="0 0 3449 3449" fill="none" xmlns="http://www.w3.org/2000/svg">
<g clip-path="url(#clip0_2293_2)">
<path d="M1614.8 13.7812V109.814C1186.86 145.62 823.566 315.41 532.911 631.23C263.802 923.783 120.662 1271.7 107.784 1668.45C93.751 2102.74 233.259 2485.22 524.821 2808.14C816.384 3131.05 1182.49 3302.49 1614.88 3339.13V3435.32C1193.38 3403.23 827.445 3245.57 526.637 2949.14C176.135 2603.62 6.57939 2180.96 10.2941 1688.91C26.1435 1205.94 208.411 796.4 561.143 466.72C856.915 190.666 1210.39 42.2446 1614.8 13.7812Z" fill="white"/>
<path d="M1326.12 3170C1326.12 3193.01 1326.12 3192.6 1304.74 3186.5C1250.76 3171 1197.66 3152.57 1145.67 3131.3C1130.98 3125.45 1130.73 3125.28 1130.73 3108.61V848.049C1130.73 829.238 1130.73 829.156 1148.97 829.156H1317.95C1323.9 829.156 1326.21 832.208 1326.21 837.406C1326.21 842.604 1326.21 846.729 1326.21 851.349L1326.12 3170Z" fill="white"/>
<path d="M1029.52 3075.61C1010.64 3067.77 992.44 3058.36 975.123 3047.48C938.802 3026.94 903.306 3004.83 869.048 2980.9C862.175 2975.5 855.01 2970.49 847.585 2965.88C843.503 2963.72 840.196 2960.35 838.125 2956.22C836.053 2952.1 835.32 2947.43 836.028 2942.87C836.028 2476.45 836.028 2010.09 836.028 1543.79C836.028 1541.73 836.028 1539.66 836.028 1537.6C836.524 1526.71 836.772 1526.05 847.585 1525.97C873.423 1525.97 899.261 1525.97 925.099 1525.97C956.055 1525.97 987.093 1525.97 1018.05 1525.97C1031.01 1525.97 1031.09 1525.97 1031.42 1538.84C1031.42 1542.47 1031.42 1546.02 1031.42 1549.65C1031.42 2051.15 1031.42 2552.66 1031.42 3054.16C1032.41 3061.36 1031.77 3068.7 1029.52 3075.61Z" fill="white"/>
<path d="M1620.74 3218.51C1620.74 3242.27 1622.97 3241.11 1599.36 3240.12C1573.69 3238.97 1548.26 3235.59 1522.75 3231.87C1494.77 3228 1466.87 3223.62 1439.13 3218.42C1426.5 3215.95 1425.68 3215.12 1425.35 3202.5C1425.35 3199.37 1425.35 3196.31 1425.35 3193.18V1363.19C1425.35 1337.53 1422.54 1340.34 1448.79 1340.26H1602.33C1621.73 1340.26 1620.74 1339.18 1620.74 1358.9V3218.51Z" fill="white"/>
<path d="M735.817 2875.3C734.051 2875.3 732.303 2874.95 730.674 2874.27C729.044 2873.59 727.566 2872.59 726.323 2871.34C683.893 2833.55 643.775 2793.37 604.564 2752.37C585 2731.91 567.499 2709.55 549.008 2688.1C546.491 2685.51 544.538 2682.43 543.273 2679.05C542.009 2675.67 541.46 2672.07 541.662 2668.46C541.662 2665.82 541.662 2663.27 541.662 2660.71V1825.21C541.662 1802.44 540.176 1804.66 562.877 1804.66H730.286C731.192 1804.62 732.096 1804.78 732.937 1805.12C733.778 1805.46 734.537 1805.97 735.163 1806.63C735.788 1807.28 736.266 1808.07 736.564 1808.92C736.862 1809.78 736.973 1810.69 736.89 1811.59C736.89 1815.14 736.89 1818.77 736.89 1822.4C736.89 2168.53 736.89 2514.57 736.89 2860.53C737.656 2865.47 737.289 2870.52 735.817 2875.3Z" fill="white"/>
<path d="M442.104 2536.05C431.456 2527.8 427.246 2516.08 421.054 2505.85C395.329 2463.51 371.88 2419.83 350.805 2375C318.674 2307.51 291.874 2237.61 270.65 2165.94C265.367 2147.63 259.754 2129.39 254.553 2111.16C251.429 2100.77 249.817 2089.99 249.766 2079.15C249.766 2034.27 249.766 1989.3 249.766 1944.34C249.766 1929.16 249.766 1929.08 265.367 1929.08H429.64C444.994 1929.08 445.076 1929.08 445.159 1944.42C445.159 2136.93 445.159 2329.63 445.159 2522.52C445.241 2526.89 446.562 2531.76 442.104 2536.05Z" fill="white"/>
<path d="M1812.17 3057.22C1812.17 3076.11 1812.17 3076.11 1793.43 3076.11H1728.3C1712.29 3076.11 1714.68 3076.11 1714.52 3061.59V388.51C1714.52 367.719 1714.52 367.719 1734.82 367.719C1757.03 367.719 1779.24 367.719 1801.44 367.719C1809.12 367.719 1813.33 369.534 1812.26 378.032C1812.05 381.631 1812.05 385.24 1812.26 388.84L1812.17 3057.22Z" fill="white"/>
<path d="M1999.72 132.008C2001.13 134.644 2003.4 136.714 2006.16 137.866C2163.83 233.156 2288.81 361.777 2389.44 514.984C2450.65 609.348 2501.62 709.965 2541.49 815.128C2546.86 828.989 2546.86 829.071 2562.13 829.071H3101.75C3125.52 829.071 3149.3 829.896 3173.07 829.071C3177.32 828.621 3181.59 829.519 3185.3 831.636C3189 833.754 3191.95 836.985 3193.71 840.869C3258.21 948.335 3310.8 1062.5 3350.55 1181.36C3383.29 1279.21 3407.05 1379.84 3421.54 1482C3425.75 1511.53 3428.64 1541.4 3432.11 1570.52C3427.9 1574.65 3423.86 1573.08 3419.56 1573.08C3395.29 1573.08 3371.02 1573.08 3346.75 1573.08C3334.04 1573.08 3333.96 1573.08 3332.8 1560.79C3328.68 1516.56 3322.07 1472.76 3314.07 1428.78C3287.47 1283.62 3240.71 1142.89 3175.14 1010.66C3163 985.909 3149.55 962.395 3137.25 938.057C3135.96 934.494 3133.53 931.458 3130.33 929.427C3127.14 927.396 3123.35 926.485 3119.58 926.837C2943.48 927.167 2767.21 927.167 2590.77 926.837C2587.8 926.837 2584.58 926.012 2581.77 928.569C2582.09 935.203 2583.72 941.708 2586.56 947.71C2613.54 1039.19 2634.88 1132.23 2650.45 1226.32C2666.45 1323.13 2677.47 1420.69 2683.47 1518.63C2686.2 1561.86 2688.18 1605.25 2688.34 1648.65C2688.34 1651.7 2688.34 1654.84 2688.34 1657.89C2689.75 1671.01 2686.69 1671.09 2702.63 1671.09H3344.61C3372.12 1671.09 3399.64 1671.09 3427.16 1671.09C3438.05 1671.09 3438.22 1671.09 3438.38 1681.9C3439.13 1744.93 3438.38 1807.88 3432.77 1870.75C3421.9 1999.31 3396.53 2126.23 3357.16 2249.1C3340.65 2301.16 3321.16 2352.23 3299.78 2402.48C3298.81 2406.36 3296.45 2409.76 3293.16 2412.03C3289.86 2414.31 3285.85 2415.31 3281.87 2414.85C3251.41 2414.27 3220.95 2414.85 3191.07 2414.85C3188.18 2409.57 3191.48 2406.19 3193.05 2402.64C3243.58 2293.6 3281.69 2179.22 3306.64 2061.66C3321.21 1994.05 3331.11 1925.52 3336.27 1856.56C3338.17 1830.82 3339.74 1805.08 3341.22 1779.25C3341.88 1768.28 3341.22 1768.11 3330.33 1768.03C3315.88 1768.03 3301.44 1768.03 3286.91 1768.03H2706.92C2689.83 1768.03 2689.83 1768.03 2689.17 1785.11C2687.68 1826.94 2687.35 1868.77 2684.8 1910.51C2681.08 1969.75 2676.54 2028.99 2669.77 2087.98C2661.93 2156.21 2651.69 2223.94 2638.65 2291.34C2624.95 2361.75 2607.89 2431.3 2587.47 2499.99C2585.79 2503.86 2585.27 2508.13 2585.98 2512.29H3244.97C3244.83 2518 3242.86 2523.52 3239.36 2528.04C3069.47 2842.82 2826.04 3083.12 2509.05 3248.95C2375.09 3318.58 2232.3 3369.73 2084.58 3401C2021.55 3414.59 1957.77 3424.39 1893.56 3430.37C1838.01 3435.49 1782.37 3438.62 1726.49 3438.62C1714.76 3438.62 1714.52 3438.62 1714.52 3427.07V3186.5C1714.52 3174.45 1714.52 3174.29 1726.07 3174.2C1751.42 3174.2 1776.68 3174.2 1802.02 3174.2C1810.27 3174.2 1812.5 3177.01 1812.34 3184.93C1811.92 3211.33 1812.34 3237.65 1812.34 3263.97C1811.78 3269.31 1812.2 3274.7 1813.57 3279.89C1828.88 3275.33 1843.84 3269.64 1858.32 3262.89C1956.98 3218.67 2047.09 3157.46 2124.54 3082.05C2241.18 2970.84 2328.84 2839.33 2396.2 2693.63C2408.01 2667.89 2418.74 2641.57 2429.88 2615.58C2429.88 2614.75 2429.88 2613.6 2429.88 2610.55H2413.87C2252.07 2610.55 2090.28 2610.55 1928.48 2610.55C1907.93 2610.55 1910.32 2613.27 1910.24 2592.56C1910.24 2569.38 1910.24 2546.11 1910.24 2522.85C1910.24 2515.26 1911.89 2510.97 1920.48 2512.04C1924.1 2512.29 1927.74 2512.29 1931.37 2512.04H2455.47C2467.36 2512.04 2467.44 2512.04 2471.24 2500.32C2498.5 2414.85 2520.09 2327.68 2535.88 2239.37C2549.33 2166.27 2559.16 2092.6 2566.01 2018.59C2571.54 1958.94 2575.58 1899.21 2576.9 1839.23C2577.32 1819.6 2578.39 1800.04 2578.89 1780.41C2578.89 1768.11 2578.89 1767.95 2566.01 1767.95H1928.48C1907.43 1767.95 1910.4 1770.34 1910.24 1750.13C1910.24 1727.36 1910.24 1704.67 1910.24 1681.9C1910.24 1674.23 1911.89 1670.1 1920.39 1671.09C1924.02 1671.34 1927.66 1671.34 1931.29 1671.09H2557.75C2560.81 1671.09 2563.94 1671.09 2567 1671.09C2578.64 1671.09 2578.89 1671.09 2578.55 1659.05C2576.57 1590.9 2573.85 1522.83 2567.91 1454.94C2562.46 1392.15 2555.19 1329.61 2545.54 1267.41C2528.77 1156.26 2502.95 1046.66 2468.35 939.707C2464.14 926.837 2464.06 926.837 2450.27 926.837H1929.06C1907.85 926.837 1910.32 929.559 1910.24 907.779C1910.16 885.998 1910.24 862.32 1910.24 839.632C1910.24 831.959 1911.97 827.669 1920.56 828.824C1923.64 829.03 1926.72 829.03 1929.8 828.824H2425.51C2428.07 824.781 2425.51 822.141 2424.35 819.501C2370.31 684.227 2294.74 558.576 2200.56 447.415C2117.5 348.794 2016.14 267.158 1902.07 207.003C1873.72 192.011 1844.18 179.4 1813.74 169.299C1812 175.295 1811.49 181.583 1812.25 187.78C1812.25 212.118 1812.25 236.374 1812.25 260.629C1812.25 267.807 1810.44 270.695 1802.68 270.612C1776.37 270.227 1750.01 270.227 1723.6 270.612C1715.34 270.612 1714.35 267.395 1714.35 260.464C1714.35 180.382 1714.35 100.3 1714.35 20.2172C1714.35 13.122 1715.84 10.2344 1723.68 10.2344C1764.95 10.2344 1806.23 12.3794 1847.5 15.1845C1881.02 17.4121 1914.37 20.9597 1947.63 25.1673C2242.5 63.4885 2522.24 178.097 2759.17 357.652C2894.21 459.669 3013.34 581.174 3112.65 718.188C3115.21 721.818 3119.17 724.788 3119.09 730.233C3115.45 733.204 3110.83 731.636 3107.28 731.636C3075.75 731.636 3044.21 731.636 3012.76 731.636C3008.97 731.892 3005.18 731.141 3001.77 729.461C2998.37 727.78 2995.47 725.229 2993.36 722.066C2747.24 410.421 2394.9 200.28 2003.6 131.761C2002.3 131.665 2001 131.748 1999.72 132.008ZM1999.72 3317.84C2218.06 3279.8 2426.27 3197.42 2611.49 3075.79C2796.72 2954.17 2955.04 2795.88 3076.65 2610.71H2564.6C2562.04 2610.71 2559.4 2610.71 2556.84 2610.71C2555.82 2610.55 2554.78 2610.59 2553.77 2610.85C2552.77 2611.1 2551.83 2611.55 2551 2612.17C2550.18 2612.8 2549.49 2613.58 2548.97 2614.48C2548.46 2615.38 2548.13 2616.37 2548.01 2617.4C2547.13 2620.34 2546.08 2623.23 2544.88 2626.06C2500.92 2744.03 2442.94 2856.3 2372.18 2960.44C2274.69 3102.1 2155.41 3221.23 2007.73 3310.75C2005.09 3312.31 2001.95 3313.22 2000.38 3317.84H1999.72Z" fill="white"/>
<mask id="mask0_2293_2" style="mask-type:luminance" maskUnits="userSpaceOnUse" x="-1" y="-1" width="3451" height="3451">
<path d="M3449.23 -0.765625H-0.765625V3449.23H3449.23V-0.765625Z" fill="white"/>
<path d="M1614.8 13.7812V109.814C1186.86 145.62 823.566 315.41 532.911 631.23C263.802 923.783 120.662 1271.7 107.784 1668.45C93.751 2102.74 233.259 2485.22 524.821 2808.14C816.384 3131.05 1182.49 3302.49 1614.88 3339.13V3435.32C1193.38 3403.23 827.445 3245.57 526.637 2949.14C176.135 2603.62 6.57939 2180.96 10.2941 1688.91C26.1435 1205.94 208.411 796.4 561.143 466.72C856.915 190.666 1210.39 42.2446 1614.8 13.7812Z" fill="black"/>
<path d="M1326.12 3170C1326.12 3193.01 1326.12 3192.6 1304.74 3186.5C1250.76 3171 1197.66 3152.57 1145.67 3131.3C1130.98 3125.45 1130.73 3125.28 1130.73 3108.61V848.049C1130.73 829.238 1130.73 829.156 1148.97 829.156H1317.95C1323.9 829.156 1326.21 832.208 1326.21 837.406C1326.21 842.604 1326.21 846.729 1326.21 851.349L1326.12 3170Z" fill="black"/>
<path d="M1029.52 3075.61C1010.64 3067.77 992.44 3058.36 975.123 3047.48C938.802 3026.94 903.306 3004.83 869.048 2980.9C862.175 2975.5 855.01 2970.49 847.585 2965.88C843.503 2963.72 840.196 2960.35 838.125 2956.22C836.053 2952.1 835.32 2947.43 836.028 2942.87C836.028 2476.45 836.028 2010.09 836.028 1543.79C836.028 1541.73 836.028 1539.66 836.028 1537.6C836.524 1526.71 836.772 1526.05 847.585 1525.97C873.423 1525.97 899.261 1525.97 925.099 1525.97C956.055 1525.97 987.093 1525.97 1018.05 1525.97C1031.01 1525.97 1031.09 1525.97 1031.42 1538.84C1031.42 1542.47 1031.42 1546.02 1031.42 1549.65C1031.42 2051.15 1031.42 2552.66 1031.42 3054.16C1032.41 3061.36 1031.77 3068.7 1029.52 3075.61Z" fill="black"/>
<path d="M1620.74 3218.51C1620.74 3242.27 1622.97 3241.11 1599.36 3240.12C1573.69 3238.97 1548.26 3235.59 1522.75 3231.87C1494.77 3228 1466.87 3223.62 1439.13 3218.42C1426.5 3215.95 1425.68 3215.12 1425.35 3202.5C1425.35 3199.37 1425.35 3196.31 1425.35 3193.18V1363.19C1425.35 1337.53 1422.54 1340.34 1448.79 1340.26H1602.33C1621.73 1340.26 1620.74 1339.18 1620.74 1358.9V3218.51Z" fill="black"/>
<path d="M735.817 2875.3C734.051 2875.3 732.303 2874.95 730.674 2874.27C729.044 2873.59 727.566 2872.59 726.323 2871.34C683.893 2833.55 643.775 2793.37 604.564 2752.37C585 2731.91 567.499 2709.55 549.008 2688.1C546.491 2685.51 544.538 2682.43 543.273 2679.05C542.009 2675.67 541.46 2672.07 541.662 2668.46C541.662 2665.82 541.662 2663.27 541.662 2660.71V1825.21C541.662 1802.44 540.176 1804.66 562.877 1804.66H730.286C731.192 1804.62 732.096 1804.78 732.937 1805.12C733.778 1805.46 734.537 1805.97 735.163 1806.63C735.788 1807.28 736.266 1808.07 736.564 1808.92C736.862 1809.78 736.973 1810.69 736.89 1811.59C736.89 1815.14 736.89 1818.77 736.89 1822.4C736.89 2168.53 736.89 2514.57 736.89 2860.53C737.656 2865.47 737.289 2870.52 735.817 2875.3Z" fill="black"/>
<path d="M442.104 2536.05C431.456 2527.8 427.246 2516.08 421.054 2505.85C395.329 2463.51 371.88 2419.83 350.805 2375C318.674 2307.51 291.874 2237.61 270.65 2165.94C265.367 2147.63 259.754 2129.39 254.553 2111.16C251.429 2100.77 249.817 2089.99 249.766 2079.15C249.766 2034.27 249.766 1989.3 249.766 1944.34C249.766 1929.16 249.766 1929.08 265.367 1929.08H429.64C444.994 1929.08 445.076 1929.08 445.159 1944.42C445.159 2136.93 445.159 2329.63 445.159 2522.52C445.241 2526.89 446.562 2531.76 442.104 2536.05Z" fill="black"/>
<path d="M1812.17 3057.22C1812.17 3076.11 1812.17 3076.11 1793.43 3076.11H1728.3C1712.29 3076.11 1714.68 3076.11 1714.52 3061.59V388.51C1714.52 367.719 1714.52 367.719 1734.82 367.719C1757.03 367.719 1779.24 367.719 1801.44 367.719C1809.12 367.719 1813.33 369.534 1812.26 378.032C1812.05 381.631 1812.05 385.24 1812.26 388.84L1812.17 3057.22Z" fill="black"/>
<path d="M1999.72 132.008C2001.13 134.644 2003.4 136.714 2006.16 137.866C2163.83 233.156 2288.81 361.777 2389.44 514.984C2450.65 609.348 2501.62 709.965 2541.49 815.128C2546.86 828.989 2546.86 829.071 2562.13 829.071H3101.75C3125.52 829.071 3149.3 829.896 3173.07 829.071C3177.32 828.621 3181.59 829.519 3185.3 831.636C3189 833.754 3191.95 836.985 3193.71 840.869C3258.21 948.335 3310.8 1062.5 3350.55 1181.36C3383.29 1279.21 3407.05 1379.84 3421.54 1482C3425.75 1511.53 3428.64 1541.4 3432.11 1570.52C3427.9 1574.65 3423.86 1573.08 3419.56 1573.08C3395.29 1573.08 3371.02 1573.08 3346.75 1573.08C3334.04 1573.08 3333.96 1573.08 3332.8 1560.79C3328.68 1516.56 3322.07 1472.76 3314.07 1428.78C3287.47 1283.62 3240.71 1142.89 3175.14 1010.66C3163 985.909 3149.55 962.395 3137.25 938.057C3135.96 934.494 3133.53 931.458 3130.33 929.427C3127.14 927.396 3123.35 926.485 3119.58 926.837C2943.48 927.167 2767.21 927.167 2590.77 926.837C2587.8 926.837 2584.58 926.012 2581.77 928.569C2582.09 935.203 2583.72 941.708 2586.56 947.71C2613.54 1039.19 2634.88 1132.23 2650.45 1226.32C2666.45 1323.13 2677.47 1420.69 2683.47 1518.63C2686.2 1561.86 2688.18 1605.25 2688.34 1648.65C2688.34 1651.7 2688.34 1654.84 2688.34 1657.89C2689.75 1671.01 2686.69 1671.09 2702.63 1671.09H3344.61C3372.12 1671.09 3399.64 1671.09 3427.16 1671.09C3438.05 1671.09 3438.22 1671.09 3438.38 1681.9C3439.13 1744.93 3438.38 1807.88 3432.77 1870.75C3421.9 1999.31 3396.53 2126.23 3357.16 2249.1C3340.65 2301.16 3321.16 2352.23 3299.78 2402.48C3298.81 2406.36 3296.45 2409.76 3293.16 2412.03C3289.86 2414.31 3285.85 2415.31 3281.87 2414.85C3251.41 2414.27 3220.95 2414.85 3191.07 2414.85C3188.18 2409.57 3191.48 2406.19 3193.05 2402.64C3243.58 2293.6 3281.69 2179.22 3306.64 2061.66C3321.21 1994.05 3331.11 1925.52 3336.27 1856.56C3338.17 1830.82 3339.74 1805.08 3341.22 1779.25C3341.88 1768.28 3341.22 1768.11 3330.33 1768.03C3315.88 1768.03 3301.44 1768.03 3286.91 1768.03H2706.92C2689.83 1768.03 2689.83 1768.03 2689.17 1785.11C2687.68 1826.94 2687.35 1868.77 2684.8 1910.51C2681.08 1969.75 2676.54 2028.99 2669.77 2087.98C2661.93 2156.21 2651.69 2223.94 2638.65 2291.34C2624.95 2361.75 2607.89 2431.3 2587.47 2499.99C2585.79 2503.86 2585.27 2508.13 2585.98 2512.29H3244.97C3244.83 2518 3242.86 2523.52 3239.36 2528.04C3069.47 2842.82 2826.04 3083.12 2509.05 3248.95C2375.09 3318.58 2232.3 3369.73 2084.58 3401C2021.55 3414.59 1957.77 3424.39 1893.56 3430.37C1838.01 3435.49 1782.37 3438.62 1726.49 3438.62C1714.76 3438.62 1714.52 3438.62 1714.52 3427.07V3186.5C1714.52 3174.45 1714.52 3174.29 1726.07 3174.2C1751.42 3174.2 1776.68 3174.2 1802.02 3174.2C1810.27 3174.2 1812.5 3177.01 1812.34 3184.93C1811.92 3211.33 1812.34 3237.65 1812.34 3263.97C1811.78 3269.31 1812.2 3274.7 1813.57 3279.89C1828.88 3275.33 1843.84 3269.64 1858.32 3262.89C1956.98 3218.67 2047.09 3157.46 2124.54 3082.05C2241.18 2970.84 2328.84 2839.33 2396.2 2693.63C2408.01 2667.89 2418.74 2641.57 2429.88 2615.58C2429.88 2614.75 2429.88 2613.6 2429.88 2610.55H2413.87C2252.07 2610.55 2090.28 2610.55 1928.48 2610.55C1907.93 2610.55 1910.32 2613.27 1910.24 2592.56C1910.24 2569.38 1910.24 2546.11 1910.24 2522.85C1910.24 2515.26 1911.89 2510.97 1920.48 2512.04C1924.1 2512.29 1927.74 2512.29 1931.37 2512.04H2455.47C2467.36 2512.04 2467.44 2512.04 2471.24 2500.32C2498.5 2414.85 2520.09 2327.68 2535.88 2239.37C2549.33 2166.27 2559.16 2092.6 2566.01 2018.59C2571.54 1958.94 2575.58 1899.21 2576.9 1839.23C2577.32 1819.6 2578.39 1800.04 2578.89 1780.41C2578.89 1768.11 2578.89 1767.95 2566.01 1767.95H1928.48C1907.43 1767.95 1910.4 1770.34 1910.24 1750.13C1910.24 1727.36 1910.24 1704.67 1910.24 1681.9C1910.24 1674.23 1911.89 1670.1 1920.39 1671.09C1924.02 1671.34 1927.66 1671.34 1931.29 1671.09H2557.75C2560.81 1671.09 2563.94 1671.09 2567 1671.09C2578.64 1671.09 2578.89 1671.09 2578.55 1659.05C2576.57 1590.9 2573.85 1522.83 2567.91 1454.94C2562.46 1392.15 2555.19 1329.61 2545.54 1267.41C2528.77 1156.26 2502.95 1046.66 2468.35 939.707C2464.14 926.837 2464.06 926.837 2450.27 926.837H1929.06C1907.85 926.837 1910.32 929.559 1910.24 907.779C1910.16 885.998 1910.24 862.32 1910.24 839.632C1910.24 831.959 1911.97 827.669 1920.56 828.824C1923.64 829.03 1926.72 829.03 1929.8 828.824H2425.51C2428.07 824.781 2425.51 822.141 2424.35 819.501C2370.31 684.227 2294.74 558.576 2200.56 447.415C2117.5 348.794 2016.14 267.158 1902.07 207.003C1873.72 192.011 1844.18 179.4 1813.74 169.299C1812 175.295 1811.49 181.583 1812.25 187.78C1812.25 212.118 1812.25 236.374 1812.25 260.629C1812.25 267.807 1810.44 270.695 1802.68 270.612C1776.37 270.227 1750.01 270.227 1723.6 270.612C1715.34 270.612 1714.35 267.395 1714.35 260.464C1714.35 180.382 1714.35 100.3 1714.35 20.2172C1714.35 13.122 1715.84 10.2344 1723.68 10.2344C1764.95 10.2344 1806.23 12.3794 1847.5 15.1845C1881.02 17.4121 1914.37 20.9597 1947.63 25.1673C2242.5 63.4885 2522.24 178.097 2759.17 357.652C2894.21 459.669 3013.34 581.174 3112.65 718.188C3115.21 721.818 3119.17 724.788 3119.09 730.233C3115.45 733.204 3110.83 731.636 3107.28 731.636C3075.75 731.636 3044.21 731.636 3012.76 731.636C3008.97 731.892 3005.18 731.141 3001.77 729.461C2998.37 727.78 2995.47 725.229 2993.36 722.066C2747.24 410.421 2394.9 200.28 2003.6 131.761C2002.3 131.665 2001 131.748 1999.72 132.008ZM1999.72 3317.84C2218.06 3279.8 2426.27 3197.42 2611.49 3075.79C2796.72 2954.17 2955.04 2795.88 3076.65 2610.71H2564.6C2562.04 2610.71 2559.4 2610.71 2556.84 2610.71C2555.82 2610.55 2554.78 2610.59 2553.77 2610.85C2552.77 2611.1 2551.83 2611.55 2551 2612.17C2550.18 2612.8 2549.49 2613.58 2548.97 2614.48C2548.46 2615.38 2548.13 2616.37 2548.01 2617.4C2547.13 2620.34 2546.08 2623.23 2544.88 2626.06C2500.92 2744.03 2442.94 2856.3 2372.18 2960.44C2274.69 3102.1 2155.41 3221.23 2007.73 3310.75C2005.09 3312.31 2001.95 3313.22 2000.38 3317.84H1999.72Z" fill="black"/>
</mask>
<g mask="url(#mask0_2293_2)">
<path d="M1614.8 13.7812V109.814C1186.86 145.62 823.566 315.41 532.911 631.23C263.802 923.783 120.662 1271.7 107.784 1668.45C93.751 2102.74 233.259 2485.22 524.821 2808.14C816.384 3131.05 1182.49 3302.49 1614.88 3339.13V3435.32C1193.38 3403.23 827.445 3245.57 526.637 2949.14C176.135 2603.62 6.57939 2180.96 10.2941 1688.91C26.1435 1205.94 208.411 796.4 561.143 466.72C856.915 190.666 1210.39 42.2446 1614.8 13.7812Z" stroke="white" stroke-width="20.468"/>
</g>
<mask id="mask1_2293_2" style="mask-type:luminance" maskUnits="userSpaceOnUse" x="-1" y="-1" width="3451" height="3451">
<path d="M3449.23 -0.765625H-0.765625V3449.23H3449.23V-0.765625Z" fill="white"/>
<path d="M1614.8 13.7812V109.814C1186.86 145.62 823.566 315.41 532.911 631.23C263.802 923.783 120.662 1271.7 107.784 1668.45C93.751 2102.74 233.259 2485.22 524.821 2808.14C816.384 3131.05 1182.49 3302.49 1614.88 3339.13V3435.32C1193.38 3403.23 827.445 3245.57 526.637 2949.14C176.135 2603.62 6.57939 2180.96 10.2941 1688.91C26.1435 1205.94 208.411 796.4 561.143 466.72C856.915 190.666 1210.39 42.2446 1614.8 13.7812Z" fill="black"/>
<path d="M1326.12 3170C1326.12 3193.01 1326.12 3192.6 1304.74 3186.5C1250.76 3171 1197.66 3152.57 1145.67 3131.3C1130.98 3125.45 1130.73 3125.28 1130.73 3108.61V848.049C1130.73 829.238 1130.73 829.156 1148.97 829.156H1317.95C1323.9 829.156 1326.21 832.208 1326.21 837.406C1326.21 842.604 1326.21 846.729 1326.21 851.349L1326.12 3170Z" fill="black"/>
<path d="M1029.52 3075.61C1010.64 3067.77 992.44 3058.36 975.123 3047.48C938.802 3026.94 903.306 3004.83 869.048 2980.9C862.175 2975.5 855.01 2970.49 847.585 2965.88C843.503 2963.72 840.196 2960.35 838.125 2956.22C836.053 2952.1 835.32 2947.43 836.028 2942.87C836.028 2476.45 836.028 2010.09 836.028 1543.79C836.028 1541.73 836.028 1539.66 836.028 1537.6C836.524 1526.71 836.772 1526.05 847.585 1525.97C873.423 1525.97 899.261 1525.97 925.099 1525.97C956.055 1525.97 987.093 1525.97 1018.05 1525.97C1031.01 1525.97 1031.09 1525.97 1031.42 1538.84C1031.42 1542.47 1031.42 1546.02 1031.42 1549.65C1031.42 2051.15 1031.42 2552.66 1031.42 3054.16C1032.41 3061.36 1031.77 3068.7 1029.52 3075.61Z" fill="black"/>
<path d="M1620.74 3218.51C1620.74 3242.27 1622.97 3241.11 1599.36 3240.12C1573.69 3238.97 1548.26 3235.59 1522.75 3231.87C1494.77 3228 1466.87 3223.62 1439.13 3218.42C1426.5 3215.95 1425.68 3215.12 1425.35 3202.5C1425.35 3199.37 1425.35 3196.31 1425.35 3193.18V1363.19C1425.35 1337.53 1422.54 1340.34 1448.79 1340.26H1602.33C1621.73 1340.26 1620.74 1339.18 1620.74 1358.9V3218.51Z" fill="black"/>
<path d="M735.817 2875.3C734.051 2875.3 732.303 2874.95 730.674 2874.27C729.044 2873.59 727.566 2872.59 726.323 2871.34C683.893 2833.55 643.775 2793.37 604.564 2752.37C585 2731.91 567.499 2709.55 549.008 2688.1C546.491 2685.51 544.538 2682.43 543.273 2679.05C542.009 2675.67 541.46 2672.07 541.662 2668.46C541.662 2665.82 541.662 2663.27 541.662 2660.71V1825.21C541.662 1802.44 540.176 1804.66 562.877 1804.66H730.286C731.192 1804.62 732.096 1804.78 732.937 1805.12C733.778 1805.46 734.537 1805.97 735.163 1806.63C735.788 1807.28 736.266 1808.07 736.564 1808.92C736.862 1809.78 736.973 1810.69 736.89 1811.59C736.89 1815.14 736.89 1818.77 736.89 1822.4C736.89 2168.53 736.89 2514.57 736.89 2860.53C737.656 2865.47 737.289 2870.52 735.817 2875.3Z" fill="black"/>
<path d="M442.104 2536.05C431.456 2527.8 427.246 2516.08 421.054 2505.85C395.329 2463.51 371.88 2419.83 350.805 2375C318.674 2307.51 291.874 2237.61 270.65 2165.94C265.367 2147.63 259.754 2129.39 254.553 2111.16C251.429 2100.77 249.817 2089.99 249.766 2079.15C249.766 2034.27 249.766 1989.3 249.766 1944.34C249.766 1929.16 249.766 1929.08 265.367 1929.08H429.64C444.994 1929.08 445.076 1929.08 445.159 1944.42C445.159 2136.93 445.159 2329.63 445.159 2522.52C445.241 2526.89 446.562 2531.76 442.104 2536.05Z" fill="black"/>
<path d="M1812.17 3057.22C1812.17 3076.11 1812.17 3076.11 1793.43 3076.11H1728.3C1712.29 3076.11 1714.68 3076.11 1714.52 3061.59V388.51C1714.52 367.719 1714.52 367.719 1734.82 367.719C1757.03 367.719 1779.24 367.719 1801.44 367.719C1809.12 367.719 1813.33 369.534 1812.26 378.032C1812.05 381.631 1812.05 385.24 1812.26 388.84L1812.17 3057.22Z" fill="black"/>
<path d="M1999.72 132.008C2001.13 134.644 2003.4 136.714 2006.16 137.866C2163.83 233.156 2288.81 361.777 2389.44 514.984C2450.65 609.348 2501.62 709.965 2541.49 815.128C2546.86 828.989 2546.86 829.071 2562.13 829.071H3101.75C3125.52 829.071 3149.3 829.896 3173.07 829.071C3177.32 828.621 3181.59 829.519 3185.3 831.636C3189 833.754 3191.95 836.985 3193.71 840.869C3258.21 948.335 3310.8 1062.5 3350.55 1181.36C3383.29 1279.21 3407.05 1379.84 3421.54 1482C3425.75 1511.53 3428.64 1541.4 3432.11 1570.52C3427.9 1574.65 3423.86 1573.08 3419.56 1573.08C3395.29 1573.08 3371.02 1573.08 3346.75 1573.08C3334.04 1573.08 3333.96 1573.08 3332.8 1560.79C3328.68 1516.56 3322.07 1472.76 3314.07 1428.78C3287.47 1283.62 3240.71 1142.89 3175.14 1010.66C3163 985.909 3149.55 962.395 3137.25 938.057C3135.96 934.494 3133.53 931.458 3130.33 929.427C3127.14 927.396 3123.35 926.485 3119.58 926.837C2943.48 927.167 2767.21 927.167 2590.77 926.837C2587.8 926.837 2584.58 926.012 2581.77 928.569C2582.09 935.203 2583.72 941.708 2586.56 947.71C2613.54 1039.19 2634.88 1132.23 2650.45 1226.32C2666.45 1323.13 2677.47 1420.69 2683.47 1518.63C2686.2 1561.86 2688.18 1605.25 2688.34 1648.65C2688.34 1651.7 2688.34 1654.84 2688.34 1657.89C2689.75 1671.01 2686.69 1671.09 2702.63 1671.09H3344.61C3372.12 1671.09 3399.64 1671.09 3427.16 1671.09C3438.05 1671.09 3438.22 1671.09 3438.38 1681.9C3439.13 1744.93 3438.38 1807.88 3432.77 1870.75C3421.9 1999.31 3396.53 2126.23 3357.16 2249.1C3340.65 2301.16 3321.16 2352.23 3299.78 2402.48C3298.81 2406.36 3296.45 2409.76 3293.16 2412.03C3289.86 2414.31 3285.85 2415.31 3281.87 2414.85C3251.41 2414.27 3220.95 2414.85 3191.07 2414.85C3188.18 2409.57 3191.48 2406.19 3193.05 2402.64C3243.58 2293.6 3281.69 2179.22 3306.64 2061.66C3321.21 1994.05 3331.11 1925.52 3336.27 1856.56C3338.17 1830.82 3339.74 1805.08 3341.22 1779.25C3341.88 1768.28 3341.22 1768.11 3330.33 1768.03C3315.88 1768.03 3301.44 1768.03 3286.91 1768.03H2706.92C2689.83 1768.03 2689.83 1768.03 2689.17 1785.11C2687.68 1826.94 2687.35 1868.77 2684.8 1910.51C2681.08 1969.75 2676.54 2028.99 2669.77 2087.98C2661.93 2156.21 2651.69 2223.94 2638.65 2291.34C2624.95 2361.75 2607.89 2431.3 2587.47 2499.99C2585.79 2503.86 2585.27 2508.13 2585.98 2512.29H3244.97C3244.83 2518 3242.86 2523.52 3239.36 2528.04C3069.47 2842.82 2826.04 3083.12 2509.05 3248.95C2375.09 3318.58 2232.3 3369.73 2084.58 3401C2021.55 3414.59 1957.77 3424.39 1893.56 3430.37C1838.01 3435.49 1782.37 3438.62 1726.49 3438.62C1714.76 3438.62 1714.52 3438.62 1714.52 3427.07V3186.5C1714.52 3174.45 1714.52 3174.29 1726.07 3174.2C1751.42 3174.2 1776.68 3174.2 1802.02 3174.2C1810.27 3174.2 1812.5 3177.01 1812.34 3184.93C1811.92 3211.33 1812.34 3237.65 1812.34 3263.97C1811.78 3269.31 1812.2 3274.7 1813.57 3279.89C1828.88 3275.33 1843.84 3269.64 1858.32 3262.89C1956.98 3218.67 2047.09 3157.46 2124.54 3082.05C2241.18 2970.84 2328.84 2839.33 2396.2 2693.63C2408.01 2667.89 2418.74 2641.57 2429.88 2615.58C2429.88 2614.75 2429.88 2613.6 2429.88 2610.55H2413.87C2252.07 2610.55 2090.28 2610.55 1928.48 2610.55C1907.93 2610.55 1910.32 2613.27 1910.24 2592.56C1910.24 2569.38 1910.24 2546.11 1910.24 2522.85C1910.24 2515.26 1911.89 2510.97 1920.48 2512.04C1924.1 2512.29 1927.74 2512.29 1931.37 2512.04H2455.47C2467.36 2512.04 2467.44 2512.04 2471.24 2500.32C2498.5 2414.85 2520.09 2327.68 2535.88 2239.37C2549.33 2166.27 2559.16 2092.6 2566.01 2018.59C2571.54 1958.94 2575.58 1899.21 2576.9 1839.23C2577.32 1819.6 2578.39 1800.04 2578.89 1780.41C2578.89 1768.11 2578.89 1767.95 2566.01 1767.95H1928.48C1907.43 1767.95 1910.4 1770.34 1910.24 1750.13C1910.24 1727.36 1910.24 1704.67 1910.24 1681.9C1910.24 1674.23 1911.89 1670.1 1920.39 1671.09C1924.02 1671.34 1927.66 1671.34 1931.29 1671.09H2557.75C2560.81 1671.09 2563.94 1671.09 2567 1671.09C2578.64 1671.09 2578.89 1671.09 2578.55 1659.05C2576.57 1590.9 2573.85 1522.83 2567.91 1454.94C2562.46 1392.15 2555.19 1329.61 2545.54 1267.41C2528.77 1156.26 2502.95 1046.66 2468.35 939.707C2464.14 926.837 2464.06 926.837 2450.27 926.837H1929.06C1907.85 926.837 1910.32 929.559 1910.24 907.779C1910.16 885.998 1910.24 862.32 1910.24 839.632C1910.24 831.959 1911.97 827.669 1920.56 828.824C1923.64 829.03 1926.72 829.03 1929.8 828.824H2425.51C2428.07 824.781 2425.51 822.141 2424.35 819.501C2370.31 684.227 2294.74 558.576 2200.56 447.415C2117.5 348.794 2016.14 267.158 1902.07 207.003C1873.72 192.011 1844.18 179.4 1813.74 169.299C1812 175.295 1811.49 181.583 1812.25 187.78C1812.25 212.118 1812.25 236.374 1812.25 260.629C1812.25 267.807 1810.44 270.695 1802.68 270.612C1776.37 270.227 1750.01 270.227 1723.6 270.612C1715.34 270.612 1714.35 267.395 1714.35 260.464C1714.35 180.382 1714.35 100.3 1714.35 20.2172C1714.35 13.122 1715.84 10.2344 1723.68 10.2344C1764.95 10.2344 1806.23 12.3794 1847.5 15.1845C1881.02 17.4121 1914.37 20.9597 1947.63 25.1673C2242.5 63.4885 2522.24 178.097 2759.17 357.652C2894.21 459.669 3013.34 581.174 3112.65 718.188C3115.21 721.818 3119.17 724.788 3119.09 730.233C3115.45 733.204 3110.83 731.636 3107.28 731.636C3075.75 731.636 3044.21 731.636 3012.76 731.636C3008.97 731.892 3005.18 731.141 3001.77 729.461C2998.37 727.78 2995.47 725.229 2993.36 722.066C2747.24 410.421 2394.9 200.28 2003.6 131.761C2002.3 131.665 2001 131.748 1999.72 132.008ZM1999.72 3317.84C2218.06 3279.8 2426.27 3197.42 2611.49 3075.79C2796.72 2954.17 2955.04 2795.88 3076.65 2610.71H2564.6C2562.04 2610.71 2559.4 2610.71 2556.84 2610.71C2555.82 2610.55 2554.78 2610.59 2553.77 2610.85C2552.77 2611.1 2551.83 2611.55 2551 2612.17C2550.18 2612.8 2549.49 2613.58 2548.97 2614.48C2548.46 2615.38 2548.13 2616.37 2548.01 2617.4C2547.13 2620.34 2546.08 2623.23 2544.88 2626.06C2500.92 2744.03 2442.94 2856.3 2372.18 2960.44C2274.69 3102.1 2155.41 3221.23 2007.73 3310.75C2005.09 3312.31 2001.95 3313.22 2000.38 3317.84H1999.72Z" fill="black"/>
</mask>
<g mask="url(#mask1_2293_2)">
<path d="M1326.12 3170C1326.12 3193.01 1326.12 3192.6 1304.74 3186.5C1250.76 3171 1197.66 3152.57 1145.67 3131.3C1130.98 3125.45 1130.73 3125.28 1130.73 3108.61V848.049C1130.73 829.238 1130.73 829.156 1148.97 829.156H1317.95C1323.9 829.156 1326.21 832.208 1326.21 837.406C1326.21 842.604 1326.21 846.729 1326.21 851.349L1326.12 3170Z" stroke="white" stroke-width="20.468"/>
</g>
<mask id="mask2_2293_2" style="mask-type:luminance" maskUnits="userSpaceOnUse" x="-1" y="-1" width="3451" height="3451">
<path d="M3449.23 -0.765625H-0.765625V3449.23H3449.23V-0.765625Z" fill="white"/>
<path d="M1614.8 13.7812V109.814C1186.86 145.62 823.566 315.41 532.911 631.23C263.802 923.783 120.662 1271.7 107.784 1668.45C93.751 2102.74 233.259 2485.22 524.821 2808.14C816.384 3131.05 1182.49 3302.49 1614.88 3339.13V3435.32C1193.38 3403.23 827.445 3245.57 526.637 2949.14C176.135 2603.62 6.57939 2180.96 10.2941 1688.91C26.1435 1205.94 208.411 796.4 561.143 466.72C856.915 190.666 1210.39 42.2446 1614.8 13.7812Z" fill="black"/>
<path d="M1326.12 3170C1326.12 3193.01 1326.12 3192.6 1304.74 3186.5C1250.76 3171 1197.66 3152.57 1145.67 3131.3C1130.98 3125.45 1130.73 3125.28 1130.73 3108.61V848.049C1130.73 829.238 1130.73 829.156 1148.97 829.156H1317.95C1323.9 829.156 1326.21 832.208 1326.21 837.406C1326.21 842.604 1326.21 846.729 1326.21 851.349L1326.12 3170Z" fill="black"/>
<path d="M1029.52 3075.61C1010.64 3067.77 992.44 3058.36 975.123 3047.48C938.802 3026.94 903.306 3004.83 869.048 2980.9C862.175 2975.5 855.01 2970.49 847.585 2965.88C843.503 2963.72 840.196 2960.35 838.125 2956.22C836.053 2952.1 835.32 2947.43 836.028 2942.87C836.028 2476.45 836.028 2010.09 836.028 1543.79C836.028 1541.73 836.028 1539.66 836.028 1537.6C836.524 1526.71 836.772 1526.05 847.585 1525.97C873.423 1525.97 899.261 1525.97 925.099 1525.97C956.055 1525.97 987.093 1525.97 1018.05 1525.97C1031.01 1525.97 1031.09 1525.97 1031.42 1538.84C1031.42 1542.47 1031.42 1546.02 1031.42 1549.65C1031.42 2051.15 1031.42 2552.66 1031.42 3054.16C1032.41 3061.36 1031.77 3068.7 1029.52 3075.61Z" fill="black"/>
<path d="M1620.74 3218.51C1620.74 3242.27 1622.97 3241.11 1599.36 3240.12C1573.69 3238.97 1548.26 3235.59 1522.75 3231.87C1494.77 3228 1466.87 3223.62 1439.13 3218.42C1426.5 3215.95 1425.68 3215.12 1425.35 3202.5C1425.35 3199.37 1425.35 3196.31 1425.35 3193.18V1363.19C1425.35 1337.53 1422.54 1340.34 1448.79 1340.26H1602.33C1621.73 1340.26 1620.74 1339.18 1620.74 1358.9V3218.51Z" fill="black"/>
<path d="M735.817 2875.3C734.051 2875.3 732.303 2874.95 730.674 2874.27C729.044 2873.59 727.566 2872.59 726.323 2871.34C683.893 2833.55 643.775 2793.37 604.564 2752.37C585 2731.91 567.499 2709.55 549.008 2688.1C546.491 2685.51 544.538 2682.43 543.273 2679.05C542.009 2675.67 541.46 2672.07 541.662 2668.46C541.662 2665.82 541.662 2663.27 541.662 2660.71V1825.21C541.662 1802.44 540.176 1804.66 562.877 1804.66H730.286C731.192 1804.62 732.096 1804.78 732.937 1805.12C733.778 1805.46 734.537 1805.97 735.163 1806.63C735.788 1807.28 736.266 1808.07 736.564 1808.92C736.862 1809.78 736.973 1810.69 736.89 1811.59C736.89 1815.14 736.89 1818.77 736.89 1822.4C736.89 2168.53 736.89 2514.57 736.89 2860.53C737.656 2865.47 737.289 2870.52 735.817 2875.3Z" fill="black"/>
<path d="M442.104 2536.05C431.456 2527.8 427.246 2516.08 421.054 2505.85C395.329 2463.51 371.88 2419.83 350.805 2375C318.674 2307.51 291.874 2237.61 270.65 2165.94C265.367 2147.63 259.754 2129.39 254.553 2111.16C251.429 2100.77 249.817 2089.99 249.766 2079.15C249.766 2034.27 249.766 1989.3 249.766 1944.34C249.766 1929.16 249.766 1929.08 265.367 1929.08H429.64C444.994 1929.08 445.076 1929.08 445.159 1944.42C445.159 2136.93 445.159 2329.63 445.159 2522.52C445.241 2526.89 446.562 2531.76 442.104 2536.05Z" fill="black"/>
<path d="M1812.17 3057.22C1812.17 3076.11 1812.17 3076.11 1793.43 3076.11H1728.3C1712.29 3076.11 1714.68 3076.11 1714.52 3061.59V388.51C1714.52 367.719 1714.52 367.719 1734.82 367.719C1757.03 367.719 1779.24 367.719 1801.44 367.719C1809.12 367.719 1813.33 369.534 1812.26 378.032C1812.05 381.631 1812.05 385.24 1812.26 388.84L1812.17 3057.22Z" fill="black"/>
<path d="M1999.72 132.008C2001.13 134.644 2003.4 136.714 2006.16 137.866C2163.83 233.156 2288.81 361.777 2389.44 514.984C2450.65 609.348 2501.62 709.965 2541.49 815.128C2546.86 828.989 2546.86 829.071 2562.13 829.071H3101.75C3125.52 829.071 3149.3 829.896 3173.07 829.071C3177.32 828.621 3181.59 829.519 3185.3 831.636C3189 833.754 3191.95 836.985 3193.71 840.869C3258.21 948.335 3310.8 1062.5 3350.55 1181.36C3383.29 1279.21 3407.05 1379.84 3421.54 1482C3425.75 1511.53 3428.64 1541.4 3432.11 1570.52C3427.9 1574.65 3423.86 1573.08 3419.56 1573.08C3395.29 1573.08 3371.02 1573.08 3346.75 1573.08C3334.04 1573.08 3333.96 1573.08 3332.8 1560.79C3328.68 1516.56 3322.07 1472.76 3314.07 1428.78C3287.47 1283.62 3240.71 1142.89 3175.14 1010.66C3163 985.909 3149.55 962.395 3137.25 938.057C3135.96 934.494 3133.53 931.458 3130.33 929.427C3127.14 927.396 3123.35 926.485 3119.58 926.837C2943.48 927.167 2767.21 927.167 2590.77 926.837C2587.8 926.837 2584.58 926.012 2581.77 928.569C2582.09 935.203 2583.72 941.708 2586.56 947.71C2613.54 1039.19 2634.88 1132.23 2650.45 1226.32C2666.45 1323.13 2677.47 1420.69 2683.47 1518.63C2686.2 1561.86 2688.18 1605.25 2688.34 1648.65C2688.34 1651.7 2688.34 1654.84 2688.34 1657.89C2689.75 1671.01 2686.69 1671.09 2702.63 1671.09H3344.61C3372.12 1671.09 3399.64 1671.09 3427.16 1671.09C3438.05 1671.09 3438.22 1671.09 3438.38 1681.9C3439.13 1744.93 3438.38 1807.88 3432.77 1870.75C3421.9 1999.31 3396.53 2126.23 3357.16 2249.1C3340.65 2301.16 3321.16 2352.23 3299.78 2402.48C3298.81 2406.36 3296.45 2409.76 3293.16 2412.03C3289.86 2414.31 3285.85 2415.31 3281.87 2414.85C3251.41 2414.27 3220.95 2414.85 3191.07 2414.85C3188.18 2409.57 3191.48 2406.19 3193.05 2402.64C3243.58 2293.6 3281.69 2179.22 3306.64 2061.66C3321.21 1994.05 3331.11 1925.52 3336.27 1856.56C3338.17 1830.82 3339.74 1805.08 3341.22 1779.25C3341.88 1768.28 3341.22 1768.11 3330.33 1768.03C3315.88 1768.03 3301.44 1768.03 3286.91 1768.03H2706.92C2689.83 1768.03 2689.83 1768.03 2689.17 1785.11C2687.68 1826.94 2687.35 1868.77 2684.8 1910.51C2681.08 1969.75 2676.54 2028.99 2669.77 2087.98C2661.93 2156.21 2651.69 2223.94 2638.65 2291.34C2624.95 2361.75 2607.89 2431.3 2587.47 2499.99C2585.79 2503.86 2585.27 2508.13 2585.98 2512.29H3244.97C3244.83 2518 3242.86 2523.52 3239.36 2528.04C3069.47 2842.82 2826.04 3083.12 2509.05 3248.95C2375.09 3318.58 2232.3 3369.73 2084.58 3401C2021.55 3414.59 1957.77 3424.39 1893.56 3430.37C1838.01 3435.49 1782.37 3438.62 1726.49 3438.62C1714.76 3438.62 1714.52 3438.62 1714.52 3427.07V3186.5C1714.52 3174.45 1714.52 3174.29 1726.07 3174.2C1751.42 3174.2 1776.68 3174.2 1802.02 3174.2C1810.27 3174.2 1812.5 3177.01 1812.34 3184.93C1811.92 3211.33 1812.34 3237.65 1812.34 3263.97C1811.78 3269.31 1812.2 3274.7 1813.57 3279.89C1828.88 3275.33 1843.84 3269.64 1858.32 3262.89C1956.98 3218.67 2047.09 3157.46 2124.54 3082.05C2241.18 2970.84 2328.84 2839.33 2396.2 2693.63C2408.01 2667.89 2418.74 2641.57 2429.88 2615.58C2429.88 2614.75 2429.88 2613.6 2429.88 2610.55H2413.87C2252.07 2610.55 2090.28 2610.55 1928.48 2610.55C1907.93 2610.55 1910.32 2613.27 1910.24 2592.56C1910.24 2569.38 1910.24 2546.11 1910.24 2522.85C1910.24 2515.26 1911.89 2510.97 1920.48 2512.04C1924.1 2512.29 1927.74 2512.29 1931.37 2512.04H2455.47C2467.36 2512.04 2467.44 2512.04 2471.24 2500.32C2498.5 2414.85 2520.09 2327.68 2535.88 2239.37C2549.33 2166.27 2559.16 2092.6 2566.01 2018.59C2571.54 1958.94 2575.58 1899.21 2576.9 1839.23C2577.32 1819.6 2578.39 1800.04 2578.89 1780.41C2578.89 1768.11 2578.89 1767.95 2566.01 1767.95H1928.48C1907.43 1767.95 1910.4 1770.34 1910.24 1750.13C1910.24 1727.36 1910.24 1704.67 1910.24 1681.9C1910.24 1674.23 1911.89 1670.1 1920.39 1671.09C1924.02 1671.34 1927.66 1671.34 1931.29 1671.09H2557.75C2560.81 1671.09 2563.94 1671.09 2567 1671.09C2578.64 1671.09 2578.89 1671.09 2578.55 1659.05C2576.57 1590.9 2573.85 1522.83 2567.91 1454.94C2562.46 1392.15 2555.19 1329.61 2545.54 1267.41C2528.77 1156.26 2502.95 1046.66 2468.35 939.707C2464.14 926.837 2464.06 926.837 2450.27 926.837H1929.06C1907.85 926.837 1910.32 929.559 1910.24 907.779C1910.16 885.998 1910.24 862.32 1910.24 839.632C1910.24 831.959 1911.97 827.669 1920.56 828.824C1923.64 829.03 1926.72 829.03 1929.8 828.824H2425.51C2428.07 824.781 2425.51 822.141 2424.35 819.501C2370.31 684.227 2294.74 558.576 2200.56 447.415C2117.5 348.794 2016.14 267.158 1902.07 207.003C1873.72 192.011 1844.18 179.4 1813.74 169.299C1812 175.295 1811.49 181.583 1812.25 187.78C1812.25 212.118 1812.25 236.374 1812.25 260.629C1812.25 267.807 1810.44 270.695 1802.68 270.612C1776.37 270.227 1750.01 270.227 1723.6 270.612C1715.34 270.612 1714.35 267.395 1714.35 260.464C1714.35 180.382 1714.35 100.3 1714.35 20.2172C1714.35 13.122 1715.84 10.2344 1723.68 10.2344C1764.95 10.2344 1806.23 12.3794 1847.5 15.1845C1881.02 17.4121 1914.37 20.9597 1947.63 25.1673C2242.5 63.4885 2522.24 178.097 2759.17 357.652C2894.21 459.669 3013.34 581.174 3112.65 718.188C3115.21 721.818 3119.17 724.788 3119.09 730.233C3115.45 733.204 3110.83 731.636 3107.28 731.636C3075.75 731.636 3044.21 731.636 3012.76 731.636C3008.97 731.892 3005.18 731.141 3001.77 729.461C2998.37 727.78 2995.47 725.229 2993.36 722.066C2747.24 410.421 2394.9 200.28 2003.6 131.761C2002.3 131.665 2001 131.748 1999.72 132.008ZM1999.72 3317.84C2218.06 3279.8 2426.27 3197.42 2611.49 3075.79C2796.72 2954.17 2955.04 2795.88 3076.65 2610.71H2564.6C2562.04 2610.71 2559.4 2610.71 2556.84 2610.71C2555.82 2610.55 2554.78 2610.59 2553.77 2610.85C2552.77 2611.1 2551.83 2611.55 2551 2612.17C2550.18 2612.8 2549.49 2613.58 2548.97 2614.48C2548.46 2615.38 2548.13 2616.37 2548.01 2617.4C2547.13 2620.34 2546.08 2623.23 2544.88 2626.06C2500.92 2744.03 2442.94 2856.3 2372.18 2960.44C2274.69 3102.1 2155.41 3221.23 2007.73 3310.75C2005.09 3312.31 2001.95 3313.22 2000.38 3317.84H1999.72Z" fill="black"/>
</mask>
<g mask="url(#mask2_2293_2)">
<path d="M1029.52 3075.61C1010.64 3067.77 992.44 3058.36 975.123 3047.48C938.802 3026.94 903.306 3004.83 869.048 2980.9C862.175 2975.5 855.01 2970.49 847.585 2965.88C843.503 2963.72 840.196 2960.35 838.125 2956.22C836.053 2952.1 835.32 2947.43 836.028 2942.87C836.028 2476.45 836.028 2010.09 836.028 1543.79C836.028 1541.73 836.028 1539.66 836.028 1537.6C836.524 1526.71 836.772 1526.05 847.585 1525.97C873.423 1525.97 899.261 1525.97 925.099 1525.97C956.055 1525.97 987.093 1525.97 1018.05 1525.97C1031.01 1525.97 1031.09 1525.97 1031.42 1538.84C1031.42 1542.47 1031.42 1546.02 1031.42 1549.65C1031.42 2051.15 1031.42 2552.66 1031.42 3054.16C1032.41 3061.36 1031.77 3068.7 1029.52 3075.61Z" stroke="white" stroke-width="20.468"/>
</g>
<mask id="mask3_2293_2" style="mask-type:luminance" maskUnits="userSpaceOnUse" x="-1" y="-1" width="3451" height="3451">
<path d="M3449.23 -0.765625H-0.765625V3449.23H3449.23V-0.765625Z" fill="white"/>
<path d="M1614.8 13.7812V109.814C1186.86 145.62 823.566 315.41 532.911 631.23C263.802 923.783 120.662 1271.7 107.784 1668.45C93.751 2102.74 233.259 2485.22 524.821 2808.14C816.384 3131.05 1182.49 3302.49 1614.88 3339.13V3435.32C1193.38 3403.23 827.445 3245.57 526.637 2949.14C176.135 2603.62 6.57939 2180.96 10.2941 1688.91C26.1435 1205.94 208.411 796.4 561.143 466.72C856.915 190.666 1210.39 42.2446 1614.8 13.7812Z" fill="black"/>
<path d="M1326.12 3170C1326.12 3193.01 1326.12 3192.6 1304.74 3186.5C1250.76 3171 1197.66 3152.57 1145.67 3131.3C1130.98 3125.45 1130.73 3125.28 1130.73 3108.61V848.049C1130.73 829.238 1130.73 829.156 1148.97 829.156H1317.95C1323.9 829.156 1326.21 832.208 1326.21 837.406C1326.21 842.604 1326.21 846.729 1326.21 851.349L1326.12 3170Z" fill="black"/>
<path d="M1029.52 3075.61C1010.64 3067.77 992.44 3058.36 975.123 3047.48C938.802 3026.94 903.306 3004.83 869.048 2980.9C862.175 2975.5 855.01 2970.49 847.585 2965.88C843.503 2963.72 840.196 2960.35 838.125 2956.22C836.053 2952.1 835.32 2947.43 836.028 2942.87C836.028 2476.45 836.028 2010.09 836.028 1543.79C836.028 1541.73 836.028 1539.66 836.028 1537.6C836.524 1526.71 836.772 1526.05 847.585 1525.97C873.423 1525.97 899.261 1525.97 925.099 1525.97C956.055 1525.97 987.093 1525.97 1018.05 1525.97C1031.01 1525.97 1031.09 1525.97 1031.42 1538.84C1031.42 1542.47 1031.42 1546.02 1031.42 1549.65C1031.42 2051.15 1031.42 2552.66 1031.42 3054.16C1032.41 3061.36 1031.77 3068.7 1029.52 3075.61Z" fill="black"/>
<path d="M1620.74 3218.51C1620.74 3242.27 1622.97 3241.11 1599.36 3240.12C1573.69 3238.97 1548.26 3235.59 1522.75 3231.87C1494.77 3228 1466.87 3223.62 1439.13 3218.42C1426.5 3215.95 1425.68 3215.12 1425.35 3202.5C1425.35 3199.37 1425.35 3196.31 1425.35 3193.18V1363.19C1425.35 1337.53 1422.54 1340.34 1448.79 1340.26H1602.33C1621.73 1340.26 1620.74 1339.18 1620.74 1358.9V3218.51Z" fill="black"/>
<path d="M735.817 2875.3C734.051 2875.3 732.303 2874.95 730.674 2874.27C729.044 2873.59 727.566 2872.59 726.323 2871.34C683.893 2833.55 643.775 2793.37 604.564 2752.37C585 2731.91 567.499 2709.55 549.008 2688.1C546.491 2685.51 544.538 2682.43 543.273 2679.05C542.009 2675.67 541.46 2672.07 541.662 2668.46C541.662 2665.82 541.662 2663.27 541.662 2660.71V1825.21C541.662 1802.44 540.176 1804.66 562.877 1804.66H730.286C731.192 1804.62 732.096 1804.78 732.937 1805.12C733.778 1805.46 734.537 1805.97 735.163 1806.63C735.788 1807.28 736.266 1808.07 736.564 1808.92C736.862 1809.78 736.973 1810.69 736.89 1811.59C736.89 1815.14 736.89 1818.77 736.89 1822.4C736.89 2168.53 736.89 2514.57 736.89 2860.53C737.656 2865.47 737.289 2870.52 735.817 2875.3Z" fill="black"/>
<path d="M442.104 2536.05C431.456 2527.8 427.246 2516.08 421.054 2505.85C395.329 2463.51 371.88 2419.83 350.805 2375C318.674 2307.51 291.874 2237.61 270.65 2165.94C265.367 2147.63 259.754 2129.39 254.553 2111.16C251.429 2100.77 249.817 2089.99 249.766 2079.15C249.766 2034.27 249.766 1989.3 249.766 1944.34C249.766 1929.16 249.766 1929.08 265.367 1929.08H429.64C444.994 1929.08 445.076 1929.08 445.159 1944.42C445.159 2136.93 445.159 2329.63 445.159 2522.52C445.241 2526.89 446.562 2531.76 442.104 2536.05Z" fill="black"/>
<path d="M1812.17 3057.22C1812.17 3076.11 1812.17 3076.11 1793.43 3076.11H1728.3C1712.29 3076.11 1714.68 3076.11 1714.52 3061.59V388.51C1714.52 367.719 1714.52 367.719 1734.82 367.719C1757.03 367.719 1779.24 367.719 1801.44 367.719C1809.12 367.719 1813.33 369.534 1812.26 378.032C1812.05 381.631 1812.05 385.24 1812.26 388.84L1812.17 3057.22Z" fill="black"/>
<path d="M1999.72 132.008C2001.13 134.644 2003.4 136.714 2006.16 137.866C2163.83 233.156 2288.81 361.777 2389.44 514.984C2450.65 609.348 2501.62 709.965 2541.49 815.128C2546.86 828.989 2546.86 829.071 2562.13 829.071H3101.75C3125.52 829.071 3149.3 829.896 3173.07 829.071C3177.32 828.621 3181.59 829.519 3185.3 831.636C3189 833.754 3191.95 836.985 3193.71 840.869C3258.21 948.335 3310.8 1062.5 3350.55 1181.36C3383.29 1279.21 3407.05 1379.84 3421.54 1482C3425.75 1511.53 3428.64 1541.4 3432.11 1570.52C3427.9 1574.65 3423.86 1573.08 3419.56 1573.08C3395.29 1573.08 3371.02 1573.08 3346.75 1573.08C3334.04 1573.08 3333.96 1573.08 3332.8 1560.79C3328.68 1516.56 3322.07 1472.76 3314.07 1428.78C3287.47 1283.62 3240.71 1142.89 3175.14 1010.66C3163 985.909 3149.55 962.395 3137.25 938.057C3135.96 934.494 3133.53 931.458 3130.33 929.427C3127.14 927.396 3123.35 926.485 3119.58 926.837C2943.48 927.167 2767.21 927.167 2590.77 926.837C2587.8 926.837 2584.58 926.012 2581.77 928.569C2582.09 935.203 2583.72 941.708 2586.56 947.71C2613.54 1039.19 2634.88 1132.23 2650.45 1226.32C2666.45 1323.13 2677.47 1420.69 2683.47 1518.63C2686.2 1561.86 2688.18 1605.25 2688.34 1648.65C2688.34 1651.7 2688.34 1654.84 2688.34 1657.89C2689.75 1671.01 2686.69 1671.09 2702.63 1671.09H3344.61C3372.12 1671.09 3399.64 1671.09 3427.16 1671.09C3438.05 1671.09 3438.22 1671.09 3438.38 1681.9C3439.13 1744.93 3438.38 1807.88 3432.77 1870.75C3421.9 1999.31 3396.53 2126.23 3357.16 2249.1C3340.65 2301.16 3321.16 2352.23 3299.78 2402.48C3298.81 2406.36 3296.45 2409.76 3293.16 2412.03C3289.86 2414.31 3285.85 2415.31 3281.87 2414.85C3251.41 2414.27 3220.95 2414.85 3191.07 2414.85C3188.18 2409.57 3191.48 2406.19 3193.05 2402.64C3243.58 2293.6 3281.69 2179.22 3306.64 2061.66C3321.21 1994.05 3331.11 1925.52 3336.27 1856.56C3338.17 1830.82 3339.74 1805.08 3341.22 1779.25C3341.88 1768.28 3341.22 1768.11 3330.33 1768.03C3315.88 1768.03 3301.44 1768.03 3286.91 1768.03H2706.92C2689.83 1768.03 2689.83 1768.03 2689.17 1785.11C2687.68 1826.94 2687.35 1868.77 2684.8 1910.51C2681.08 1969.75 2676.54 2028.99 2669.77 2087.98C2661.93 2156.21 2651.69 2223.94 2638.65 2291.34C2624.95 2361.75 2607.89 2431.3 2587.47 2499.99C2585.79 2503.86 2585.27 2508.13 2585.98 2512.29H3244.97C3244.83 2518 3242.86 2523.52 3239.36 2528.04C3069.47 2842.82 2826.04 3083.12 2509.05 3248.95C2375.09 3318.58 2232.3 3369.73 2084.58 3401C2021.55 3414.59 1957.77 3424.39 1893.56 3430.37C1838.01 3435.49 1782.37 3438.62 1726.49 3438.62C1714.76 3438.62 1714.52 3438.62 1714.52 3427.07V3186.5C1714.52 3174.45 1714.52 3174.29 1726.07 3174.2C1751.42 3174.2 1776.68 3174.2 1802.02 3174.2C1810.27 3174.2 1812.5 3177.01 1812.34 3184.93C1811.92 3211.33 1812.34 3237.65 1812.34 3263.97C1811.78 3269.31 1812.2 3274.7 1813.57 3279.89C1828.88 3275.33 1843.84 3269.64 1858.32 3262.89C1956.98 3218.67 2047.09 3157.46 2124.54 3082.05C2241.18 2970.84 2328.84 2839.33 2396.2 2693.63C2408.01 2667.89 2418.74 2641.57 2429.88 2615.58C2429.88 2614.75 2429.88 2613.6 2429.88 2610.55H2413.87C2252.07 2610.55 2090.28 2610.55 1928.48 2610.55C1907.93 2610.55 1910.32 2613.27 1910.24 2592.56C1910.24 2569.38 1910.24 2546.11 1910.24 2522.85C1910.24 2515.26 1911.89 2510.97 1920.48 2512.04C1924.1 2512.29 1927.74 2512.29 1931.37 2512.04H2455.47C2467.36 2512.04 2467.44 2512.04 2471.24 2500.32C2498.5 2414.85 2520.09 2327.68 2535.88 2239.37C2549.33 2166.27 2559.16 2092.6 2566.01 2018.59C2571.54 1958.94 2575.58 1899.21 2576.9 1839.23C2577.32 1819.6 2578.39 1800.04 2578.89 1780.41C2578.89 1768.11 2578.89 1767.95 2566.01 1767.95H1928.48C1907.43 1767.95 1910.4 1770.34 1910.24 1750.13C1910.24 1727.36 1910.24 1704.67 1910.24 1681.9C1910.24 1674.23 1911.89 1670.1 1920.39 1671.09C1924.02 1671.34 1927.66 1671.34 1931.29 1671.09H2557.75C2560.81 1671.09 2563.94 1671.09 2567 1671.09C2578.64 1671.09 2578.89 1671.09 2578.55 1659.05C2576.57 1590.9 2573.85 1522.83 2567.91 1454.94C2562.46 1392.15 2555.19 1329.61 2545.54 1267.41C2528.77 1156.26 2502.95 1046.66 2468.35 939.707C2464.14 926.837 2464.06 926.837 2450.27 926.837H1929.06C1907.85 926.837 1910.32 929.559 1910.24 907.779C1910.16 885.998 1910.24 862.32 1910.24 839.632C1910.24 831.959 1911.97 827.669 1920.56 828.824C1923.64 829.03 1926.72 829.03 1929.8 828.824H2425.51C2428.07 824.781 2425.51 822.141 2424.35 819.501C2370.31 684.227 2294.74 558.576 2200.56 447.415C2117.5 348.794 2016.14 267.158 1902.07 207.003C1873.72 192.011 1844.18 179.4 1813.74 169.299C1812 175.295 1811.49 181.583 1812.25 187.78C1812.25 212.118 1812.25 236.374 1812.25 260.629C1812.25 267.807 1810.44 270.695 1802.68 270.612C1776.37 270.227 1750.01 270.227 1723.6 270.612C1715.34 270.612 1714.35 267.395 1714.35 260.464C1714.35 180.382 1714.35 100.3 1714.35 20.2172C1714.35 13.122 1715.84 10.2344 1723.68 10.2344C1764.95 10.2344 1806.23 12.3794 1847.5 15.1845C1881.02 17.4121 1914.37 20.9597 1947.63 25.1673C2242.5 63.4885 2522.24 178.097 2759.17 357.652C2894.21 459.669 3013.34 581.174 3112.65 718.188C3115.21 721.818 3119.17 724.788 3119.09 730.233C3115.45 733.204 3110.83 731.636 3107.28 731.636C3075.75 731.636 3044.21 731.636 3012.76 731.636C3008.97 731.892 3005.18 731.141 3001.77 729.461C2998.37 727.78 2995.47 725.229 2993.36 722.066C2747.24 410.421 2394.9 200.28 2003.6 131.761C2002.3 131.665 2001 131.748 1999.72 132.008ZM1999.72 3317.84C2218.06 3279.8 2426.27 3197.42 2611.49 3075.79C2796.72 2954.17 2955.04 2795.88 3076.65 2610.71H2564.6C2562.04 2610.71 2559.4 2610.71 2556.84 2610.71C2555.82 2610.55 2554.78 2610.59 2553.77 2610.85C2552.77 2611.1 2551.83 2611.55 2551 2612.17C2550.18 2612.8 2549.49 2613.58 2548.97 2614.48C2548.46 2615.38 2548.13 2616.37 2548.01 2617.4C2547.13 2620.34 2546.08 2623.23 2544.88 2626.06C2500.92 2744.03 2442.94 2856.3 2372.18 2960.44C2274.69 3102.1 2155.41 3221.23 2007.73 3310.75C2005.09 3312.31 2001.95 3313.22 2000.38 3317.84H1999.72Z" fill="black"/>
</mask>
<g mask="url(#mask3_2293_2)">
<path d="M1620.74 3218.51C1620.74 3242.27 1622.97 3241.11 1599.36 3240.12C1573.69 3238.97 1548.26 3235.59 1522.75 3231.87C1494.77 3228 1466.87 3223.62 1439.13 3218.42C1426.5 3215.95 1425.68 3215.12 1425.35 3202.5C1425.35 3199.37 1425.35 3196.31 1425.35 3193.18V1363.19C1425.35 1337.53 1422.54 1340.34 1448.79 1340.26H1602.33C1621.73 1340.26 1620.74 1339.18 1620.74 1358.9V3218.51Z" stroke="white" stroke-width="20.468"/>
</g>
<mask id="mask4_2293_2" style="mask-type:luminance" maskUnits="userSpaceOnUse" x="-1" y="-1" width="3451" height="3451">
<path d="M3449.23 -0.765625H-0.765625V3449.23H3449.23V-0.765625Z" fill="white"/>
<path d="M1614.8 13.7812V109.814C1186.86 145.62 823.566 315.41 532.911 631.23C263.802 923.783 120.662 1271.7 107.784 1668.45C93.751 2102.74 233.259 2485.22 524.821 2808.14C816.384 3131.05 1182.49 3302.49 1614.88 3339.13V3435.32C1193.38 3403.23 827.445 3245.57 526.637 2949.14C176.135 2603.62 6.57939 2180.96 10.2941 1688.91C26.1435 1205.94 208.411 796.4 561.143 466.72C856.915 190.666 1210.39 42.2446 1614.8 13.7812Z" fill="black"/>
<path d="M1326.12 3170C1326.12 3193.01 1326.12 3192.6 1304.74 3186.5C1250.76 3171 1197.66 3152.57 1145.67 3131.3C1130.98 3125.45 1130.73 3125.28 1130.73 3108.61V848.049C1130.73 829.238 1130.73 829.156 1148.97 829.156H1317.95C1323.9 829.156 1326.21 832.208 1326.21 837.406C1326.21 842.604 1326.21 846.729 1326.21 851.349L1326.12 3170Z" fill="black"/>
<path d="M1029.52 3075.61C1010.64 3067.77 992.44 3058.36 975.123 3047.48C938.802 3026.94 903.306 3004.83 869.048 2980.9C862.175 2975.5 855.01 2970.49 847.585 2965.88C843.503 2963.72 840.196 2960.35 838.125 2956.22C836.053 2952.1 835.32 2947.43 836.028 2942.87C836.028 2476.45 836.028 2010.09 836.028 1543.79C836.028 1541.73 836.028 1539.66 836.028 1537.6C836.524 1526.71 836.772 1526.05 847.585 1525.97C873.423 1525.97 899.261 1525.97 925.099 1525.97C956.055 1525.97 987.093 1525.97 1018.05 1525.97C1031.01 1525.97 1031.09 1525.97 1031.42 1538.84C1031.42 1542.47 1031.42 1546.02 1031.42 1549.65C1031.42 2051.15 1031.42 2552.66 1031.42 3054.16C1032.41 3061.36 1031.77 3068.7 1029.52 3075.61Z" fill="black"/>
<path d="M1620.74 3218.51C1620.74 3242.27 1622.97 3241.11 1599.36 3240.12C1573.69 3238.97 1548.26 3235.59 1522.75 3231.87C1494.77 3228 1466.87 3223.62 1439.13 3218.42C1426.5 3215.95 1425.68 3215.12 1425.35 3202.5C1425.35 3199.37 1425.35 3196.31 1425.35 3193.18V1363.19C1425.35 1337.53 1422.54 1340.34 1448.79 1340.26H1602.33C1621.73 1340.26 1620.74 1339.18 1620.74 1358.9V3218.51Z" fill="black"/>
<path d="M735.817 2875.3C734.051 2875.3 732.303 2874.95 730.674 2874.27C729.044 2873.59 727.566 2872.59 726.323 2871.34C683.893 2833.55 643.775 2793.37 604.564 2752.37C585 2731.91 567.499 2709.55 549.008 2688.1C546.491 2685.51 544.538 2682.43 543.273 2679.05C542.009 2675.67 541.46 2672.07 541.662 2668.46C541.662 2665.82 541.662 2663.27 541.662 2660.71V1825.21C541.662 1802.44 540.176 1804.66 562.877 1804.66H730.286C731.192 1804.62 732.096 1804.78 732.937 1805.12C733.778 1805.46 734.537 1805.97 735.163 1806.63C735.788 1807.28 736.266 1808.07 736.564 1808.92C736.862 1809.78 736.973 1810.69 736.89 1811.59C736.89 1815.14 736.89 1818.77 736.89 1822.4C736.89 2168.53 736.89 2514.57 736.89 2860.53C737.656 2865.47 737.289 2870.52 735.817 2875.3Z" fill="black"/>
<path d="M442.104 2536.05C431.456 2527.8 427.246 2516.08 421.054 2505.85C395.329 2463.51 371.88 2419.83 350.805 2375C318.674 2307.51 291.874 2237.61 270.65 2165.94C265.367 2147.63 259.754 2129.39 254.553 2111.16C251.429 2100.77 249.817 2089.99 249.766 2079.15C249.766 2034.27 249.766 1989.3 249.766 1944.34C249.766 1929.16 249.766 1929.08 265.367 1929.08H429.64C444.994 1929.08 445.076 1929.08 445.159 1944.42C445.159 2136.93 445.159 2329.63 445.159 2522.52C445.241 2526.89 446.562 2531.76 442.104 2536.05Z" fill="black"/>
<path d="M1812.17 3057.22C1812.17 3076.11 1812.17 3076.11 1793.43 3076.11H1728.3C1712.29 3076.11 1714.68 3076.11 1714.52 3061.59V388.51C1714.52 367.719 1714.52 367.719 1734.82 367.719C1757.03 367.719 1779.24 367.719 1801.44 367.719C1809.12 367.719 1813.33 369.534 1812.26 378.032C1812.05 381.631 1812.05 385.24 1812.26 388.84L1812.17 3057.22Z" fill="black"/>
<path d="M1999.72 132.008C2001.13 134.644 2003.4 136.714 2006.16 137.866C2163.83 233.156 2288.81 361.777 2389.44 514.984C2450.65 609.348 2501.62 709.965 2541.49 815.128C2546.86 828.989 2546.86 829.071 2562.13 829.071H3101.75C3125.52 829.071 3149.3 829.896 3173.07 829.071C3177.32 828.621 3181.59 829.519 3185.3 831.636C3189 833.754 3191.95 836.985 3193.71 840.869C3258.21 948.335 3310.8 1062.5 3350.55 1181.36C3383.29 1279.21 3407.05 1379.84 3421.54 1482C3425.75 1511.53 3428.64 1541.4 3432.11 1570.52C3427.9 1574.65 3423.86 1573.08 3419.56 1573.08C3395.29 1573.08 3371.02 1573.08 3346.75 1573.08C3334.04 1573.08 3333.96 1573.08 3332.8 1560.79C3328.68 1516.56 3322.07 1472.76 3314.07 1428.78C3287.47 1283.62 3240.71 1142.89 3175.14 1010.66C3163 985.909 3149.55 962.395 3137.25 938.057C3135.96 934.494 3133.53 931.458 3130.33 929.427C3127.14 927.396 3123.35 926.485 3119.58 926.837C2943.48 927.167 2767.21 927.167 2590.77 926.837C2587.8 926.837 2584.58 926.012 2581.77 928.569C2582.09 935.203 2583.72 941.708 2586.56 947.71C2613.54 1039.19 2634.88 1132.23 2650.45 1226.32C2666.45 1323.13 2677.47 1420.69 2683.47 1518.63C2686.2 1561.86 2688.18 1605.25 2688.34 1648.65C2688.34 1651.7 2688.34 1654.84 2688.34 1657.89C2689.75 1671.01 2686.69 1671.09 2702.63 1671.09H3344.61C3372.12 1671.09 3399.64 1671.09 3427.16 1671.09C3438.05 1671.09 3438.22 1671.09 3438.38 1681.9C3439.13 1744.93 3438.38 1807.88 3432.77 1870.75C3421.9 1999.31 3396.53 2126.23 3357.16 2249.1C3340.65 2301.16 3321.16 2352.23 3299.78 2402.48C3298.81 2406.36 3296.45 2409.76 3293.16 2412.03C3289.86 2414.31 3285.85 2415.31 3281.87 2414.85C3251.41 2414.27 3220.95 2414.85 3191.07 2414.85C3188.18 2409.57 3191.48 2406.19 3193.05 2402.64C3243.58 2293.6 3281.69 2179.22 3306.64 2061.66C3321.21 1994.05 3331.11 1925.52 3336.27 1856.56C3338.17 1830.82 3339.74 1805.08 3341.22 1779.25C3341.88 1768.28 3341.22 1768.11 3330.33 1768.03C3315.88 1768.03 3301.44 1768.03 3286.91 1768.03H2706.92C2689.83 1768.03 2689.83 1768.03 2689.17 1785.11C2687.68 1826.94 2687.35 1868.77 2684.8 1910.51C2681.08 1969.75 2676.54 2028.99 2669.77 2087.98C2661.93 2156.21 2651.69 2223.94 2638.65 2291.34C2624.95 2361.75 2607.89 2431.3 2587.47 2499.99C2585.79 2503.86 2585.27 2508.13 2585.98 2512.29H3244.97C3244.83 2518 3242.86 2523.52 3239.36 2528.04C3069.47 2842.82 2826.04 3083.12 2509.05 3248.95C2375.09 3318.58 2232.3 3369.73 2084.58 3401C2021.55 3414.59 1957.77 3424.39 1893.56 3430.37C1838.01 3435.49 1782.37 3438.62 1726.49 3438.62C1714.76 3438.62 1714.52 3438.62 1714.52 3427.07V3186.5C1714.52 3174.45 1714.52 3174.29 1726.07 3174.2C1751.42 3174.2 1776.68 3174.2 1802.02 3174.2C1810.27 3174.2 1812.5 3177.01 1812.34 3184.93C1811.92 3211.33 1812.34 3237.65 1812.34 3263.97C1811.78 3269.31 1812.2 3274.7 1813.57 3279.89C1828.88 3275.33 1843.84 3269.64 1858.32 3262.89C1956.98 3218.67 2047.09 3157.46 2124.54 3082.05C2241.18 2970.84 2328.84 2839.33 2396.2 2693.63C2408.01 2667.89 2418.74 2641.57 2429.88 2615.58C2429.88 2614.75 2429.88 2613.6 2429.88 2610.55H2413.87C2252.07 2610.55 2090.28 2610.55 1928.48 2610.55C1907.93 2610.55 1910.32 2613.27 1910.24 2592.56C1910.24 2569.38 1910.24 2546.11 1910.24 2522.85C1910.24 2515.26 1911.89 2510.97 1920.48 2512.04C1924.1 2512.29 1927.74 2512.29 1931.37 2512.04H2455.47C2467.36 2512.04 2467.44 2512.04 2471.24 2500.32C2498.5 2414.85 2520.09 2327.68 2535.88 2239.37C2549.33 2166.27 2559.16 2092.6 2566.01 2018.59C2571.54 1958.94 2575.58 1899.21 2576.9 1839.23C2577.32 1819.6 2578.39 1800.04 2578.89 1780.41C2578.89 1768.11 2578.89 1767.95 2566.01 1767.95H1928.48C1907.43 1767.95 1910.4 1770.34 1910.24 1750.13C1910.24 1727.36 1910.24 1704.67 1910.24 1681.9C1910.24 1674.23 1911.89 1670.1 1920.39 1671.09C1924.02 1671.34 1927.66 1671.34 1931.29 1671.09H2557.75C2560.81 1671.09 2563.94 1671.09 2567 1671.09C2578.64 1671.09 2578.89 1671.09 2578.55 1659.05C2576.57 1590.9 2573.85 1522.83 2567.91 1454.94C2562.46 1392.15 2555.19 1329.61 2545.54 1267.41C2528.77 1156.26 2502.95 1046.66 2468.35 939.707C2464.14 926.837 2464.06 926.837 2450.27 926.837H1929.06C1907.85 926.837 1910.32 929.559 1910.24 907.779C1910.16 885.998 1910.24 862.32 1910.24 839.632C1910.24 831.959 1911.97 827.669 1920.56 828.824C1923.64 829.03 1926.72 829.03 1929.8 828.824H2425.51C2428.07 824.781 2425.51 822.141 2424.35 819.501C2370.31 684.227 2294.74 558.576 2200.56 447.415C2117.5 348.794 2016.14 267.158 1902.07 207.003C1873.72 192.011 1844.18 179.4 1813.74 169.299C1812 175.295 1811.49 181.583 1812.25 187.78C1812.25 212.118 1812.25 236.374 1812.25 260.629C1812.25 267.807 1810.44 270.695 1802.68 270.612C1776.37 270.227 1750.01 270.227 1723.6 270.612C1715.34 270.612 1714.35 267.395 1714.35 260.464C1714.35 180.382 1714.35 100.3 1714.35 20.2172C1714.35 13.122 1715.84 10.2344 1723.68 10.2344C1764.95 10.2344 1806.23 12.3794 1847.5 15.1845C1881.02 17.4121 1914.37 20.9597 1947.63 25.1673C2242.5 63.4885 2522.24 178.097 2759.17 357.652C2894.21 459.669 3013.34 581.174 3112.65 718.188C3115.21 721.818 3119.17 724.788 3119.09 730.233C3115.45 733.204 3110.83 731.636 3107.28 731.636C3075.75 731.636 3044.21 731.636 3012.76 731.636C3008.97 731.892 3005.18 731.141 3001.77 729.461C2998.37 727.78 2995.47 725.229 2993.36 722.066C2747.24 410.421 2394.9 200.28 2003.6 131.761C2002.3 131.665 2001 131.748 1999.72 132.008ZM1999.72 3317.84C2218.06 3279.8 2426.27 3197.42 2611.49 3075.79C2796.72 2954.17 2955.04 2795.88 3076.65 2610.71H2564.6C2562.04 2610.71 2559.4 2610.71 2556.84 2610.71C2555.82 2610.55 2554.78 2610.59 2553.77 2610.85C2552.77 2611.1 2551.83 2611.55 2551 2612.17C2550.18 2612.8 2549.49 2613.58 2548.97 2614.48C2548.46 2615.38 2548.13 2616.37 2548.01 2617.4C2547.13 2620.34 2546.08 2623.23 2544.88 2626.06C2500.92 2744.03 2442.94 2856.3 2372.18 2960.44C2274.69 3102.1 2155.41 3221.23 2007.73 3310.75C2005.09 3312.31 2001.95 3313.22 2000.38 3317.84H1999.72Z" fill="black"/>
</mask>
<g mask="url(#mask4_2293_2)">
<path d="M735.817 2875.3C734.051 2875.3 732.303 2874.95 730.674 2874.27C729.044 2873.59 727.566 2872.59 726.323 2871.34C683.893 2833.55 643.775 2793.37 604.564 2752.37C585 2731.91 567.499 2709.55 549.008 2688.1C546.491 2685.51 544.538 2682.43 543.273 2679.05C542.009 2675.67 541.46 2672.07 541.662 2668.46C541.662 2665.82 541.662 2663.27 541.662 2660.71V1825.21C541.662 1802.44 540.176 1804.66 562.877 1804.66H730.286C731.192 1804.62 732.096 1804.78 732.937 1805.12C733.778 1805.46 734.537 1805.97 735.163 1806.63C735.788 1807.28 736.266 1808.07 736.564 1808.92C736.862 1809.78 736.973 1810.69 736.89 1811.59C736.89 1815.14 736.89 1818.77 736.89 1822.4C736.89 2168.53 736.89 2514.57 736.89 2860.53C737.656 2865.47 737.289 2870.52 735.817 2875.3Z" stroke="white" stroke-width="20.468"/>
</g>
<mask id="mask5_2293_2" style="mask-type:luminance" maskUnits="userSpaceOnUse" x="-1" y="-1" width="3451" height="3451">
<path d="M3449.23 -0.765625H-0.765625V3449.23H3449.23V-0.765625Z" fill="white"/>
<path d="M1614.8 13.7812V109.814C1186.86 145.62 823.566 315.41 532.911 631.23C263.802 923.783 120.662 1271.7 107.784 1668.45C93.751 2102.74 233.259 2485.22 524.821 2808.14C816.384 3131.05 1182.49 3302.49 1614.88 3339.13V3435.32C1193.38 3403.23 827.445 3245.57 526.637 2949.14C176.135 2603.62 6.57939 2180.96 10.2941 1688.91C26.1435 1205.94 208.411 796.4 561.143 466.72C856.915 190.666 1210.39 42.2446 1614.8 13.7812Z" fill="black"/>
<path d="M1326.12 3170C1326.12 3193.01 1326.12 3192.6 1304.74 3186.5C1250.76 3171 1197.66 3152.57 1145.67 3131.3C1130.98 3125.45 1130.73 3125.28 1130.73 3108.61V848.049C1130.73 829.238 1130.73 829.156 1148.97 829.156H1317.95C1323.9 829.156 1326.21 832.208 1326.21 837.406C1326.21 842.604 1326.21 846.729 1326.21 851.349L1326.12 3170Z" fill="black"/>
<path d="M1029.52 3075.61C1010.64 3067.77 992.44 3058.36 975.123 3047.48C938.802 3026.94 903.306 3004.83 869.048 2980.9C862.175 2975.5 855.01 2970.49 847.585 2965.88C843.503 2963.72 840.196 2960.35 838.125 2956.22C836.053 2952.1 835.32 2947.43 836.028 2942.87C836.028 2476.45 836.028 2010.09 836.028 1543.79C836.028 1541.73 836.028 1539.66 836.028 1537.6C836.524 1526.71 836.772 1526.05 847.585 1525.97C873.423 1525.97 899.261 1525.97 925.099 1525.97C956.055 1525.97 987.093 1525.97 1018.05 1525.97C1031.01 1525.97 1031.09 1525.97 1031.42 1538.84C1031.42 1542.47 1031.42 1546.02 1031.42 1549.65C1031.42 2051.15 1031.42 2552.66 1031.42 3054.16C1032.41 3061.36 1031.77 3068.7 1029.52 3075.61Z" fill="black"/>
<path d="M1620.74 3218.51C1620.74 3242.27 1622.97 3241.11 1599.36 3240.12C1573.69 3238.97 1548.26 3235.59 1522.75 3231.87C1494.77 3228 1466.87 3223.62 1439.13 3218.42C1426.5 3215.95 1425.68 3215.12 1425.35 3202.5C1425.35 3199.37 1425.35 3196.31 1425.35 3193.18V1363.19C1425.35 1337.53 1422.54 1340.34 1448.79 1340.26H1602.33C1621.73 1340.26 1620.74 1339.18 1620.74 1358.9V3218.51Z" fill="black"/>
<path d="M735.817 2875.3C734.051 2875.3 732.303 2874.95 730.674 2874.27C729.044 2873.59 727.566 2872.59 726.323 2871.34C683.893 2833.55 643.775 2793.37 604.564 2752.37C585 2731.91 567.499 2709.55 549.008 2688.1C546.491 2685.51 544.538 2682.43 543.273 2679.05C542.009 2675.67 541.46 2672.07 541.662 2668.46C541.662 2665.82 541.662 2663.27 541.662 2660.71V1825.21C541.662 1802.44 540.176 1804.66 562.877 1804.66H730.286C731.192 1804.62 732.096 1804.78 732.937 1805.12C733.778 1805.46 734.537 1805.97 735.163 1806.63C735.788 1807.28 736.266 1808.07 736.564 1808.92C736.862 1809.78 736.973 1810.69 736.89 1811.59C736.89 1815.14 736.89 1818.77 736.89 1822.4C736.89 2168.53 736.89 2514.57 736.89 2860.53C737.656 2865.47 737.289 2870.52 735.817 2875.3Z" fill="black"/>
<path d="M442.104 2536.05C431.456 2527.8 427.246 2516.08 421.054 2505.85C395.329 2463.51 371.88 2419.83 350.805 2375C318.674 2307.51 291.874 2237.61 270.65 2165.94C265.367 2147.63 259.754 2129.39 254.553 2111.16C251.429 2100.77 249.817 2089.99 249.766 2079.15C249.766 2034.27 249.766 1989.3 249.766 1944.34C249.766 1929.16 249.766 1929.08 265.367 1929.08H429.64C444.994 1929.08 445.076 1929.08 445.159 1944.42C445.159 2136.93 445.159 2329.63 445.159 2522.52C445.241 2526.89 446.562 2531.76 442.104 2536.05Z" fill="black"/>
<path d="M1812.17 3057.22C1812.17 3076.11 1812.17 3076.11 1793.43 3076.11H1728.3C1712.29 3076.11 1714.68 3076.11 1714.52 3061.59V388.51C1714.52 367.719 1714.52 367.719 1734.82 367.719C1757.03 367.719 1779.24 367.719 1801.44 367.719C1809.12 367.719 1813.33 369.534 1812.26 378.032C1812.05 381.631 1812.05 385.24 1812.26 388.84L1812.17 3057.22Z" fill="black"/>
<path d="M1999.72 132.008C2001.13 134.644 2003.4 136.714 2006.16 137.866C2163.83 233.156 2288.81 361.777 2389.44 514.984C2450.65 609.348 2501.62 709.965 2541.49 815.128C2546.86 828.989 2546.86 829.071 2562.13 829.071H3101.75C3125.52 829.071 3149.3 829.896 3173.07 829.071C3177.32 828.621 3181.59 829.519 3185.3 831.636C3189 833.754 3191.95 836.985 3193.71 840.869C3258.21 948.335 3310.8 1062.5 3350.55 1181.36C3383.29 1279.21 3407.05 1379.84 3421.54 1482C3425.75 1511.53 3428.64 1541.4 3432.11 1570.52C3427.9 1574.65 3423.86 1573.08 3419.56 1573.08C3395.29 1573.08 3371.02 1573.08 3346.75 1573.08C3334.04 1573.08 3333.96 1573.08 3332.8 1560.79C3328.68 1516.56 3322.07 1472.76 3314.07 1428.78C3287.47 1283.62 3240.71 1142.89 3175.14 1010.66C3163 985.909 3149.55 962.395 3137.25 938.057C3135.96 934.494 3133.53 931.458 3130.33 929.427C3127.14 927.396 3123.35 926.485 3119.58 926.837C2943.48 927.167 2767.21 927.167 2590.77 926.837C2587.8 926.837 2584.58 926.012 2581.77 928.569C2582.09 935.203 2583.72 941.708 2586.56 947.71C2613.54 1039.19 2634.88 1132.23 2650.45 1226.32C2666.45 1323.13 2677.47 1420.69 2683.47 1518.63C2686.2 1561.86 2688.18 1605.25 2688.34 1648.65C2688.34 1651.7 2688.34 1654.84 2688.34 1657.89C2689.75 1671.01 2686.69 1671.09 2702.63 1671.09H3344.61C3372.12 1671.09 3399.64 1671.09 3427.16 1671.09C3438.05 1671.09 3438.22 1671.09 3438.38 1681.9C3439.13 1744.93 3438.38 1807.88 3432.77 1870.75C3421.9 1999.31 3396.53 2126.23 3357.16 2249.1C3340.65 2301.16 3321.16 2352.23 3299.78 2402.48C3298.81 2406.36 3296.45 2409.76 3293.16 2412.03C3289.86 2414.31 3285.85 2415.31 3281.87 2414.85C3251.41 2414.27 3220.95 2414.85 3191.07 2414.85C3188.18 2409.57 3191.48 2406.19 3193.05 2402.64C3243.58 2293.6 3281.69 2179.22 3306.64 2061.66C3321.21 1994.05 3331.11 1925.52 3336.27 1856.56C3338.17 1830.82 3339.74 1805.08 3341.22 1779.25C3341.88 1768.28 3341.22 1768.11 3330.33 1768.03C3315.88 1768.03 3301.44 1768.03 3286.91 1768.03H2706.92C2689.83 1768.03 2689.83 1768.03 2689.17 1785.11C2687.68 1826.94 2687.35 1868.77 2684.8 1910.51C2681.08 1969.75 2676.54 2028.99 2669.77 2087.98C2661.93 2156.21 2651.69 2223.94 2638.65 2291.34C2624.95 2361.75 2607.89 2431.3 2587.47 2499.99C2585.79 2503.86 2585.27 2508.13 2585.98 2512.29H3244.97C3244.83 2518 3242.86 2523.52 3239.36 2528.04C3069.47 2842.82 2826.04 3083.12 2509.05 3248.95C2375.09 3318.58 2232.3 3369.73 2084.58 3401C2021.55 3414.59 1957.77 3424.39 1893.56 3430.37C1838.01 3435.49 1782.37 3438.62 1726.49 3438.62C1714.76 3438.62 1714.52 3438.62 1714.52 3427.07V3186.5C1714.52 3174.45 1714.52 3174.29 1726.07 3174.2C1751.42 3174.2 1776.68 3174.2 1802.02 3174.2C1810.27 3174.2 1812.5 3177.01 1812.34 3184.93C1811.92 3211.33 1812.34 3237.65 1812.34 3263.97C1811.78 3269.31 1812.2 3274.7 1813.57 3279.89C1828.88 3275.33 1843.84 3269.64 1858.32 3262.89C1956.98 3218.67 2047.09 3157.46 2124.54 3082.05C2241.18 2970.84 2328.84 2839.33 2396.2 2693.63C2408.01 2667.89 2418.74 2641.57 2429.88 2615.58C2429.88 2614.75 2429.88 2613.6 2429.88 2610.55H2413.87C2252.07 2610.55 2090.28 2610.55 1928.48 2610.55C1907.93 2610.55 1910.32 2613.27 1910.24 2592.56C1910.24 2569.38 1910.24 2546.11 1910.24 2522.85C1910.24 2515.26 1911.89 2510.97 1920.48 2512.04C1924.1 2512.29 1927.74 2512.29 1931.37 2512.04H2455.47C2467.36 2512.04 2467.44 2512.04 2471.24 2500.32C2498.5 2414.85 2520.09 2327.68 2535.88 2239.37C2549.33 2166.27 2559.16 2092.6 2566.01 2018.59C2571.54 1958.94 2575.58 1899.21 2576.9 1839.23C2577.32 1819.6 2578.39 1800.04 2578.89 1780.41C2578.89 1768.11 2578.89 1767.95 2566.01 1767.95H1928.48C1907.43 1767.95 1910.4 1770.34 1910.24 1750.13C1910.24 1727.36 1910.24 1704.67 1910.24 1681.9C1910.24 1674.23 1911.89 1670.1 1920.39 1671.09C1924.02 1671.34 1927.66 1671.34 1931.29 1671.09H2557.75C2560.81 1671.09 2563.94 1671.09 2567 1671.09C2578.64 1671.09 2578.89 1671.09 2578.55 1659.05C2576.57 1590.9 2573.85 1522.83 2567.91 1454.94C2562.46 1392.15 2555.19 1329.61 2545.54 1267.41C2528.77 1156.26 2502.95 1046.66 2468.35 939.707C2464.14 926.837 2464.06 926.837 2450.27 926.837H1929.06C1907.85 926.837 1910.32 929.559 1910.24 907.779C1910.16 885.998 1910.24 862.32 1910.24 839.632C1910.24 831.959 1911.97 827.669 1920.56 828.824C1923.64 829.03 1926.72 829.03 1929.8 828.824H2425.51C2428.07 824.781 2425.51 822.141 2424.35 819.501C2370.31 684.227 2294.74 558.576 2200.56 447.415C2117.5 348.794 2016.14 267.158 1902.07 207.003C1873.72 192.011 1844.18 179.4 1813.74 169.299C1812 175.295 1811.49 181.583 1812.25 187.78C1812.25 212.118 1812.25 236.374 1812.25 260.629C1812.25 267.807 1810.44 270.695 1802.68 270.612C1776.37 270.227 1750.01 270.227 1723.6 270.612C1715.34 270.612 1714.35 267.395 1714.35 260.464C1714.35 180.382 1714.35 100.3 1714.35 20.2172C1714.35 13.122 1715.84 10.2344 1723.68 10.2344C1764.95 10.2344 1806.23 12.3794 1847.5 15.1845C1881.02 17.4121 1914.37 20.9597 1947.63 25.1673C2242.5 63.4885 2522.24 178.097 2759.17 357.652C2894.21 459.669 3013.34 581.174 3112.65 718.188C3115.21 721.818 3119.17 724.788 3119.09 730.233C3115.45 733.204 3110.83 731.636 3107.28 731.636C3075.75 731.636 3044.21 731.636 3012.76 731.636C3008.97 731.892 3005.18 731.141 3001.77 729.461C2998.37 727.78 2995.47 725.229 2993.36 722.066C2747.24 410.421 2394.9 200.28 2003.6 131.761C2002.3 131.665 2001 131.748 1999.72 132.008ZM1999.72 3317.84C2218.06 3279.8 2426.27 3197.42 2611.49 3075.79C2796.72 2954.17 2955.04 2795.88 3076.65 2610.71H2564.6C2562.04 2610.71 2559.4 2610.71 2556.84 2610.71C2555.82 2610.55 2554.78 2610.59 2553.77 2610.85C2552.77 2611.1 2551.83 2611.55 2551 2612.17C2550.18 2612.8 2549.49 2613.58 2548.97 2614.48C2548.46 2615.38 2548.13 2616.37 2548.01 2617.4C2547.13 2620.34 2546.08 2623.23 2544.88 2626.06C2500.92 2744.03 2442.94 2856.3 2372.18 2960.44C2274.69 3102.1 2155.41 3221.23 2007.73 3310.75C2005.09 3312.31 2001.95 3313.22 2000.38 3317.84H1999.72Z" fill="black"/>
</mask>
<g mask="url(#mask5_2293_2)">
<path d="M442.104 2536.05C431.456 2527.8 427.246 2516.08 421.054 2505.85C395.329 2463.51 371.88 2419.83 350.805 2375C318.674 2307.51 291.874 2237.61 270.65 2165.94C265.367 2147.63 259.754 2129.39 254.553 2111.16C251.429 2100.77 249.817 2089.99 249.766 2079.15C249.766 2034.27 249.766 1989.3 249.766 1944.34C249.766 1929.16 249.766 1929.08 265.367 1929.08H429.64C444.994 1929.08 445.076 1929.08 445.159 1944.42C445.159 2136.93 445.159 2329.63 445.159 2522.52C445.241 2526.89 446.562 2531.76 442.104 2536.05Z" stroke="white" stroke-width="20.468"/>
</g>
<mask id="mask6_2293_2" style="mask-type:luminance" maskUnits="userSpaceOnUse" x="-1" y="-1" width="3451" height="3451">
<path d="M3449.23 -0.765625H-0.765625V3449.23H3449.23V-0.765625Z" fill="white"/>
<path d="M1614.8 13.7812V109.814C1186.86 145.62 823.566 315.41 532.911 631.23C263.802 923.783 120.662 1271.7 107.784 1668.45C93.751 2102.74 233.259 2485.22 524.821 2808.14C816.384 3131.05 1182.49 3302.49 1614.88 3339.13V3435.32C1193.38 3403.23 827.445 3245.57 526.637 2949.14C176.135 2603.62 6.57939 2180.96 10.2941 1688.91C26.1435 1205.94 208.411 796.4 561.143 466.72C856.915 190.666 1210.39 42.2446 1614.8 13.7812Z" fill="black"/>
<path d="M1326.12 3170C1326.12 3193.01 1326.12 3192.6 1304.74 3186.5C1250.76 3171 1197.66 3152.57 1145.67 3131.3C1130.98 3125.45 1130.73 3125.28 1130.73 3108.61V848.049C1130.73 829.238 1130.73 829.156 1148.97 829.156H1317.95C1323.9 829.156 1326.21 832.208 1326.21 837.406C1326.21 842.604 1326.21 846.729 1326.21 851.349L1326.12 3170Z" fill="black"/>
<path d="M1029.52 3075.61C1010.64 3067.77 992.44 3058.36 975.123 3047.48C938.802 3026.94 903.306 3004.83 869.048 2980.9C862.175 2975.5 855.01 2970.49 847.585 2965.88C843.503 2963.72 840.196 2960.35 838.125 2956.22C836.053 2952.1 835.32 2947.43 836.028 2942.87C836.028 2476.45 836.028 2010.09 836.028 1543.79C836.028 1541.73 836.028 1539.66 836.028 1537.6C836.524 1526.71 836.772 1526.05 847.585 1525.97C873.423 1525.97 899.261 1525.97 925.099 1525.97C956.055 1525.97 987.093 1525.97 1018.05 1525.97C1031.01 1525.97 1031.09 1525.97 1031.42 1538.84C1031.42 1542.47 1031.42 1546.02 1031.42 1549.65C1031.42 2051.15 1031.42 2552.66 1031.42 3054.16C1032.41 3061.36 1031.77 3068.7 1029.52 3075.61Z" fill="black"/>
<path d="M1620.74 3218.51C1620.74 3242.27 1622.97 3241.11 1599.36 3240.12C1573.69 3238.97 1548.26 3235.59 1522.75 3231.87C1494.77 3228 1466.87 3223.62 1439.13 3218.42C1426.5 3215.95 1425.68 3215.12 1425.35 3202.5C1425.35 3199.37 1425.35 3196.31 1425.35 3193.18V1363.19C1425.35 1337.53 1422.54 1340.34 1448.79 1340.26H1602.33C1621.73 1340.26 1620.74 1339.18 1620.74 1358.9V3218.51Z" fill="black"/>
<path d="M735.817 2875.3C734.051 2875.3 732.303 2874.95 730.674 2874.27C729.044 2873.59 727.566 2872.59 726.323 2871.34C683.893 2833.55 643.775 2793.37 604.564 2752.37C585 2731.91 567.499 2709.55 549.008 2688.1C546.491 2685.51 544.538 2682.43 543.273 2679.05C542.009 2675.67 541.46 2672.07 541.662 2668.46C541.662 2665.82 541.662 2663.27 541.662 2660.71V1825.21C541.662 1802.44 540.176 1804.66 562.877 1804.66H730.286C731.192 1804.62 732.096 1804.78 732.937 1805.12C733.778 1805.46 734.537 1805.97 735.163 1806.63C735.788 1807.28 736.266 1808.07 736.564 1808.92C736.862 1809.78 736.973 1810.69 736.89 1811.59C736.89 1815.14 736.89 1818.77 736.89 1822.4C736.89 2168.53 736.89 2514.57 736.89 2860.53C737.656 2865.47 737.289 2870.52 735.817 2875.3Z" fill="black"/>
<path d="M442.104 2536.05C431.456 2527.8 427.246 2516.08 421.054 2505.85C395.329 2463.51 371.88 2419.83 350.805 2375C318.674 2307.51 291.874 2237.61 270.65 2165.94C265.367 2147.63 259.754 2129.39 254.553 2111.16C251.429 2100.77 249.817 2089.99 249.766 2079.15C249.766 2034.27 249.766 1989.3 249.766 1944.34C249.766 1929.16 249.766 1929.08 265.367 1929.08H429.64C444.994 1929.08 445.076 1929.08 445.159 1944.42C445.159 2136.93 445.159 2329.63 445.159 2522.52C445.241 2526.89 446.562 2531.76 442.104 2536.05Z" fill="black"/>
<path d="M1812.17 3057.22C1812.17 3076.11 1812.17 3076.11 1793.43 3076.11H1728.3C1712.29 3076.11 1714.68 3076.11 1714.52 3061.59V388.51C1714.52 367.719 1714.52 367.719 1734.82 367.719C1757.03 367.719 1779.24 367.719 1801.44 367.719C1809.12 367.719 1813.33 369.534 1812.26 378.032C1812.05 381.631 1812.05 385.24 1812.26 388.84L1812.17 3057.22Z" fill="black"/>
<path d="M1999.72 132.008C2001.13 134.644 2003.4 136.714 2006.16 137.866C2163.83 233.156 2288.81 361.777 2389.44 514.984C2450.65 609.348 2501.62 709.965 2541.49 815.128C2546.86 828.989 2546.86 829.071 2562.13 829.071H3101.75C3125.52 829.071 3149.3 829.896 3173.07 829.071C3177.32 828.621 3181.59 829.519 3185.3 831.636C3189 833.754 3191.95 836.985 3193.71 840.869C3258.21 948.335 3310.8 1062.5 3350.55 1181.36C3383.29 1279.21 3407.05 1379.84 3421.54 1482C3425.75 1511.53 3428.64 1541.4 3432.11 1570.52C3427.9 1574.65 3423.86 1573.08 3419.56 1573.08C3395.29 1573.08 3371.02 1573.08 3346.75 1573.08C3334.04 1573.08 3333.96 1573.08 3332.8 1560.79C3328.68 1516.56 3322.07 1472.76 3314.07 1428.78C3287.47 1283.62 3240.71 1142.89 3175.14 1010.66C3163 985.909 3149.55 962.395 3137.25 938.057C3135.96 934.494 3133.53 931.458 3130.33 929.427C3127.14 927.396 3123.35 926.485 3119.58 926.837C2943.48 927.167 2767.21 927.167 2590.77 926.837C2587.8 926.837 2584.58 926.012 2581.77 928.569C2582.09 935.203 2583.72 941.708 2586.56 947.71C2613.54 1039.19 2634.88 1132.23 2650.45 1226.32C2666.45 1323.13 2677.47 1420.69 2683.47 1518.63C2686.2 1561.86 2688.18 1605.25 2688.34 1648.65C2688.34 1651.7 2688.34 1654.84 2688.34 1657.89C2689.75 1671.01 2686.69 1671.09 2702.63 1671.09H3344.61C3372.12 1671.09 3399.64 1671.09 3427.16 1671.09C3438.05 1671.09 3438.22 1671.09 3438.38 1681.9C3439.13 1744.93 3438.38 1807.88 3432.77 1870.75C3421.9 1999.31 3396.53 2126.23 3357.16 2249.1C3340.65 2301.16 3321.16 2352.23 3299.78 2402.48C3298.81 2406.36 3296.45 2409.76 3293.16 2412.03C3289.86 2414.31 3285.85 2415.31 3281.87 2414.85C3251.41 2414.27 3220.95 2414.85 3191.07 2414.85C3188.18 2409.57 3191.48 2406.19 3193.05 2402.64C3243.58 2293.6 3281.69 2179.22 3306.64 2061.66C3321.21 1994.05 3331.11 1925.52 3336.27 1856.56C3338.17 1830.82 3339.74 1805.08 3341.22 1779.25C3341.88 1768.28 3341.22 1768.11 3330.33 1768.03C3315.88 1768.03 3301.44 1768.03 3286.91 1768.03H2706.92C2689.83 1768.03 2689.83 1768.03 2689.17 1785.11C2687.68 1826.94 2687.35 1868.77 2684.8 1910.51C2681.08 1969.75 2676.54 2028.99 2669.77 2087.98C2661.93 2156.21 2651.69 2223.94 2638.65 2291.34C2624.95 2361.75 2607.89 2431.3 2587.47 2499.99C2585.79 2503.86 2585.27 2508.13 2585.98 2512.29H3244.97C3244.83 2518 3242.86 2523.52 3239.36 2528.04C3069.47 2842.82 2826.04 3083.12 2509.05 3248.95C2375.09 3318.58 2232.3 3369.73 2084.58 3401C2021.55 3414.59 1957.77 3424.39 1893.56 3430.37C1838.01 3435.49 1782.37 3438.62 1726.49 3438.62C1714.76 3438.62 1714.52 3438.62 1714.52 3427.07V3186.5C1714.52 3174.45 1714.52 3174.29 1726.07 3174.2C1751.42 3174.2 1776.68 3174.2 1802.02 3174.2C1810.27 3174.2 1812.5 3177.01 1812.34 3184.93C1811.92 3211.33 1812.34 3237.65 1812.34 3263.97C1811.78 3269.31 1812.2 3274.7 1813.57 3279.89C1828.88 3275.33 1843.84 3269.64 1858.32 3262.89C1956.98 3218.67 2047.09 3157.46 2124.54 3082.05C2241.18 2970.84 2328.84 2839.33 2396.2 2693.63C2408.01 2667.89 2418.74 2641.57 2429.88 2615.58C2429.88 2614.75 2429.88 2613.6 2429.88 2610.55H2413.87C2252.07 2610.55 2090.28 2610.55 1928.48 2610.55C1907.93 2610.55 1910.32 2613.27 1910.24 2592.56C1910.24 2569.38 1910.24 2546.11 1910.24 2522.85C1910.24 2515.26 1911.89 2510.97 1920.48 2512.04C1924.1 2512.29 1927.74 2512.29 1931.37 2512.04H2455.47C2467.36 2512.04 2467.44 2512.04 2471.24 2500.32C2498.5 2414.85 2520.09 2327.68 2535.88 2239.37C2549.33 2166.27 2559.16 2092.6 2566.01 2018.59C2571.54 1958.94 2575.58 1899.21 2576.9 1839.23C2577.32 1819.6 2578.39 1800.04 2578.89 1780.41C2578.89 1768.11 2578.89 1767.95 2566.01 1767.95H1928.48C1907.43 1767.95 1910.4 1770.34 1910.24 1750.13C1910.24 1727.36 1910.24 1704.67 1910.24 1681.9C1910.24 1674.23 1911.89 1670.1 1920.39 1671.09C1924.02 1671.34 1927.66 1671.34 1931.29 1671.09H2557.75C2560.81 1671.09 2563.94 1671.09 2567 1671.09C2578.64 1671.09 2578.89 1671.09 2578.55 1659.05C2576.57 1590.9 2573.85 1522.83 2567.91 1454.94C2562.46 1392.15 2555.19 1329.61 2545.54 1267.41C2528.77 1156.26 2502.95 1046.66 2468.35 939.707C2464.14 926.837 2464.06 926.837 2450.27 926.837H1929.06C1907.85 926.837 1910.32 929.559 1910.24 907.779C1910.16 885.998 1910.24 862.32 1910.24 839.632C1910.24 831.959 1911.97 827.669 1920.56 828.824C1923.64 829.03 1926.72 829.03 1929.8 828.824H2425.51C2428.07 824.781 2425.51 822.141 2424.35 819.501C2370.31 684.227 2294.74 558.576 2200.56 447.415C2117.5 348.794 2016.14 267.158 1902.07 207.003C1873.72 192.011 1844.18 179.4 1813.74 169.299C1812 175.295 1811.49 181.583 1812.25 187.78C1812.25 212.118 1812.25 236.374 1812.25 260.629C1812.25 267.807 1810.44 270.695 1802.68 270.612C1776.37 270.227 1750.01 270.227 1723.6 270.612C1715.34 270.612 1714.35 267.395 1714.35 260.464C1714.35 180.382 1714.35 100.3 1714.35 20.2172C1714.35 13.122 1715.84 10.2344 1723.68 10.2344C1764.95 10.2344 1806.23 12.3794 1847.5 15.1845C1881.02 17.4121 1914.37 20.9597 1947.63 25.1673C2242.5 63.4885 2522.24 178.097 2759.17 357.652C2894.21 459.669 3013.34 581.174 3112.65 718.188C3115.21 721.818 3119.17 724.788 3119.09 730.233C3115.45 733.204 3110.83 731.636 3107.28 731.636C3075.75 731.636 3044.21 731.636 3012.76 731.636C3008.97 731.892 3005.18 731.141 3001.77 729.461C2998.37 727.78 2995.47 725.229 2993.36 722.066C2747.24 410.421 2394.9 200.28 2003.6 131.761C2002.3 131.665 2001 131.748 1999.72 132.008ZM1999.72 3317.84C2218.06 3279.8 2426.27 3197.42 2611.49 3075.79C2796.72 2954.17 2955.04 2795.88 3076.65 2610.71H2564.6C2562.04 2610.71 2559.4 2610.71 2556.84 2610.71C2555.82 2610.55 2554.78 2610.59 2553.77 2610.85C2552.77 2611.1 2551.83 2611.55 2551 2612.17C2550.18 2612.8 2549.49 2613.58 2548.97 2614.48C2548.46 2615.38 2548.13 2616.37 2548.01 2617.4C2547.13 2620.34 2546.08 2623.23 2544.88 2626.06C2500.92 2744.03 2442.94 2856.3 2372.18 2960.44C2274.69 3102.1 2155.41 3221.23 2007.73 3310.75C2005.09 3312.31 2001.95 3313.22 2000.38 3317.84H1999.72Z" fill="black"/>
</mask>
<g mask="url(#mask6_2293_2)">
<path d="M1812.17 3057.22C1812.17 3076.11 1812.17 3076.11 1793.43 3076.11H1728.3C1712.29 3076.11 1714.68 3076.11 1714.52 3061.59V388.51C1714.52 367.719 1714.52 367.719 1734.82 367.719C1757.03 367.719 1779.24 367.719 1801.44 367.719C1809.12 367.719 1813.33 369.534 1812.26 378.032C1812.05 381.631 1812.05 385.24 1812.26 388.84L1812.17 3057.22Z" stroke="white" stroke-width="20.468"/>
</g>
<mask id="mask7_2293_2" style="mask-type:luminance" maskUnits="userSpaceOnUse" x="-1" y="-1" width="3451" height="3451">
<path d="M3449.23 -0.765625H-0.765625V3449.23H3449.23V-0.765625Z" fill="white"/>
<path d="M1614.8 13.7812V109.814C1186.86 145.62 823.566 315.41 532.911 631.23C263.802 923.783 120.662 1271.7 107.784 1668.45C93.751 2102.74 233.259 2485.22 524.821 2808.14C816.384 3131.05 1182.49 3302.49 1614.88 3339.13V3435.32C1193.38 3403.23 827.445 3245.57 526.637 2949.14C176.135 2603.62 6.57939 2180.96 10.2941 1688.91C26.1435 1205.94 208.411 796.4 561.143 466.72C856.915 190.666 1210.39 42.2446 1614.8 13.7812Z" fill="black"/>
<path d="M1326.12 3170C1326.12 3193.01 1326.12 3192.6 1304.74 3186.5C1250.76 3171 1197.66 3152.57 1145.67 3131.3C1130.98 3125.45 1130.73 3125.28 1130.73 3108.61V848.049C1130.73 829.238 1130.73 829.156 1148.97 829.156H1317.95C1323.9 829.156 1326.21 832.208 1326.21 837.406C1326.21 842.604 1326.21 846.729 1326.21 851.349L1326.12 3170Z" fill="black"/>
<path d="M1029.52 3075.61C1010.64 3067.77 992.44 3058.36 975.123 3047.48C938.802 3026.94 903.306 3004.83 869.048 2980.9C862.175 2975.5 855.01 2970.49 847.585 2965.88C843.503 2963.72 840.196 2960.35 838.125 2956.22C836.053 2952.1 835.32 2947.43 836.028 2942.87C836.028 2476.45 836.028 2010.09 836.028 1543.79C836.028 1541.73 836.028 1539.66 836.028 1537.6C836.524 1526.71 836.772 1526.05 847.585 1525.97C873.423 1525.97 899.261 1525.97 925.099 1525.97C956.055 1525.97 987.093 1525.97 1018.05 1525.97C1031.01 1525.97 1031.09 1525.97 1031.42 1538.84C1031.42 1542.47 1031.42 1546.02 1031.42 1549.65C1031.42 2051.15 1031.42 2552.66 1031.42 3054.16C1032.41 3061.36 1031.77 3068.7 1029.52 3075.61Z" fill="black"/>
<path d="M1620.74 3218.51C1620.74 3242.27 1622.97 3241.11 1599.36 3240.12C1573.69 3238.97 1548.26 3235.59 1522.75 3231.87C1494.77 3228 1466.87 3223.62 1439.13 3218.42C1426.5 3215.95 1425.68 3215.12 1425.35 3202.5C1425.35 3199.37 1425.35 3196.31 1425.35 3193.18V1363.19C1425.35 1337.53 1422.54 1340.34 1448.79 1340.26H1602.33C1621.73 1340.26 1620.74 1339.18 1620.74 1358.9V3218.51Z" fill="black"/>
<path d="M735.817 2875.3C734.051 2875.3 732.303 2874.95 730.674 2874.27C729.044 2873.59 727.566 2872.59 726.323 2871.34C683.893 2833.55 643.775 2793.37 604.564 2752.37C585 2731.91 567.499 2709.55 549.008 2688.1C546.491 2685.51 544.538 2682.43 543.273 2679.05C542.009 2675.67 541.46 2672.07 541.662 2668.46C541.662 2665.82 541.662 2663.27 541.662 2660.71V1825.21C541.662 1802.44 540.176 1804.66 562.877 1804.66H730.286C731.192 1804.62 732.096 1804.78 732.937 1805.12C733.778 1805.46 734.537 1805.97 735.163 1806.63C735.788 1807.28 736.266 1808.07 736.564 1808.92C736.862 1809.78 736.973 1810.69 736.89 1811.59C736.89 1815.14 736.89 1818.77 736.89 1822.4C736.89 2168.53 736.89 2514.57 736.89 2860.53C737.656 2865.47 737.289 2870.52 735.817 2875.3Z" fill="black"/>
<path d="M442.104 2536.05C431.456 2527.8 427.246 2516.08 421.054 2505.85C395.329 2463.51 371.88 2419.83 350.805 2375C318.674 2307.51 291.874 2237.61 270.65 2165.94C265.367 2147.63 259.754 2129.39 254.553 2111.16C251.429 2100.77 249.817 2089.99 249.766 2079.15C249.766 2034.27 249.766 1989.3 249.766 1944.34C249.766 1929.16 249.766 1929.08 265.367 1929.08H429.64C444.994 1929.08 445.076 1929.08 445.159 1944.42C445.159 2136.93 445.159 2329.63 445.159 2522.52C445.241 2526.89 446.562 2531.76 442.104 2536.05Z" fill="black"/>
<path d="M1812.17 3057.22C1812.17 3076.11 1812.17 3076.11 1793.43 3076.11H1728.3C1712.29 3076.11 1714.68 3076.11 1714.52 3061.59V388.51C1714.52 367.719 1714.52 367.719 1734.82 367.719C1757.03 367.719 1779.24 367.719 1801.44 367.719C1809.12 367.719 1813.33 369.534 1812.26 378.032C1812.05 381.631 1812.05 385.24 1812.26 388.84L1812.17 3057.22Z" fill="black"/>
<path d="M1999.72 132.008C2001.13 134.644 2003.4 136.714 2006.16 137.866C2163.83 233.156 2288.81 361.777 2389.44 514.984C2450.65 609.348 2501.62 709.965 2541.49 815.128C2546.86 828.989 2546.86 829.071 2562.13 829.071H3101.75C3125.52 829.071 3149.3 829.896 3173.07 829.071C3177.32 828.621 3181.59 829.519 3185.3 831.636C3189 833.754 3191.95 836.985 3193.71 840.869C3258.21 948.335 3310.8 1062.5 3350.55 1181.36C3383.29 1279.21 3407.05 1379.84 3421.54 1482C3425.75 1511.53 3428.64 1541.4 3432.11 1570.52C3427.9 1574.65 3423.86 1573.08 3419.56 1573.08C3395.29 1573.08 3371.02 1573.08 3346.75 1573.08C3334.04 1573.08 3333.96 1573.08 3332.8 1560.79C3328.68 1516.56 3322.07 1472.76 3314.07 1428.78C3287.47 1283.62 3240.71 1142.89 3175.14 1010.66C3163 985.909 3149.55 962.395 3137.25 938.057C3135.96 934.494 3133.53 931.458 3130.33 929.427C3127.14 927.396 3123.35 926.485 3119.58 926.837C2943.48 927.167 2767.21 927.167 2590.77 926.837C2587.8 926.837 2584.58 926.012 2581.77 928.569C2582.09 935.203 2583.72 941.708 2586.56 947.71C2613.54 1039.19 2634.88 1132.23 2650.45 1226.32C2666.45 1323.13 2677.47 1420.69 2683.47 1518.63C2686.2 1561.86 2688.18 1605.25 2688.34 1648.65C2688.34 1651.7 2688.34 1654.84 2688.34 1657.89C2689.75 1671.01 2686.69 1671.09 2702.63 1671.09H3344.61C3372.12 1671.09 3399.64 1671.09 3427.16 1671.09C3438.05 1671.09 3438.22 1671.09 3438.38 1681.9C3439.13 1744.93 3438.38 1807.88 3432.77 1870.75C3421.9 1999.31 3396.53 2126.23 3357.16 2249.1C3340.65 2301.16 3321.16 2352.23 3299.78 2402.48C3298.81 2406.36 3296.45 2409.76 3293.16 2412.03C3289.86 2414.31 3285.85 2415.31 3281.87 2414.85C3251.41 2414.27 3220.95 2414.85 3191.07 2414.85C3188.18 2409.57 3191.48 2406.19 3193.05 2402.64C3243.58 2293.6 3281.69 2179.22 3306.64 2061.66C3321.21 1994.05 3331.11 1925.52 3336.27 1856.56C3338.17 1830.82 3339.74 1805.08 3341.22 1779.25C3341.88 1768.28 3341.22 1768.11 3330.33 1768.03C3315.88 1768.03 3301.44 1768.03 3286.91 1768.03H2706.92C2689.83 1768.03 2689.83 1768.03 2689.17 1785.11C2687.68 1826.94 2687.35 1868.77 2684.8 1910.51C2681.08 1969.75 2676.54 2028.99 2669.77 2087.98C2661.93 2156.21 2651.69 2223.94 2638.65 2291.34C2624.95 2361.75 2607.89 2431.3 2587.47 2499.99C2585.79 2503.86 2585.27 2508.13 2585.98 2512.29H3244.97C3244.83 2518 3242.86 2523.52 3239.36 2528.04C3069.47 2842.82 2826.04 3083.12 2509.05 3248.95C2375.09 3318.58 2232.3 3369.73 2084.58 3401C2021.55 3414.59 1957.77 3424.39 1893.56 3430.37C1838.01 3435.49 1782.37 3438.62 1726.49 3438.62C1714.76 3438.62 1714.52 3438.62 1714.52 3427.07V3186.5C1714.52 3174.45 1714.52 3174.29 1726.07 3174.2C1751.42 3174.2 1776.68 3174.2 1802.02 3174.2C1810.27 3174.2 1812.5 3177.01 1812.34 3184.93C1811.92 3211.33 1812.34 3237.65 1812.34 3263.97C1811.78 3269.31 1812.2 3274.7 1813.57 3279.89C1828.88 3275.33 1843.84 3269.64 1858.32 3262.89C1956.98 3218.67 2047.09 3157.46 2124.54 3082.05C2241.18 2970.84 2328.84 2839.33 2396.2 2693.63C2408.01 2667.89 2418.74 2641.57 2429.88 2615.58C2429.88 2614.75 2429.88 2613.6 2429.88 2610.55H2413.87C2252.07 2610.55 2090.28 2610.55 1928.48 2610.55C1907.93 2610.55 1910.32 2613.27 1910.24 2592.56C1910.24 2569.38 1910.24 2546.11 1910.24 2522.85C1910.24 2515.26 1911.89 2510.97 1920.48 2512.04C1924.1 2512.29 1927.74 2512.29 1931.37 2512.04H2455.47C2467.36 2512.04 2467.44 2512.04 2471.24 2500.32C2498.5 2414.85 2520.09 2327.68 2535.88 2239.37C2549.33 2166.27 2559.16 2092.6 2566.01 2018.59C2571.54 1958.94 2575.58 1899.21 2576.9 1839.23C2577.32 1819.6 2578.39 1800.04 2578.89 1780.41C2578.89 1768.11 2578.89 1767.95 2566.01 1767.95H1928.48C1907.43 1767.95 1910.4 1770.34 1910.24 1750.13C1910.24 1727.36 1910.24 1704.67 1910.24 1681.9C1910.24 1674.23 1911.89 1670.1 1920.39 1671.09C1924.02 1671.34 1927.66 1671.34 1931.29 1671.09H2557.75C2560.81 1671.09 2563.94 1671.09 2567 1671.09C2578.64 1671.09 2578.89 1671.09 2578.55 1659.05C2576.57 1590.9 2573.85 1522.83 2567.91 1454.94C2562.46 1392.15 2555.19 1329.61 2545.54 1267.41C2528.77 1156.26 2502.95 1046.66 2468.35 939.707C2464.14 926.837 2464.06 926.837 2450.27 926.837H1929.06C1907.85 926.837 1910.32 929.559 1910.24 907.779C1910.16 885.998 1910.24 862.32 1910.24 839.632C1910.24 831.959 1911.97 827.669 1920.56 828.824C1923.64 829.03 1926.72 829.03 1929.8 828.824H2425.51C2428.07 824.781 2425.51 822.141 2424.35 819.501C2370.31 684.227 2294.74 558.576 2200.56 447.415C2117.5 348.794 2016.14 267.158 1902.07 207.003C1873.72 192.011 1844.18 179.4 1813.74 169.299C1812 175.295 1811.49 181.583 1812.25 187.78C1812.25 212.118 1812.25 236.374 1812.25 260.629C1812.25 267.807 1810.44 270.695 1802.68 270.612C1776.37 270.227 1750.01 270.227 1723.6 270.612C1715.34 270.612 1714.35 267.395 1714.35 260.464C1714.35 180.382 1714.35 100.3 1714.35 20.2172C1714.35 13.122 1715.84 10.2344 1723.68 10.2344C1764.95 10.2344 1806.23 12.3794 1847.5 15.1845C1881.02 17.4121 1914.37 20.9597 1947.63 25.1673C2242.5 63.4885 2522.24 178.097 2759.17 357.652C2894.21 459.669 3013.34 581.174 3112.65 718.188C3115.21 721.818 3119.17 724.788 3119.09 730.233C3115.45 733.204 3110.83 731.636 3107.28 731.636C3075.75 731.636 3044.21 731.636 3012.76 731.636C3008.97 731.892 3005.18 731.141 3001.77 729.461C2998.37 727.78 2995.47 725.229 2993.36 722.066C2747.24 410.421 2394.9 200.28 2003.6 131.761C2002.3 131.665 2001 131.748 1999.72 132.008ZM1999.72 3317.84C2218.06 3279.8 2426.27 3197.42 2611.49 3075.79C2796.72 2954.17 2955.04 2795.88 3076.65 2610.71H2564.6C2562.04 2610.71 2559.4 2610.71 2556.84 2610.71C2555.82 2610.55 2554.78 2610.59 2553.77 2610.85C2552.77 2611.1 2551.83 2611.55 2551 2612.17C2550.18 2612.8 2549.49 2613.58 2548.97 2614.48C2548.46 2615.38 2548.13 2616.37 2548.01 2617.4C2547.13 2620.34 2546.08 2623.23 2544.88 2626.06C2500.92 2744.03 2442.94 2856.3 2372.18 2960.44C2274.69 3102.1 2155.41 3221.23 2007.73 3310.75C2005.09 3312.31 2001.95 3313.22 2000.38 3317.84H1999.72Z" fill="black"/>
</mask>
<g mask="url(#mask7_2293_2)">
<path d="M1999.72 132.008C2001.13 134.644 2003.4 136.714 2006.16 137.866C2163.83 233.156 2288.81 361.777 2389.44 514.984C2450.65 609.348 2501.62 709.965 2541.49 815.128C2546.86 828.989 2546.86 829.071 2562.13 829.071H3101.75C3125.52 829.071 3149.3 829.896 3173.07 829.071C3177.32 828.621 3181.59 829.519 3185.3 831.636C3189 833.754 3191.95 836.985 3193.71 840.869C3258.21 948.335 3310.8 1062.5 3350.55 1181.36C3383.29 1279.21 3407.05 1379.84 3421.54 1482C3425.75 1511.53 3428.64 1541.4 3432.11 1570.52C3427.9 1574.65 3423.86 1573.08 3419.56 1573.08C3395.29 1573.08 3371.02 1573.08 3346.75 1573.08C3334.04 1573.08 3333.96 1573.08 3332.8 1560.79C3328.68 1516.56 3322.07 1472.76 3314.07 1428.78C3287.47 1283.62 3240.71 1142.89 3175.14 1010.66C3163 985.909 3149.55 962.395 3137.25 938.057C3135.96 934.494 3133.53 931.458 3130.33 929.427C3127.14 927.396 3123.35 926.485 3119.58 926.837C2943.48 927.167 2767.21 927.167 2590.77 926.837C2587.8 926.837 2584.58 926.012 2581.77 928.569C2582.09 935.203 2583.72 941.708 2586.56 947.71C2613.54 1039.19 2634.88 1132.23 2650.45 1226.32C2666.45 1323.13 2677.47 1420.69 2683.47 1518.63C2686.2 1561.86 2688.18 1605.25 2688.34 1648.65C2688.34 1651.7 2688.34 1654.84 2688.34 1657.89C2689.75 1671.01 2686.69 1671.09 2702.63 1671.09H3344.61C3372.12 1671.09 3399.64 1671.09 3427.16 1671.09C3438.05 1671.09 3438.22 1671.09 3438.38 1681.9C3439.13 1744.93 3438.38 1807.88 3432.77 1870.75C3421.9 1999.31 3396.53 2126.23 3357.16 2249.1C3340.65 2301.16 3321.16 2352.23 3299.78 2402.48C3298.81 2406.36 3296.45 2409.76 3293.16 2412.03C3289.86 2414.31 3285.85 2415.31 3281.87 2414.85C3251.41 2414.27 3220.95 2414.85 3191.07 2414.85C3188.18 2409.57 3191.48 2406.19 3193.05 2402.64C3243.58 2293.6 3281.69 2179.22 3306.64 2061.66C3321.21 1994.05 3331.11 1925.52 3336.27 1856.56C3338.17 1830.82 3339.74 1805.08 3341.22 1779.25C3341.88 1768.28 3341.22 1768.11 3330.33 1768.03C3315.88 1768.03 3301.44 1768.03 3286.91 1768.03H2706.92C2689.83 1768.03 2689.83 1768.03 2689.17 1785.11C2687.68 1826.94 2687.35 1868.77 2684.8 1910.51C2681.08 1969.75 2676.54 2028.99 2669.77 2087.98C2661.93 2156.21 2651.69 2223.94 2638.65 2291.34C2624.95 2361.75 2607.89 2431.3 2587.47 2499.99C2585.79 2503.86 2585.27 2508.13 2585.98 2512.29H3244.97C3244.83 2518 3242.86 2523.52 3239.36 2528.04C3069.47 2842.82 2826.04 3083.12 2509.05 3248.95C2375.09 3318.58 2232.3 3369.73 2084.58 3401C2021.55 3414.59 1957.77 3424.39 1893.56 3430.37C1838.01 3435.49 1782.37 3438.62 1726.49 3438.62C1714.76 3438.62 1714.52 3438.62 1714.52 3427.07V3186.5C1714.52 3174.45 1714.52 3174.29 1726.07 3174.2C1751.42 3174.2 1776.68 3174.2 1802.02 3174.2C1810.27 3174.2 1812.5 3177.01 1812.34 3184.93C1811.92 3211.33 1812.34 3237.65 1812.34 3263.97C1811.78 3269.31 1812.2 3274.7 1813.57 3279.89C1828.88 3275.33 1843.84 3269.64 1858.32 3262.89C1956.98 3218.67 2047.09 3157.46 2124.54 3082.05C2241.18 2970.84 2328.84 2839.33 2396.2 2693.63C2408.01 2667.89 2418.74 2641.57 2429.88 2615.58C2429.88 2614.75 2429.88 2613.6 2429.88 2610.55H2413.87C2252.07 2610.55 2090.28 2610.55 1928.48 2610.55C1907.93 2610.55 1910.32 2613.27 1910.24 2592.56C1910.24 2569.38 1910.24 2546.11 1910.24 2522.85C1910.24 2515.26 1911.89 2510.97 1920.48 2512.04C1924.1 2512.29 1927.74 2512.29 1931.37 2512.04H2455.47C2467.36 2512.04 2467.44 2512.04 2471.24 2500.32C2498.5 2414.85 2520.09 2327.68 2535.88 2239.37C2549.33 2166.27 2559.16 2092.6 2566.01 2018.59C2571.54 1958.94 2575.58 1899.21 2576.9 1839.23C2577.32 1819.6 2578.39 1800.04 2578.89 1780.41C2578.89 1768.11 2578.89 1767.95 2566.01 1767.95H1928.48C1907.43 1767.95 1910.4 1770.34 1910.24 1750.13C1910.24 1727.36 1910.24 1704.67 1910.24 1681.9C1910.24 1674.23 1911.89 1670.1 1920.39 1671.09C1924.02 1671.34 1927.66 1671.34 1931.29 1671.09H2557.75C2560.81 1671.09 2563.94 1671.09 2567 1671.09C2578.64 1671.09 2578.89 1671.09 2578.55 1659.05C2576.57 1590.9 2573.85 1522.83 2567.91 1454.94C2562.46 1392.15 2555.19 1329.61 2545.54 1267.41C2528.77 1156.26 2502.95 1046.66 2468.35 939.707C2464.14 926.837 2464.06 926.837 2450.27 926.837H1929.06C1907.85 926.837 1910.32 929.559 1910.24 907.779C1910.16 885.998 1910.24 862.32 1910.24 839.632C1910.24 831.959 1911.97 827.669 1920.56 828.824C1923.64 829.03 1926.72 829.03 1929.8 828.824H2425.51C2428.07 824.781 2425.51 822.141 2424.35 819.501C2370.31 684.227 2294.74 558.576 2200.56 447.415C2117.5 348.794 2016.14 267.158 1902.07 207.003C1873.72 192.011 1844.18 179.4 1813.74 169.299C1812 175.295 1811.49 181.583 1812.25 187.78C1812.25 212.118 1812.25 236.374 1812.25 260.629C1812.25 267.807 1810.44 270.695 1802.68 270.612C1776.37 270.227 1750.01 270.227 1723.6 270.612C1715.34 270.612 1714.35 267.395 1714.35 260.464C1714.35 180.382 1714.35 100.3 1714.35 20.2172C1714.35 13.122 1715.84 10.2344 1723.68 10.2344C1764.95 10.2344 1806.23 12.3794 1847.5 15.1845C1881.02 17.4121 1914.37 20.9597 1947.63 25.1673C2242.5 63.4885 2522.24 178.097 2759.17 357.652C2894.21 459.669 3013.34 581.174 3112.65 718.188C3115.21 721.818 3119.17 724.788 3119.09 730.233C3115.45 733.204 3110.83 731.636 3107.28 731.636C3075.75 731.636 3044.21 731.636 3012.76 731.636C3008.97 731.892 3005.18 731.141 3001.77 729.461C2998.37 727.78 2995.47 725.229 2993.36 722.066C2747.24 410.421 2394.9 200.28 2003.6 131.761C2002.3 131.665 2001 131.748 1999.72 132.008ZM1999.72 3317.84C2218.06 3279.8 2426.27 3197.42 2611.49 3075.79C2796.72 2954.17 2955.04 2795.88 3076.65 2610.71H2564.6C2562.04 2610.71 2559.4 2610.71 2556.84 2610.71C2555.82 2610.55 2554.78 2610.59 2553.77 2610.85C2552.77 2611.1 2551.83 2611.55 2551 2612.17C2550.18 2612.8 2549.49 2613.58 2548.97 2614.48C2548.46 2615.38 2548.13 2616.37 2548.01 2617.4C2547.13 2620.34 2546.08 2623.23 2544.88 2626.06C2500.92 2744.03 2442.94 2856.3 2372.18 2960.44C2274.69 3102.1 2155.41 3221.23 2007.73 3310.75C2005.09 3312.31 2001.95 3313.22 2000.38 3317.84H1999.72Z" stroke="white" stroke-width="20.468"/>
</g>
</g>
<defs>
<clipPath id="clip0_2293_2">
<rect width="3449" height="3449" fill="white"/>
</clipPath>
</defs>
</svg>
