<svg width="171" height="48" viewBox="0 0 171 48" fill="none" xmlns="http://www.w3.org/2000/svg">
<g clip-path="url(#clip0_26_2)">
<path d="M53.0607 17.8051H52.1533V12.3033H53.0607L54.8971 14.7942L56.7335 12.3033H57.6409V17.8051H56.7335V13.6029L55.1348 15.704H54.5946L52.9959 13.6029L53.0391 17.8051H53.0607Z" fill="white"/>
<path d="M59.8873 17.8051H59.0879V12.3033H59.9953V16.3538L63.1279 12.3033H63.9273V17.8051H63.0199V13.7545L59.8873 17.8051Z" fill="white"/>
<path d="M66.2179 17.8051H65.3105V12.3033H66.2179V14.5126H69.221V12.3033H70.1284V17.8051H69.221V15.2491H66.2179V17.8051Z" fill="white"/>
<path d="M72.3099 17.8051H71.5537V12.3033H72.4611V16.3538L75.5938 12.3033H76.3931V17.8051H75.4857V13.7545L72.2883 17.8051H72.3099Z" fill="white"/>
<path d="M80.542 17.8917C79.6994 17.8917 78.9432 17.6318 78.4031 17.0902C77.7982 16.5487 77.5605 15.8339 77.5605 15.0325C77.5605 14.1877 77.863 13.5379 78.4031 12.9747C79.0081 12.4332 79.6994 12.1733 80.542 12.1733C81.1469 12.1733 81.6438 12.3249 82.0975 12.5198V13.3646C81.6438 13.0614 81.1469 12.9097 80.542 12.9097C79.937 12.9097 79.4401 13.1047 79.0513 13.5162C78.6624 13.9061 78.4463 14.361 78.4463 14.9675C78.4463 15.574 78.6408 16.0722 79.0513 16.4188C79.4401 16.8087 79.9587 17.0253 80.6068 17.0253C81.2549 17.0253 81.795 16.8736 82.2487 16.5271V17.3718C81.7086 17.7184 81.1469 17.87 80.5636 17.87L80.542 17.8917Z" fill="white"/>
<path d="M82.9181 13.1047V12.3033H87.6063V13.1047H85.7051V17.8484H84.7977V13.1047H82.8965H82.9181Z" fill="white"/>
<path d="M92.7479 17.8051H88.5566V12.3033H92.6399V13.1047H89.4424V14.5126H92.035V15.3141H89.4424V17.0036H92.7263V17.8051H92.7479Z" fill="white"/>
<path d="M94.6062 17.8051H93.7637V12.3033H96.2482C96.8531 12.3033 97.35 12.4549 97.6525 12.7581C97.9982 13.0614 98.1926 13.4513 98.1926 13.9061C98.1926 14.361 97.9982 14.7509 97.6525 15.0975C97.3068 15.4007 96.8531 15.5524 96.2482 15.5524H94.6495V17.8051H94.6062ZM94.6062 13.1047V14.7509H96.097C96.4426 14.7509 96.7019 14.6426 96.8963 14.556C97.0908 14.4043 97.1988 14.2094 97.1988 13.9495C97.1988 13.6895 97.0908 13.4946 96.8963 13.343C96.7019 13.1913 96.4426 13.148 96.097 13.148L94.6062 13.1047Z" fill="white"/>
<path d="M101.931 17.8917C101.088 17.8917 100.332 17.6318 99.7918 17.0902C99.1869 16.5487 98.9492 15.8339 98.9492 15.0325C98.9492 14.1877 99.2517 13.5379 99.7918 12.9747C100.397 12.4332 101.088 12.1733 101.931 12.1733C102.536 12.1733 103.032 12.3249 103.486 12.5198V13.3646C103.032 13.0614 102.536 12.9097 101.931 12.9097C101.326 12.9097 100.829 13.1047 100.44 13.5162C100.051 13.9061 99.835 14.361 99.835 14.9675C99.835 15.574 100.029 16.0722 100.44 16.4188C100.829 16.8087 101.347 17.0253 101.995 17.0253C102.644 17.0253 103.184 16.8736 103.637 16.5271V17.3718C103.141 17.7184 102.6 17.87 101.952 17.87L101.931 17.8917Z" fill="white"/>
<path d="M104.328 13.1047V12.3033H109.016V13.1047H107.115V17.8484H106.208V13.1047H104.307H104.328Z" fill="white"/>
<path d="M112.754 17.8051H109.967V12.3033H112.559C113.099 12.3033 113.467 12.4549 113.812 12.6498C114.115 12.9098 114.266 13.2563 114.266 13.6462C114.266 13.9061 114.158 14.1444 114.072 14.3394C113.92 14.5343 113.769 14.6859 113.532 14.7292C113.877 14.7726 114.18 14.9892 114.374 15.2274C114.569 15.4657 114.72 15.8339 114.72 16.2238C114.72 16.6787 114.525 17.0686 114.18 17.3718C113.877 17.6318 113.424 17.7617 112.775 17.7617L112.754 17.8051ZM110.853 13.1047V14.5126H112.408C112.711 14.5126 112.948 14.4693 113.099 14.3177C113.251 14.1661 113.359 14.0144 113.359 13.7762C113.359 13.5379 113.251 13.3863 113.099 13.2347C112.948 13.083 112.711 13.0397 112.408 13.0397H110.853V13.148V13.1047ZM110.853 15.2491V17.0036H112.603C112.948 17.0036 113.251 16.8953 113.402 16.7437C113.596 16.5921 113.704 16.3971 113.704 16.0939C113.704 15.8339 113.596 15.639 113.402 15.444C113.207 15.2924 112.948 15.2491 112.603 15.2491H110.853Z" fill="white"/>
<path d="M120.575 17.1119C120.035 17.6534 119.322 17.9134 118.479 17.9134C117.636 17.9134 116.923 17.6534 116.383 17.1119C115.843 16.5704 115.584 15.8556 115.584 15.0542C115.584 14.2527 115.843 13.5596 116.383 13.0614C116.923 12.5199 117.636 12.2166 118.479 12.2166C119.322 12.2166 120.035 12.5199 120.575 13.0614C121.115 13.6029 121.417 14.3177 121.417 15.0542C121.417 15.7906 121.115 16.5487 120.575 17.1119ZM117.096 16.5054C117.485 16.8953 117.939 17.1119 118.501 17.1119C119.062 17.1119 119.538 16.917 119.905 16.5054C120.294 16.1155 120.51 15.5957 120.51 15.0542C120.51 14.4477 120.315 13.9495 119.905 13.6029C119.516 13.213 119.062 12.9964 118.501 12.9964C117.939 12.9964 117.464 13.1913 117.096 13.6029C116.707 13.9928 116.491 14.4477 116.491 15.0542C116.491 15.6607 116.686 16.0939 117.096 16.5054Z" fill="white"/>
<path d="M125.674 17.8051H124.767V12.3033H125.674V14.5126H128.677V12.3033H129.584V17.8051H128.677V15.2491H125.674V17.8051Z" fill="white"/>
<path d="M131.399 17.805H130.448L132.933 12.2599H133.775L136.26 17.805H135.309L134.661 16.4621H131.961L131.356 17.805H131.399ZM133.408 13.343L132.371 15.639H134.467L133.43 13.343H133.408Z" fill="white"/>
<path d="M138.032 17.8917C137.686 17.8917 137.383 17.8484 137.232 17.7401V16.9386C137.427 17.0469 137.621 17.0902 137.88 17.0902C138.14 17.0902 138.269 17.0469 138.485 16.8953C138.637 16.787 138.788 16.5487 138.982 16.1372L136.735 12.2383H137.772L139.458 15.2491L140.862 12.2383H141.812L139.717 16.592C139.263 17.5018 138.723 17.8917 138.032 17.8917Z" fill="white"/>
<path d="M143.584 17.8051H142.677V12.3033H143.584V14.556L145.939 12.3033H147.084L144.448 14.7942L147.538 17.8051H146.35L143.649 15.1625V17.8051H143.606H143.584Z" fill="white"/>
<path d="M149.115 17.8051H148.358V12.3033H149.266V16.3538L152.398 12.3033H153.198V17.8051H152.29V13.7545L149.093 17.8051H149.115Z" fill="white"/>
<path d="M52.9524 27.3574H52.1963V21.8556H53.1037V25.9061L56.2363 21.8556H57.0357V27.3574H56.1283V23.3069L52.9308 27.3574H52.9524Z" fill="white"/>
<path d="M63.3661 27.3574H60.5791V21.8556H63.1716C63.7118 21.8556 64.079 22.0072 64.4247 22.2022C64.7272 22.4621 64.8784 22.8087 64.8784 23.1986C64.8784 23.4585 64.7704 23.6967 64.684 23.8917C64.5975 24.0866 64.3815 24.2383 64.1439 24.2816C64.4895 24.3249 64.792 24.5415 64.9864 24.7798C65.1809 25.018 65.3321 25.3863 65.3321 25.7762C65.3321 26.231 65.1377 26.6209 64.792 26.9242C64.4463 27.1841 63.9926 27.3141 63.3877 27.3141L63.3661 27.3574ZM61.4865 22.5921V24H63.042C63.3445 24 63.5821 23.9567 63.7334 23.805C63.8846 23.6534 63.9926 23.5018 63.9926 23.2635C63.9926 23.0253 63.8846 22.8736 63.7334 22.722C63.5821 22.5704 63.3445 22.5271 63.042 22.5271H61.4865V22.6354V22.5921ZM61.4865 24.8014V26.556H63.2365C63.5821 26.556 63.8846 26.4476 64.0358 26.296C64.2303 26.1444 64.3383 25.9495 64.3383 25.6462C64.3383 25.3863 64.2303 25.1913 64.0358 24.9964C63.8414 24.8448 63.5821 24.8014 63.2365 24.8014H61.4865Z" fill="white"/>
<path d="M68.6158 27.3574H66.4121V21.8556H67.3195V23.7617H68.6158C69.2639 23.7617 69.804 23.9134 70.2145 24.2599C70.625 24.6065 70.8194 25.018 70.8194 25.5596C70.8194 26.1011 70.625 26.5126 70.2145 26.8592C69.7608 27.2058 69.2639 27.3574 68.6158 27.3574ZM67.3195 24.5415V26.5343H68.5726C68.9614 26.5343 69.2639 26.426 69.5232 26.2744C69.7824 26.1227 69.8688 25.8845 69.8688 25.5162C69.8688 25.148 69.7608 24.9097 69.5232 24.7581C69.2855 24.6065 68.9831 24.4982 68.5726 24.4982H67.3195V24.5415ZM72.3966 27.3574H71.4892V21.8556H72.3966V27.3574Z" fill="white"/>
<path d="M76.5449 27.444C75.7023 27.444 74.9462 27.1841 74.4061 26.6426C73.8011 26.1011 73.5635 25.3863 73.5635 24.5848C73.5635 23.7401 73.8659 23.0902 74.4061 22.5271C75.011 21.9855 75.7023 21.7256 76.5449 21.7256C77.1498 21.7256 77.6467 21.8772 78.1004 22.0722V22.917C77.6467 22.6137 77.1498 22.4621 76.5449 22.4621C75.94 22.4621 75.4431 22.657 75.0542 23.0686C74.6653 23.4801 74.4493 23.9133 74.4493 24.5198C74.4493 25.1263 74.6437 25.6245 75.0542 25.9711C75.4431 26.361 75.9616 26.5776 76.6097 26.5776C77.2579 26.5776 77.798 26.426 78.2517 26.0794V26.9242C77.7548 27.2707 77.2146 27.4224 76.5665 27.4224L76.5449 27.444Z" fill="white"/>
<path d="M86.3103 27.3574H79.332V21.8556H80.2394V26.5993H82.3783V21.8556H83.2857V26.5993H85.4245V21.8556H86.3319V27.3574H86.3103Z" fill="white"/>
<path d="M91.8622 27.3574H87.6709V21.8556H91.7542V22.657H88.5567V24H91.1492V24.8014H88.5567V26.556H91.8406V27.3574H91.8622Z" fill="white"/>
<path d="M93.7423 27.3574H92.835V21.8556H96.875V22.657H93.7423V27.3574Z" fill="white"/>
<path d="M102.427 26.6426C101.887 27.1841 101.174 27.444 100.332 27.444C99.489 27.444 98.776 27.1841 98.2359 26.6426C97.6958 26.1011 97.4365 25.3863 97.4365 24.5848C97.4365 23.7834 97.6958 23.0902 98.2359 22.5921C98.776 22.0505 99.489 21.7473 100.332 21.7473C101.174 21.7473 101.887 22.0505 102.427 22.5921C102.967 23.1336 103.27 23.8484 103.27 24.5848C103.27 25.343 102.967 26.0794 102.427 26.6426ZM98.884 26.0578C99.2729 26.4476 99.7266 26.6643 100.288 26.6643C100.85 26.6643 101.325 26.4693 101.693 26.0578C102.082 25.6679 102.298 25.148 102.298 24.6065C102.298 24 102.103 23.5018 101.693 23.1552C101.304 22.7653 100.85 22.5487 100.288 22.5487C99.7266 22.5487 99.2513 22.7437 98.884 23.1552C98.4952 23.5451 98.2791 24 98.2791 24.6065C98.3223 25.213 98.4735 25.6462 98.884 26.0578Z" fill="white"/>
<path d="M111.414 26.6426C110.874 27.1841 110.161 27.444 109.319 27.444C108.476 27.444 107.763 27.1841 107.223 26.6426C106.683 26.1011 106.424 25.3863 106.424 24.5848C106.424 23.7834 106.683 23.0902 107.223 22.5921C107.763 22.0505 108.476 21.7473 109.319 21.7473C110.161 21.7473 110.874 22.0505 111.414 22.5921C111.955 23.1336 112.257 23.8484 112.257 24.5848C112.257 25.343 111.955 26.0794 111.414 26.6426ZM107.871 26.0578C108.26 26.4476 108.714 26.6643 109.276 26.6643C109.837 26.6643 110.313 26.4693 110.68 26.0578C111.069 25.6679 111.285 25.148 111.285 24.6065C111.285 24 111.09 23.5018 110.68 23.1552C110.291 22.7653 109.837 22.5487 109.276 22.5487C108.714 22.5487 108.239 22.7437 107.871 23.1552C107.482 23.5451 107.266 24 107.266 24.6065C107.31 25.213 107.526 25.6462 107.871 26.0578Z" fill="white"/>
<path d="M115.8 27.3574H113.402V21.8556H117.442V22.657H114.31V23.805H115.865C116.513 23.805 117.01 23.9567 117.421 24.3032C117.766 24.6065 118.026 25.0614 118.026 25.6029C118.026 26.1444 117.831 26.556 117.421 26.9025C117.032 27.2058 116.47 27.3574 115.822 27.3574H115.8ZM114.245 24.6065V26.556H115.692C116.081 26.556 116.384 26.4476 116.643 26.296C116.837 26.1011 116.989 25.9061 116.989 25.6029C116.989 25.2996 116.881 25.0614 116.643 24.8448C116.405 24.6282 116.103 24.5848 115.692 24.5848H114.245V24.6065Z" fill="white"/>
<path d="M119.84 27.3574H118.933V21.8556H121.374C121.979 21.8556 122.476 22.0072 122.778 22.3105C123.124 22.6137 123.318 23.0036 123.318 23.4585C123.318 23.9134 123.124 24.3032 122.778 24.6498C122.433 24.9531 121.979 25.1047 121.374 25.1047H119.775V27.3574H119.818H119.84ZM119.84 22.5921V24.2383H121.331C121.676 24.2383 121.936 24.13 122.13 24.0433C122.325 23.9567 122.433 23.6967 122.433 23.4368C122.433 23.1769 122.325 22.9819 122.13 22.8303C121.936 22.6787 121.676 22.6354 121.331 22.6354L119.84 22.5921Z" fill="white"/>
<path d="M124.183 27.3574H123.232L125.717 21.8123H126.56L129.044 27.3574H128.137L127.489 26.0144H124.788L124.14 27.3574H124.183ZM126.171 22.852L125.134 25.148H127.229L126.192 22.852H126.171Z" fill="white"/>
<path d="M131.809 27.4441C131.01 27.4441 130.361 27.2924 129.821 26.9892V26.1444C130.081 26.296 130.361 26.4477 130.729 26.491C131.074 26.5993 131.377 26.6426 131.722 26.6426C132.176 26.6426 132.565 26.5343 132.868 26.3827C133.17 26.1877 133.256 25.9928 133.256 25.6895C133.256 25.4296 133.105 25.2347 132.868 25.0397C132.608 24.8881 132.263 24.7798 131.831 24.7798H131.182V23.9783H131.982C132.327 23.9783 132.63 23.87 132.781 23.7834C132.976 23.6318 133.084 23.4802 133.084 23.2419C133.084 23.0036 132.976 22.852 132.738 22.7004C132.543 22.5487 132.198 22.5054 131.831 22.5054C131.226 22.5054 130.642 22.657 130.081 22.8953V22.0939C130.621 21.7906 131.226 21.704 131.874 21.704C132.522 21.704 133.019 21.8556 133.364 22.0939C133.753 22.3538 133.969 22.7437 133.969 23.1986C133.969 23.5018 133.861 23.7401 133.667 23.9567C133.472 24.1733 133.278 24.3033 133.062 24.3466C133.364 24.4549 133.602 24.6065 133.861 24.8448C134.121 25.083 134.207 25.3863 134.207 25.7545C134.207 26.2527 134.013 26.6643 133.559 27.0108C133.062 27.3141 132.522 27.4657 131.809 27.4657V27.4441Z" fill="white"/>
<path d="M140.04 26.6426C139.5 27.1841 138.787 27.444 137.945 27.444C137.102 27.444 136.389 27.1841 135.849 26.6426C135.309 26.1011 135.05 25.3863 135.05 24.5848C135.05 23.7834 135.309 23.0902 135.849 22.5921C136.389 22.0505 137.102 21.7473 137.945 21.7473C138.787 21.7473 139.5 22.0505 140.04 22.5921C140.581 23.1336 140.883 23.8484 140.883 24.5848C140.883 25.3213 140.581 26.0794 140.04 26.6426ZM136.497 26.0578C136.886 26.4476 137.34 26.6643 137.902 26.6643C138.463 26.6643 138.939 26.4693 139.306 26.0578C139.695 25.6679 139.911 25.148 139.911 24.6065C139.911 24 139.716 23.5018 139.306 23.1552C138.895 22.8087 138.463 22.5487 137.902 22.5487C137.34 22.5487 136.865 22.7437 136.497 23.1552C136.108 23.5451 135.892 24 135.892 24.6065C135.936 25.213 136.152 25.6462 136.497 26.0578Z" fill="white"/>
<path d="M144.815 27.3574H142.028V21.8556H144.621C145.161 21.8556 145.528 22.0072 145.874 22.2022C146.176 22.4621 146.328 22.8087 146.328 23.1986C146.328 23.4585 146.22 23.6967 146.133 23.8917C145.982 24.0866 145.831 24.2383 145.593 24.2816C145.939 24.3249 146.241 24.5415 146.436 24.7798C146.63 25.0397 146.781 25.3863 146.781 25.7762C146.781 26.231 146.587 26.6209 146.241 26.9242C145.896 27.1841 145.399 27.3141 144.837 27.3141L144.815 27.3574ZM142.871 22.5921V24H144.426C144.729 24 144.967 23.9567 145.118 23.805C145.269 23.6534 145.377 23.5018 145.377 23.2635C145.377 23.0253 145.269 22.8736 145.118 22.722C144.967 22.5704 144.729 22.5271 144.426 22.5271H142.871V22.6354V22.5921ZM142.871 24.8014V26.556H144.621C144.967 26.556 145.269 26.4476 145.42 26.296C145.615 26.1444 145.723 25.9495 145.723 25.6462C145.723 25.3863 145.615 25.1913 145.42 24.9964C145.226 24.8448 144.967 24.8014 144.621 24.8014H142.871Z" fill="white"/>
<path d="M148.207 27.3574H147.257L149.741 21.8123H150.584L153.068 27.3574H152.118L151.47 26.0144H148.769L148.164 27.3574H148.207ZM150.217 22.852L149.18 25.148H151.275L150.238 22.852H150.217Z" fill="white"/>
<path d="M154.947 27.3574H154.04V21.8556H154.947V24H157.95V21.7906H158.858V27.2924H157.95V24.7365H154.947V27.3357V27.3574Z" fill="white"/>
<path d="M160.976 27.3574H160.22V21.8556H161.127V25.9061L164.26 21.8556H165.059V27.3574H164.152V23.3069L160.954 27.3574H160.976Z" fill="white"/>
<path d="M167.068 27.3574H165.966L167.802 24.9531C167.413 24.8448 167.111 24.6931 166.852 24.4115C166.592 24.1516 166.506 23.805 166.506 23.4585C166.506 23.0036 166.657 22.6137 167.003 22.3105C167.349 22.0072 167.802 21.9206 168.407 21.9206H171V27.4224H170.092V25.018H168.753L167.068 27.379V27.3574ZM168.472 24.2599H170.157V22.6137H168.472C168.169 22.6137 167.867 22.722 167.716 22.8086C167.521 22.9603 167.457 23.1552 167.457 23.4151C167.457 23.6751 167.565 23.87 167.716 24.0216C167.91 24.1733 168.169 24.2816 168.472 24.2816V24.2599Z" fill="white"/>
<path d="M53.0607 36.9097H52.1533V31.4079H54.6378C55.2428 31.4079 55.7397 31.5596 56.0421 31.8628C56.3878 32.1661 56.5823 32.5559 56.5823 33.0108C56.5823 33.4657 56.3878 33.8556 56.0421 34.2022C55.6965 34.5054 55.2428 34.657 54.6378 34.657H53.0391V36.9097H53.0607ZM53.0607 32.1444V33.7906H54.5514C54.8971 33.7906 55.1564 33.6823 55.3508 33.5957C55.5452 33.444 55.6533 33.2491 55.6533 32.9892C55.6533 32.7292 55.5452 32.5343 55.3508 32.3827C55.1564 32.231 54.8971 32.1877 54.5514 32.1877L53.0607 32.1444Z" fill="white"/>
<path d="M62.3725 36.1516C61.8324 36.6931 61.1194 36.9531 60.2768 36.9531C59.4343 36.9531 58.7213 36.6931 58.1812 36.1516C57.6411 35.6101 57.3818 34.8953 57.3818 34.0939C57.3818 33.2924 57.6411 32.5993 58.1812 32.1011C58.7213 31.5596 59.4343 31.2563 60.2768 31.2563C61.1194 31.2563 61.8324 31.5596 62.3725 32.1011C62.9126 32.6426 63.2151 33.3574 63.2151 34.0939C63.2151 34.8953 62.9126 35.5884 62.3725 36.1516ZM58.8942 35.5451C59.283 35.935 59.7367 36.1516 60.2985 36.1516C60.8602 36.1516 61.3355 35.9567 61.7027 35.5451C62.0916 35.1552 62.3077 34.6354 62.3077 34.0939C62.3077 33.5523 62.1132 32.9892 61.7027 32.6426C61.3139 32.2527 60.8602 32.0361 60.2985 32.0361C59.7367 32.0361 59.2614 32.231 58.8942 32.6426C58.5053 33.0325 58.2892 33.4874 58.2892 34.0939C58.2892 34.7004 58.4837 35.1986 58.8942 35.5451Z" fill="white"/>
<path d="M67.2119 36.9964C66.3693 36.9964 65.6132 36.7365 65.073 36.195C64.4681 35.6534 64.2305 34.9386 64.2305 34.1372C64.2305 33.2924 64.5329 32.6426 65.073 32.0794C65.678 31.5379 66.3693 31.278 67.2119 31.278C67.8168 31.278 68.3137 31.4296 68.7674 31.6246V32.4693C68.3137 32.1661 67.8168 32.0144 67.2119 32.0144C66.607 32.0144 66.1101 32.2094 65.7212 32.6209C65.3323 33.0108 65.1163 33.4657 65.1163 34.0722C65.1163 34.6787 65.3107 35.1769 65.7212 35.5235C66.1101 35.9134 66.6286 36.13 67.2767 36.13C67.9248 36.13 68.465 35.9783 68.9187 35.6318V36.4765C68.4218 36.8231 67.8816 36.9747 67.2335 36.9747L67.2119 36.9964Z" fill="white"/>
<path d="M72.6562 36.9964C71.8137 36.9964 71.0575 36.7365 70.5174 36.195C69.9125 35.6534 69.6748 34.9386 69.6748 34.1372C69.6748 33.2924 69.9773 32.6426 70.5174 32.0794C71.1223 31.5379 71.8137 31.278 72.6562 31.278C73.2612 31.278 73.7581 31.4296 74.2118 31.6246V32.4693C73.7581 32.1661 73.2612 32.0144 72.6562 32.0144C72.0513 32.0144 71.5544 32.2094 71.1655 32.6209C70.7766 33.0108 70.5606 33.4657 70.5606 34.0722C70.5606 34.6787 70.755 35.1769 71.1655 35.5235C71.5544 35.9134 72.0729 36.13 72.721 36.13C73.3692 36.13 73.9093 35.9783 74.363 35.6318V36.4765C73.8229 36.8231 73.2612 36.9747 72.6778 36.9747L72.6562 36.9964Z" fill="white"/>
<path d="M76.1341 36.9097H75.3779V31.4079H76.2853V35.4585L79.418 31.4079H80.2174V36.9097H79.31V32.8592L76.1125 36.9097H76.1341Z" fill="white"/>
<path d="M82.3782 36.9097H81.6221V31.4079H82.5295V35.4585L85.6621 31.4079H86.4615V36.9097H85.5541V32.8592L82.3566 36.9097H82.3782ZM84.0202 30.9964C83.6313 30.9964 83.2208 30.8448 82.9832 30.6498C82.7239 30.3899 82.5943 30.1083 82.5943 29.6967H83.3504C83.3504 29.8917 83.3936 30.0433 83.5449 30.1516C83.6961 30.3032 83.8473 30.3466 84.0418 30.3466C84.2362 30.3466 84.4307 30.3032 84.5387 30.1516C84.6899 30 84.7331 29.8484 84.7331 29.6967H85.4893C85.4893 30.0866 85.3381 30.3899 85.1004 30.6498C84.8411 30.9097 84.4955 30.9964 84.0634 30.9964H84.0202Z" fill="white"/>
<path d="M90.6094 36.9964C89.7668 36.9964 89.0106 36.7365 88.4705 36.195C87.8656 35.6534 87.6279 34.9386 87.6279 34.1372C87.6279 33.2924 87.9304 32.6426 88.4705 32.0794C89.0754 31.5379 89.7668 31.278 90.6094 31.278C91.2143 31.278 91.7112 31.4296 92.1649 31.6246V32.4693C91.7112 32.1661 91.2143 32.0144 90.6094 32.0144C90.0044 32.0144 89.5075 32.2094 89.1186 32.6209C88.7298 33.0108 88.5137 33.4657 88.5137 34.0722C88.5137 34.6787 88.7082 35.1769 89.1186 35.5235C89.5075 35.9134 90.026 36.13 90.6742 36.13C91.3223 36.13 91.8624 35.9783 92.3161 35.6318V36.4765C91.8192 36.8231 91.2791 36.9747 90.631 36.9747L90.6094 36.9964Z" fill="white"/>
<path d="M94.3039 36.9097H93.3965V31.4079H94.3039V33.6606L96.6588 31.4079H97.8038L95.1681 33.8989L98.2575 36.9097H97.0044L94.3039 34.2671V36.9097Z" fill="white"/>
<path d="M103.27 36.1516C102.73 36.6931 102.017 36.9531 101.174 36.9531C100.332 36.9531 99.6188 36.6931 99.0787 36.1516C98.5385 35.6101 98.2793 34.8953 98.2793 34.0939C98.2793 33.2924 98.5385 32.5993 99.0787 32.1011C99.6188 31.5596 100.332 31.2563 101.174 31.2563C102.017 31.2563 102.73 31.5596 103.27 32.1011C103.81 32.6426 104.113 33.3574 104.113 34.0939C104.069 34.8953 103.81 35.5884 103.27 36.1516ZM99.7268 35.5451C100.116 35.935 100.569 36.1516 101.131 36.1516C101.693 36.1516 102.168 35.9567 102.535 35.5451C102.924 35.1552 103.14 34.6354 103.14 34.0939C103.14 33.5523 102.946 32.9892 102.535 32.6426C102.147 32.2527 101.693 32.0361 101.131 32.0361C100.569 32.0361 100.094 32.231 99.7268 32.6426C99.3379 33.0325 99.1219 33.4874 99.1219 34.0939C99.1651 34.7004 99.3163 35.1986 99.7268 35.5451Z" fill="white"/>
<path d="M106.013 36.9097H105.214V31.4079H106.121V35.4585L109.254 31.4079H110.053V36.9097H109.146V32.8592L106.013 36.9097ZM107.612 30.9964C107.223 30.9964 106.813 30.8448 106.575 30.6498C106.316 30.3899 106.186 30.1083 106.186 29.6967H106.942C106.942 29.8917 106.985 30.0433 107.137 30.1516C107.288 30.3032 107.439 30.3466 107.634 30.3466C107.828 30.3466 108.022 30.3032 108.13 30.1516C108.282 30 108.325 29.8484 108.325 29.6967H109.081C109.081 30.0866 108.93 30.3899 108.692 30.6498C108.39 30.9097 108.087 30.9964 107.655 30.9964H107.612Z" fill="white"/>
<path d="M117.097 37.0614H116.189V36.4549C115.282 36.4116 114.591 36.1949 114.094 35.7617C113.64 35.3069 113.402 34.7653 113.402 34.1155C113.402 33.8123 113.446 33.509 113.597 33.2708C113.705 32.9675 113.899 32.7292 114.094 32.5126C114.288 32.2527 114.634 32.1227 115.001 31.9711C115.347 31.8195 115.8 31.7762 116.254 31.7112V31.1697H117.162V31.7112C117.615 31.7112 118.004 31.8195 118.415 31.9061C118.76 32.0578 119.063 32.2094 119.322 32.4477C119.581 32.6859 119.711 32.9025 119.819 33.2058C119.927 33.509 120.013 33.8123 120.013 34.0505C120.013 34.2888 119.97 34.657 119.819 34.8953C119.668 35.1552 119.516 35.4368 119.322 35.6534C119.063 35.9134 118.782 36.0433 118.415 36.1949C118.069 36.3466 117.615 36.3899 117.162 36.3899L117.118 37.0397L117.097 37.0614ZM116.189 35.6968V32.4477C115.584 32.4477 115.087 32.5993 114.785 32.9025C114.483 33.2058 114.331 33.5957 114.331 34.0505C114.331 34.5054 114.483 34.8953 114.785 35.1986C115.087 35.5018 115.584 35.6534 116.189 35.6968ZM117.097 32.4477V35.6968C117.745 35.6968 118.199 35.5451 118.501 35.2419C118.803 34.9386 118.955 34.5487 118.955 34.0939C118.955 33.639 118.803 33.2491 118.501 32.9459C118.199 32.5993 117.702 32.4477 117.097 32.4477Z" fill="white"/>
<path d="M125.112 36.9097H120.921V31.4079H125.004V32.2094H121.807V33.6173H124.399V34.4188H121.807V36.1733H125.091V36.9314L125.112 36.9097Z" fill="white"/>
<path d="M126.711 38.0578H125.868V36.1083H126.408C126.711 35.6534 126.948 35.1552 127.056 34.5487C127.208 33.9422 127.251 33.1408 127.251 32.1444V31.3863H131.032V36.13H131.831V38.0794H130.988V36.8881H126.646L126.689 38.0361L126.711 38.0578ZM127.359 36.0433H130.146V32.1011H128.093C128.093 33.0108 128.05 33.7906 127.899 34.3971C127.856 35.0903 127.64 35.6534 127.359 36.0433Z" fill="white"/>
<path d="M136.994 36.9097H132.803V31.4079H136.886V32.2094H133.689V33.6173H136.281V34.4188H133.689V36.1733H136.972V36.9314L136.994 36.9097Z" fill="white"/>
<path d="M138.896 36.9097H137.988V31.4079H140.473C141.078 31.4079 141.575 31.5596 141.877 31.8628C142.223 32.1661 142.417 32.5559 142.417 33.0108C142.417 33.4657 142.223 33.8556 141.877 34.2022C141.531 34.5054 141.078 34.657 140.473 34.657H138.874V36.9097H138.896ZM138.896 32.1444V33.7906H140.386C140.732 33.7906 140.991 33.6823 141.186 33.5957C141.38 33.444 141.488 33.2491 141.488 32.9892C141.488 32.7292 141.38 32.5343 141.186 32.3827C140.991 32.231 140.732 32.1877 140.386 32.1877L138.896 32.1444Z" fill="white"/>
<path d="M143.216 36.9098H142.266L144.75 31.3646H145.593L148.077 36.9098H147.127L146.479 35.5668H143.778L143.173 36.9098H143.216ZM145.225 32.4043L144.188 34.7004H146.284L145.247 32.4043H145.225Z" fill="white"/>
<path d="M154.494 38.0578H153.651V36.8664H149.071V31.3646H149.979V36.1083H152.766V31.3646H153.673V36.1083H154.472V38.0578H154.516H154.494Z" fill="white"/>
<path d="M156.201 36.9097H155.444V31.4079H156.352V35.4585L159.484 31.4079H160.284V36.9097H159.376V32.8592L156.179 36.9097H156.201Z" fill="white"/>
<path d="M162.423 36.9097H161.667V31.4079H162.574V35.4585L165.707 31.4079H166.506V36.9097H165.599V32.8592L162.402 36.9097H162.423Z" fill="white"/>
<path d="M33.6596 35.8051C33.5084 35.8051 33.4004 35.9134 33.4004 36.065C33.4004 36.2166 33.5084 36.3249 33.6596 36.3249C33.8109 36.3249 33.9189 36.2166 33.9189 36.065C33.9189 35.9567 33.8109 35.8051 33.6596 35.8051Z" fill="white"/>
<path d="M34.5029 38.2527C34.5029 38.4043 34.611 38.5126 34.7622 38.5126C34.9134 38.5126 35.0214 38.4043 35.0214 38.2527C35.0214 38.1011 34.9134 37.9928 34.7622 37.9928C34.611 37.9928 34.5029 38.1011 34.5029 38.2527Z" fill="white"/>
<path d="M33.6596 37.9928C33.5084 37.9928 33.4004 38.1011 33.4004 38.2527C33.4004 38.4043 33.5084 38.5126 33.6596 38.5126C33.8109 38.5126 33.9189 38.4043 33.9189 38.2527C33.9189 38.1011 33.8109 37.9928 33.6596 37.9928Z" fill="white"/>
<path d="M35.6045 38.2527C35.6045 38.4043 35.7125 38.5126 35.8637 38.5126C36.015 38.5126 36.123 38.4043 36.123 38.2527C36.123 38.1011 36.015 37.9928 35.8637 37.9928C35.7125 37.9928 35.6045 38.1011 35.6045 38.2527Z" fill="white"/>
<path d="M33.2928 33.3574L33.3576 34.0072L32.7959 33.9422V34.657L33.3576 34.5487L33.2928 35.1985H34.0058L33.9409 34.5487L34.5027 34.657V33.9422L33.9409 34.0072L34.0058 33.3574H33.2928Z" fill="white"/>
<path d="M34.0918 35.6101V37.8628H36.2306C36.0794 36.7148 35.1936 35.8051 34.0918 35.6101Z" fill="white"/>
<path d="M33.6596 36.9098C33.5084 36.9098 33.4004 37.0181 33.4004 37.1697C33.4004 37.3213 33.5084 37.4296 33.6596 37.4296C33.8109 37.4296 33.9189 37.3213 33.9189 37.1697C33.9189 37.0181 33.8109 36.9098 33.6596 36.9098Z" fill="white"/>
<path d="M34.5462 39.7473C34.5462 39.7473 34.2869 40.2888 34.503 40.7004C34.611 40.8953 34.8054 41.0036 34.9999 40.9603C35.1943 40.917 35.2591 40.7004 35.2591 40.6137C35.2159 40.1588 34.8702 39.7689 34.5678 39.7689L34.5462 39.7473Z" fill="white"/>
<path d="M32.7526 39.7473C32.4502 39.7473 32.1045 40.1372 32.1045 40.5921C32.1045 40.7437 32.1477 40.8953 32.3637 40.9386C32.5798 40.982 32.7526 40.8953 32.8607 40.6787C32.9687 40.2888 32.8174 39.7256 32.7526 39.7256V39.7473Z" fill="white"/>
<path d="M33.6601 39.444C33.4657 39.444 32.8607 40.592 33.3144 41.1336C33.4225 41.2419 33.5089 41.2852 33.6601 41.2852C33.8113 41.2852 33.9626 41.2419 34.0058 41.1336C34.3947 40.592 33.8545 39.444 33.6601 39.444Z" fill="white"/>
<path d="M31.0024 38.2527C31.0024 37.9928 31.0456 37.7978 31.0456 37.7978H33.1845V36V35.5451C32.1474 35.7401 31.2833 36.5415 31.0456 37.6029C31.0024 37.7112 30.7864 37.7545 30.6567 37.7112C29.8574 37.6029 28.2586 37.3213 28.2586 36.9531C28.2586 36.4549 28.6043 36.2599 28.9068 36.2599C29.3605 36.2599 29.8574 36.5199 30.2462 35.9134C28.7987 35.9567 29.9006 33.8556 28.6907 33.4657C28.7339 34.0072 28.6907 34.9603 28.4963 35.4585C28.4963 35.4585 28.0426 35.0036 27.5889 34.8087C27.6321 35.1985 27.5457 36 27.3944 36.4115C27.3944 36.4115 26.8975 35.9134 26.3574 35.7617C26.8543 36.4549 26.8543 37.5162 26.7031 38.1227C26.6599 38.3177 26.8111 38.5126 27.1568 38.5126C27.7617 38.4693 29.7493 38.5559 30.5919 38.9025C30.8512 39.0108 31.0888 39.1624 31.1968 39.3574C31.3049 39.6173 31.4993 40.0072 31.8018 40.2022C31.953 39.7473 32.4499 39.2491 32.7956 39.2924C32.9036 39.2924 32.99 39.4874 33.0548 39.639C33.098 39.4874 33.3573 39.0325 33.5949 39.0325C33.8326 39.0325 34.0919 39.3791 34.1999 39.6823C34.2431 39.4874 34.3511 39.2924 34.4591 39.2924C34.8048 39.2924 35.2585 39.5957 35.4097 40.1372C35.561 39.9856 36.1659 39.1841 36.2091 38.6426H31.024C31.024 38.6426 31.024 38.491 31.024 38.2527H31.0024Z" fill="white"/>
<path d="M32.2988 38.2527C32.2988 38.4043 32.4069 38.5126 32.5581 38.5126C32.7093 38.5126 32.8173 38.4043 32.8173 38.2527C32.8173 38.1011 32.7093 37.9928 32.5581 37.9928C32.4069 37.9928 32.2988 38.1011 32.2988 38.2527Z" fill="white"/>
<path d="M31.2617 38.2527C31.2617 38.4043 31.3697 38.5126 31.521 38.5126C31.6722 38.5126 31.7802 38.4043 31.7802 38.2527C31.7802 38.1011 31.6722 37.9928 31.521 37.9928C31.3697 37.9928 31.2617 38.1011 31.2617 38.2527Z" fill="white"/>
<path d="M10.6084 39.3574C10.6084 39.3574 10.3059 40.0072 10.4139 40.3538C10.4571 40.5054 10.522 40.5487 10.6732 40.5487C10.8244 40.5487 10.8676 40.4404 10.9324 40.2888C10.9757 39.9423 10.738 39.3791 10.63 39.3358L10.6084 39.3574Z" fill="white"/>
<path d="M12.4441 40.8953C12.336 41.0469 12.1848 41.0903 12.1416 41.1552C12.1848 41.1986 12.336 41.3069 12.4873 41.3069C12.5953 41.3069 12.6817 41.2635 12.7465 41.1986C12.8978 40.8953 12.7465 40.657 12.7033 40.5487C12.6601 40.657 12.5953 40.8087 12.4441 40.8953Z" fill="white"/>
<path d="M11.7527 40.2022C11.9472 40.0072 12.012 39.8556 11.9472 39.7473C11.904 39.5957 11.4503 39.1408 10.9534 38.5993C10.9534 38.7076 10.9102 38.7942 10.9102 38.9025C11.2558 39.4007 11.4071 39.8989 11.299 40.3538C11.299 40.3538 11.335 40.3682 11.4071 40.3971C11.4071 40.3971 11.6663 40.3538 11.7527 40.2022Z" fill="white"/>
<path d="M12.4441 40.2455C12.4441 40.2455 12.4441 40.0939 12.4009 40.0505H12.3577C12.3577 40.0505 12.2497 40.1588 12.2065 40.2022C12.1633 40.2455 12.0985 40.3538 12.012 40.4621C11.904 40.5704 11.8608 40.6137 11.7528 40.722C11.6448 40.7653 11.6016 40.8736 11.6016 40.917V40.9603C11.6016 40.9603 11.6448 41.0036 11.7096 41.0036C11.7744 41.0036 11.904 40.9603 12.1633 40.7004C12.4225 40.4404 12.4657 40.3538 12.4657 40.2455H12.4441Z" fill="white"/>
<path d="M9.16076 37.6029C9.16076 37.6029 9.11755 37.6462 9.05273 37.7545C9.16076 37.7545 9.31199 37.7545 9.39841 37.7978V37.4513C9.39841 37.4513 9.20397 37.5596 9.13915 37.6029H9.16076Z" fill="white"/>
<path d="M10.5001 37.7545C10.5001 37.7545 11.5371 38.6643 11.9044 39.0108C12.0124 39.1191 12.0988 39.1191 12.2068 39.0542C12.25 39.0108 12.3581 39.0108 12.4661 38.9459C13.5031 38.5993 15.2099 38.556 15.8148 38.556C16.2037 38.556 16.3117 38.361 16.2685 38.1661C16.1605 37.5596 16.1173 36.5199 16.6142 35.8051C16.074 36 15.5771 36.4549 15.5771 36.4549C15.3827 36.1083 15.3179 35.2635 15.3827 34.852C14.8858 35.0036 14.4753 35.5018 14.4753 35.5018C14.2809 35.0036 14.2161 34.0505 14.2809 33.509C13.0926 33.8989 14.1728 36.065 12.7253 35.9567C13.1142 36.5632 13.6327 36.3033 14.0648 36.3033C14.3673 36.3033 14.7562 36.4982 14.713 36.9964C14.6698 37.343 12.7253 37.7545 11.926 37.7545C11.3859 37.7545 10.9754 37.6029 10.7377 37.213C10.5865 37.0181 10.4785 36.9531 10.3488 36.9531C10.1544 36.9964 9.95996 37.148 9.95996 37.6462C9.95996 37.9495 10.1112 38.6426 10.4569 38.6426C10.6513 38.6859 10.6513 38.1011 10.5649 37.7329L10.5001 37.7545Z" fill="white"/>
<path d="M8.51187 37.4513H8.6631C8.51187 37.6462 8.51187 37.7978 8.55508 37.8412C8.6631 37.9495 8.70631 37.7329 8.94396 37.4946C9.18161 37.2563 9.33284 37.148 9.28963 37.0397C9.24642 36.9964 9.09519 36.9964 8.90075 37.148C8.90075 37.1047 8.94396 37.0397 8.90075 36.9964C8.79273 36.7365 8.44706 36.4549 8.20941 36.4549H8.10138C8.20941 36.3033 8.14459 36.195 8.10138 36.1083C8.05817 36.065 7.99336 36.1083 7.90694 36.2166C7.90694 36.1733 7.90694 36.065 7.86373 35.9567C7.56127 35.4585 5.87611 33.8556 5.46563 33.704C5.20637 33.5957 5.16316 33.7473 5.16316 33.7473C5.16316 33.7473 5.01193 33.8556 5.11995 34.0505C5.27119 34.4404 6.91313 36.1083 7.36683 36.4116C7.47485 36.4549 7.56127 36.5199 7.62608 36.4549C7.51806 36.5632 7.47485 36.5632 7.58287 36.6498C7.62608 36.6931 7.73411 36.7581 7.88534 36.6498V36.7581C7.99336 36.9531 8.27422 37.3646 8.53347 37.4513H8.51187Z" fill="white"/>
<path d="M9.72216 38.6426C9.72216 38.491 9.4197 38.1877 9.03081 38.1877C8.4907 38.1877 8.23145 38.5343 8.23145 38.7292C8.23145 39.0758 8.57712 39.1191 8.68514 39.1191C9.03081 39.1191 9.67895 38.7292 9.72216 38.6209V38.6426Z" fill="white"/>
<path d="M9.20325 39.509C9.05201 39.704 9.0088 39.8989 9.05201 40.0505C9.09522 40.2455 9.31127 40.3538 9.50571 40.3538C9.70015 40.3538 9.89459 40.2455 10.0026 40.0938C10.1971 39.7473 10.1971 38.9892 10.1538 38.9458C9.9594 38.9458 9.4625 39.1408 9.20325 39.4873V39.509Z" fill="white"/>
<path d="M4.32062 31.7112C4.16939 31.5596 3.82371 31.8195 3.62927 31.6679C3.73729 31.1697 4.08297 31.6679 4.38543 31.3646C4.53666 31.213 4.42864 31.018 4.38543 30.9747C4.2342 31.1264 4.03976 31.083 3.99655 30.9747C4.34222 30.065 3.65088 29.1336 2.95953 29.2202C3.11076 29.4152 3.15397 30.065 3.06755 30.2166C3.32681 30.4115 3.17558 30.8664 2.87311 30.7148C2.67867 30.6065 2.333 30.1083 2.72188 29.8051C2.72188 29.6534 2.46263 29.6534 2.26819 29.9567C2.41942 29.4152 1.36079 29.5668 1.16635 29.6967C1.05833 29.9567 0.907099 30.9964 1.46882 30.8014C1.16635 31.0614 1.20956 31.2996 1.31759 31.2996C1.66326 30.9097 2.11695 31.1913 2.22498 31.4079C2.37621 31.7112 1.92251 31.9061 1.72807 31.6679C1.57684 31.7112 0.928704 31.7112 0.777472 31.5596C0.669449 32.2527 1.68486 33.0108 2.52744 32.5993C2.63546 32.5993 2.67867 32.8592 2.52744 32.9892C2.57065 33.0975 2.8299 33.1408 2.91632 32.9892C3.26199 32.6426 2.76509 32.296 3.21879 32.1877C3.32681 32.3827 3.11076 32.7292 3.26199 32.8809C3.52125 33.1408 3.80211 32.6209 4.16939 32.6209C4.16939 32.231 4.62308 31.9278 4.36383 31.6679L4.32062 31.7112ZM1.72807 30.5632C1.72807 30.5632 1.57684 30.4549 1.77128 30.2166C1.96572 30.0217 2.07374 30.1733 2.07374 30.1733C2.07374 30.1733 2.26819 30.5632 2.333 30.7798C2.13856 30.7798 1.72807 30.5848 1.72807 30.5848V30.5632ZM3.32681 31.7978C3.32681 31.7978 2.98114 32.0578 2.87311 31.9061L2.333 31.3646L2.63546 31.0614L2.93793 30.7581L3.47804 31.2996C3.52125 31.4513 3.32681 31.6895 3.32681 31.7978Z" fill="white"/>
<path d="M4.47178 32.7076C4.47178 32.7076 4.36376 32.7076 4.32055 32.7509C4.27734 32.7942 4.27734 32.9025 4.27734 33.0108C4.27734 33.1191 4.38537 33.2058 4.47178 33.3141C4.51499 33.4657 4.66623 33.509 4.77425 33.509C4.81746 33.509 4.88227 33.509 4.92548 33.4657C5.0335 33.3574 4.96869 33.0758 4.81746 32.9242C4.70943 32.8159 4.5582 32.7292 4.47178 32.7292V32.7076Z" fill="white"/>
<path d="M2.87375 31.0614L2.72252 31.213L2.57129 31.3646C2.57129 31.3646 2.87375 31.7545 3.1114 31.6245C3.26263 31.3646 2.85215 31.083 2.85215 31.083L2.87375 31.0614Z" fill="white"/>
<path d="M31.9966 29.5451C31.9966 29.5451 31.6077 29.8484 31.3052 29.2852C31.0028 29.2419 30.7003 29.1336 30.5059 29.0253C30.8515 29.7184 31.154 30.3249 31.6509 30.6282C32.4071 31.083 33.5521 30.9747 33.8978 30.4765C33.2496 30.13 32.4935 29.2202 32.1046 28.3755C31.9966 28.5704 31.8453 28.917 31.7589 29.1769C31.8021 29.2852 31.9102 29.4368 32.0182 29.5235L31.9966 29.5451Z" fill="white"/>
<path d="M38.9314 18.6065C39.7307 18.2599 40.8758 17.4585 41.4159 16.9603C41.4591 17.0686 41.6751 17.5018 41.0702 18C40.6165 18.3466 39.7307 18.8014 39.0826 19.0397C38.7801 19.4946 38.1752 19.9928 37.3974 20.5343C38.9962 20.2744 40.8974 19.6245 41.8264 18.7364C43.5763 16.9819 42.6689 14.8809 42.4313 14.3827C41.2862 15.8339 39.0826 17.3285 37.0518 18.13C37.7431 18.2383 38.4561 18.3899 38.953 18.5848L38.9314 18.6065Z" fill="white"/>
<path d="M37.6352 15.4007C38.6722 14.556 39.7741 12.8448 39.9901 12.2599C40.2494 12.4116 40.3358 12.9098 40.0333 13.4513C39.4932 14.4043 38.4778 15.2491 37.6352 15.9422C37.592 16.5487 37.3327 17.2852 37.0303 17.8484C38.2833 17.0036 39.7308 15.7473 40.379 14.9025C41.2216 13.7978 41.5672 12.6931 41.416 11.6101C41.4592 10.3538 40.5734 9.11914 40.2277 8.81589C39.9685 10.1588 38.629 12.4765 37.4408 13.7762C37.5488 14.2311 37.6352 14.8809 37.6352 15.4224V15.4007Z" fill="white"/>
<path d="M36.8357 23.3068C37.095 23.6101 37.3326 23.9567 37.5271 24.2599C38.4777 24.4549 39.6227 24.4115 39.6227 24.4115C39.6227 24.4115 39.5795 24.9097 38.9314 24.9531C38.6289 24.9531 37.7431 24.8014 37.3758 24.6931C37.2246 24.7364 36.5333 24.9531 35.8203 25.0397C36.8141 25.3863 38.2616 25.7328 39.169 25.7328H39.4283C40.8758 25.5812 41.6319 24.2383 41.6751 23.4801C41.2215 23.5884 40.4869 23.6318 39.7307 23.6318C39.0394 23.6318 37.7863 23.5884 36.8357 23.2852V23.3068Z" fill="white"/>
<path d="M42.8856 19.4946C41.5893 20.1877 39.2992 20.9025 37.4412 20.9025C37.8949 21.2058 38.3486 21.509 38.6295 21.8123C39.3856 21.769 40.4227 21.509 41.0276 21.3141C41.0276 21.4224 41.0276 21.9206 40.3362 22.1155C39.8393 22.2672 39.148 22.2672 38.5863 22.2672C38.1326 22.5704 37.4844 22.8087 36.9443 23.0253C37.4412 23.0686 38.0894 23.1336 38.6295 23.1336C39.5801 23.1336 40.4659 23.0253 41.0276 22.8303C41.5245 22.6787 43.1664 21.9856 42.864 19.5379L42.8856 19.4946Z" fill="white"/>
<path d="M35.8855 26.4043C36.4256 26.6643 37.0305 26.8592 37.5274 26.9025C37.5274 26.9025 37.4194 27.4007 36.6849 27.2924C36.2312 27.2491 35.7343 26.9025 35.6478 26.8376C35.3022 26.8809 34.6108 26.8809 34.3516 26.8376C35.1941 27.4441 36.4904 28.1372 37.5922 28.2455H37.7435C38.8885 28.2455 39.7959 27.0975 40.0336 26.556C38.8885 26.556 36.9009 26.0578 35.691 25.408C35.7343 25.6029 35.8423 26.0145 35.8855 26.4043Z" fill="white"/>
<path d="M33.8973 27.9422C34.1998 28.2888 34.6967 28.4838 34.6967 28.4838C34.6967 28.4838 34.5455 28.7437 34.243 28.7437C34.135 28.7437 34.0486 28.7004 33.9405 28.6354C33.7461 28.5271 33.4436 28.1805 33.4436 28.1805C33.0547 28.1372 32.6875 28.0722 32.3418 27.9856C32.9467 28.7437 33.9405 29.6751 35.0424 29.935C35.1936 29.9783 35.3448 29.9784 35.5393 29.9784C36.4899 29.9784 37.2892 29.2852 37.4837 28.8303C36.3818 28.6787 34.7831 27.8339 33.9837 27.0325C33.9837 27.3358 33.9405 27.6823 33.8757 27.9422H33.8973Z" fill="white"/>
<path d="M26.7677 40.2022C27.3078 40.2022 27.6751 40.0072 27.9128 39.4441C27.1566 39.7906 26.3572 39.5957 24.8665 39.1408C24.8665 39.1408 24.3264 39.4007 23.9591 39.4441C24.8665 39.704 26.1628 40.1372 26.3572 40.6354C26.4653 41.0253 26.206 41.1336 26.206 41.1336C25.7091 40.5271 25.1042 40.1805 23.8079 39.7906C23.8079 40.0506 23.7647 40.1805 23.7647 40.1805C23.7647 40.1805 23.5054 40.2238 22.9221 40.1372C23.419 40.5271 24.6073 41.5885 24.7585 42.6932C24.8665 43.4513 24.3048 43.4946 24.3048 43.4946C24.2616 42.3466 23.7647 41.6534 22.6629 40.4838C22.6629 40.4838 22.4684 40.7437 22.274 40.8737C22.274 40.8737 21.8851 40.8303 21.5826 40.5704C21.7339 42.065 21.7771 45.6607 21.6906 46.2238C21.6474 46.6137 21.3882 46.8303 21.3882 46.8303C21.3882 46.8303 21.1289 46.6787 21.0857 46.2238C20.9777 45.6173 21.0857 42.0217 21.1937 40.5704C20.8481 40.7654 20.5024 40.8737 20.5024 40.8737C20.2431 40.722 20.1135 40.4838 20.1135 40.4838C19.0765 41.6318 18.558 42.3899 18.4716 43.4946C18.4716 43.4946 17.9747 43.4513 18.0179 42.6932C18.1691 41.5885 19.3574 40.5488 19.8543 40.1372C19.3141 40.2455 19.0117 40.1805 19.0117 40.1805C19.0117 40.1805 18.9685 40.0289 18.9685 39.7906C17.6722 40.1805 17.1321 40.5488 16.5704 41.1336C16.5704 41.1336 16.3111 41.0903 16.4191 40.6354C16.6136 40.1372 17.9099 39.7256 18.8172 39.4441C18.5148 39.4007 17.9099 39.1408 17.9099 39.1408C16.4623 39.5957 15.6198 39.7906 14.8636 39.4441C15.0581 39.9856 15.4685 40.2022 16.0087 40.2022C15.3173 40.4621 14.6692 41.1552 14.4531 41.8484C14.95 43.6895 16.5488 44.2527 16.5488 44.2527C16.1599 43.343 16.2895 41.6101 18.6876 40.3971C17.2401 41.8484 16.6352 43.1914 17.0457 44.4477C17.3913 45.5957 18.6012 46.0506 19.4438 46.0939C18.8388 44.1877 19.0981 42.4332 20.3944 41.0903C19.8543 42.5849 19.0549 47.2419 21.3018 48C23.5486 47.2419 22.7493 42.6065 22.2092 41.0903C23.5054 42.4982 23.7647 44.1877 23.1598 46.0939C24.0671 46.0939 25.2122 45.5957 25.5579 44.4477C25.9467 43.1914 25.4066 41.8484 23.9159 40.3971C26.314 41.5885 26.4653 43.408 26.0548 44.2527C26.0548 44.2527 27.6535 43.7112 28.1504 41.8484C28.1504 41.1552 27.4591 40.5054 26.8109 40.2022H26.7677Z" fill="white"/>
<path d="M11.2995 30.6498C11.7964 30.3466 12.0989 29.7401 12.4445 29.0469C12.2501 29.1552 11.9476 29.2419 11.6452 29.3068C11.3427 29.8484 10.9538 29.6534 10.9538 29.5668C11.0618 29.4585 11.1483 29.3068 11.2131 29.2202C11.105 28.9603 10.9538 28.6137 10.8674 28.4188C10.4785 29.3285 9.67915 30.1733 9.07422 30.5198C9.41989 31.018 10.5649 31.1263 11.3211 30.6715L11.2995 30.6498Z" fill="white"/>
<path d="M5.53094 20.5559C4.68836 20.0144 4.12664 19.5162 3.84578 19.0614C3.15443 18.8014 2.24704 18.3682 1.85816 18.0216C1.25323 17.5235 1.46928 17.0686 1.51249 16.9819C2.00939 17.5235 3.15444 18.2816 3.99701 18.6281C4.49392 18.4332 5.18526 18.2816 5.89821 18.1733C3.84578 17.4151 1.66372 15.8772 0.51868 14.4693C0.259425 14.9242 -0.66957 17.0686 1.12361 18.8231C2.031 19.6679 3.97541 20.3177 5.55254 20.5776L5.53094 20.5559Z" fill="white"/>
<path d="M5.87691 17.8051C5.57445 17.2636 5.3368 16.5487 5.27199 15.8989C4.42941 15.2491 3.47881 14.4043 2.87388 13.408C2.57142 12.8664 2.67944 12.3682 2.91709 12.2166C3.11153 12.8231 4.21336 14.5126 5.27199 15.3574C5.27199 14.8159 5.38001 14.1661 5.53124 13.7112C4.34299 12.4116 2.9387 10.1155 2.74425 8.75092C2.39858 9.05416 1.49119 10.3105 1.556 11.5451C1.40477 12.6498 1.75045 13.7545 2.59302 14.8376C3.19795 15.6823 4.64546 16.982 5.87691 17.7834V17.8051Z" fill="white"/>
<path d="M5.37928 24.2599C5.53051 23.9567 5.83297 23.6101 6.07062 23.3069C5.12002 23.5668 3.86696 23.6101 3.21882 23.6101C2.41946 23.6101 1.6633 23.5668 1.27441 23.4585C1.31762 24.2599 2.07378 25.6029 3.52129 25.7112H3.78054C4.68793 25.7112 6.13544 25.3646 7.12925 25.018C6.4379 24.9097 5.72495 24.7581 5.57372 24.6715C5.18484 24.8664 4.27745 25.018 3.97498 24.9747C3.32685 24.9314 3.28364 24.4332 3.28364 24.4332C3.28364 24.4332 4.42868 24.4765 5.37928 24.2816V24.2599Z" fill="white"/>
<path d="M1.87926 22.852C2.41938 23.0469 3.28356 23.1552 4.27737 23.1552C4.88229 23.1552 5.46562 23.1119 5.96252 23.0469C5.42241 22.852 4.77427 22.592 4.32058 22.2888C3.78046 22.2888 3.0243 22.2455 2.57061 22.1372C1.87926 21.9422 1.87926 21.444 1.87926 21.3357C2.48419 21.5957 3.52121 21.8339 4.27737 21.8339C4.57983 21.574 4.96871 21.2274 5.46562 20.9242C3.67244 20.9242 1.31754 20.231 0.0212703 19.5162C-0.281193 21.9206 1.36075 22.6137 1.85766 22.8087L1.87926 22.852Z" fill="white"/>
<path d="M5.22844 28.2022H5.37967C6.4815 28.0939 7.77777 27.4007 8.62035 26.7942C8.3611 26.8375 7.62654 26.8375 7.32408 26.7942C7.21606 26.9025 6.67594 27.1841 6.28706 27.2491C5.48769 27.3574 5.44448 26.8592 5.44448 26.8592C5.94139 26.8159 6.54632 26.5993 7.08643 26.361C7.12964 25.9711 7.23766 25.5596 7.34568 25.3213C6.09262 26.0144 4.105 26.5126 2.95996 26.5126C3.21922 27.0541 4.105 28.2022 5.25004 28.2022H5.22844Z" fill="white"/>
<path d="M7.36738 30C7.51861 30 7.71305 30 7.86429 29.9567C8.9013 29.6967 9.95993 28.7653 10.5649 28.0072C10.2192 28.1155 9.87351 28.2022 9.46302 28.2022C9.46302 28.2022 9.20377 28.5054 8.96612 28.657C8.8581 28.7003 8.77168 28.7653 8.66365 28.7653C8.36119 28.7653 8.20996 28.5054 8.20996 28.5054C8.20996 28.5054 8.70686 28.2455 9.00933 27.9639C8.96612 27.704 8.9013 27.3574 8.9013 27.0541C8.05873 27.8989 6.5032 28.7003 5.40137 28.852C5.59581 29.3068 6.35197 30 7.34578 30H7.36738Z" fill="white"/>
<path d="M21.043 2.6426C21.043 2.90253 21.2374 3.03249 21.4319 3.03249C21.6263 3.03249 21.8207 2.83754 21.8207 2.6426C21.8207 2.38267 21.6263 2.25271 21.4319 2.25271C21.2374 2.20938 21.043 2.40433 21.043 2.6426Z" fill="white"/>
<path d="M21.1729 1.75451H21.7346L21.6914 1.03971L22.2748 1.14801V0.606498L21.6914 0.649819L21.7346 0H21.1729L21.2377 0.649819L20.6328 0.606498V1.14801L21.2377 1.03971L21.1729 1.75451Z" fill="white"/>
<path d="M19.2279 8.36102C19.2279 8.36102 19.3791 8.40434 19.4223 8.40434H23.4192C23.4192 8.40434 23.5704 8.40434 23.6136 8.36102C23.7648 8.3177 23.808 8.20939 23.8729 8.05777H18.9902C19.0334 8.25272 19.1415 8.3177 19.2495 8.36102H19.2279Z" fill="white"/>
<path d="M23.6357 7.75452L23.6789 7.71119V7.40795L23.6357 7.36462H19.2932L19.25 7.40795V7.71119L19.2932 7.75452H23.6357Z" fill="white"/>
<path d="M24.0671 6.9964C24.1751 6.84478 24.7152 5.80507 24.7152 4.70038C24.7152 3.70399 23.4622 3.14081 22.7708 3.14081C22.6628 4.54875 22.1227 6.73648 21.4314 6.73648C20.7832 6.73648 20.1783 4.52709 20.0919 3.14081C19.3357 3.14081 18.1475 3.68232 18.1475 4.70038C18.1475 5.80507 18.6876 6.90976 18.7956 6.9964H24.0887H24.0671Z" fill="white"/>
<path d="M21.4318 6.04333C21.7775 6.04333 22.188 5.00361 22.3392 3.94224C22.3392 3.7473 21.9935 3.44405 21.4318 3.40073C20.8917 3.40073 20.5244 3.70398 20.5244 3.94224C20.6756 4.89531 21.1293 6.04333 21.4318 6.04333Z" fill="white"/>
<path d="M27.7617 22.4621C27.7617 22.3105 27.6537 22.2022 27.5025 22.2022H15.3823C15.2311 22.2022 15.123 22.3105 15.123 22.4621V30.9098C15.123 30.9098 15.123 31.3646 15.3175 31.8628C15.5767 32.4693 16.6138 33.4657 17.91 34.1589C19.7464 35.1119 20.8483 35.8484 21.41 36.3033C21.9501 35.8484 23.0519 35.1119 24.9099 34.1589C26.2494 33.4657 27.2648 32.4693 27.5025 31.8628C27.7617 31.3213 27.6969 30.9098 27.6969 30.9098L27.7401 22.4621H27.7617ZM23.6784 25.4946V25.5379C23.8297 26.1444 23.9809 26.7942 24.0241 27.3791C24.521 27.769 24.9747 28.1805 25.3636 28.5704C26.1198 27.7256 26.5086 26.9242 26.5086 26.2744C26.163 26.2744 25.8605 25.9711 25.8605 25.6246C25.8605 25.4729 25.9037 25.3646 25.9685 25.278C25.6229 25.1264 25.2124 25.083 24.8667 25.083C24.5642 25.083 24.2618 25.1264 23.9161 25.1913H23.8729L23.7649 25.2347L23.8081 25.1913C23.8081 25.1913 23.8513 25.0397 23.9161 24.9314C24.9099 24.7365 25.7093 24.8231 26.2062 25.1264C26.3142 25.083 26.4006 25.0181 26.5086 25.0181C26.8543 25.0181 27.1568 25.3213 27.1568 25.6679C27.1568 25.9278 27.0055 26.1228 26.8111 26.2094C26.8111 26.9025 26.4222 27.8123 25.558 28.8087L25.7093 28.9603L25.8173 29.0686V29.1119L25.6661 29.2636H25.558C25.558 29.2636 25.5148 29.2202 25.5148 29.1552C25.4716 29.1119 25.4716 29.0469 25.4068 29.0036L25.1043 29.3069L24.9963 29.4585C24.8451 29.5668 24.6939 29.6101 24.6074 29.5668H24.5642L24.6074 29.5235C24.8667 29.3285 25.0611 29.0686 25.2556 28.917C24.9531 28.5704 24.5642 28.2238 24.1537 27.8773C24.197 28.2238 24.197 28.5704 24.197 28.917C24.197 29.2202 24.197 29.5668 24.1537 29.9134C24.1537 29.9134 24.0025 30.0217 23.9593 30.065L23.9161 30.1083V30.065C23.9593 29.6751 23.9593 29.2636 23.9593 28.917V28.4621C23.9593 28.2022 23.9161 27.509 23.8513 27.0542C23.8081 26.6643 23.7001 26.2527 23.592 25.8628V25.8195L23.7433 25.6679L23.6352 25.4729L23.6784 25.4946ZM19.5952 24.6065C20.0921 23.4152 20.7834 22.7654 21.4964 22.7654C22.2093 22.7654 22.9007 23.4152 23.3976 24.6065V24.6498H23.3544C23.3544 24.6498 23.2464 24.6932 23.1599 24.7581H23.1167V24.7148C22.663 23.6751 22.0797 23.0686 21.4748 23.0686C20.8699 23.0686 20.2865 23.6751 19.8328 24.7148V24.7581H19.7896C19.7896 24.7581 19.6384 24.6498 19.6384 24.6065H19.5952ZM19.3791 24.9098C19.5304 25.0181 19.9841 25.2563 20.481 25.1047C20.9347 24.9531 21.4316 24.9531 21.4316 24.9531C21.4316 24.9531 21.9717 24.9531 22.3822 25.1047C22.8791 25.2563 23.3328 24.9964 23.484 24.9098C23.484 24.9098 23.4984 24.9242 23.5272 24.9531C23.484 25.148 23.3328 25.6462 22.5766 25.8628C21.8853 26.0145 21.5396 26.8159 21.4316 27.1625C21.4316 27.2058 21.3884 27.2058 21.3236 27.1625C21.2155 26.8159 20.8699 26.0145 20.1785 25.8628C19.4224 25.7112 19.2711 25.1697 19.2279 24.9531C19.3359 24.9098 19.3791 24.9098 19.3791 24.9098ZM20.589 26.9025C20.589 26.9025 20.8483 26.8592 20.9347 26.7942C20.9779 26.9025 21.0427 27.0542 21.0859 27.1408C20.9347 27.2491 20.7834 27.2924 20.589 27.2924C20.0489 27.2924 19.6384 26.8376 19.6384 26.3394C19.6384 26.1877 19.6816 26.0794 19.7464 25.9928C19.8544 26.0361 19.9409 26.1011 20.0921 26.1444C20.0489 26.1877 20.0489 26.296 20.0489 26.3394C20.0057 26.6426 20.3081 26.8809 20.589 26.8809V26.9025ZM20.3297 26.296V26.1877C20.481 26.2311 20.6322 26.3827 20.7186 26.491C20.6754 26.5343 20.6106 26.5343 20.5674 26.5343C20.4162 26.5343 20.3081 26.426 20.3081 26.2744L20.3297 26.296ZM20.589 27.5957C20.7834 27.5957 21.0427 27.5524 21.2371 27.4007C21.2803 27.4441 21.3884 27.6607 21.4316 27.6607C21.5396 27.6607 21.5828 27.4657 21.626 27.4007C21.8205 27.509 22.0797 27.5957 22.2742 27.5957C22.6198 27.5957 22.9223 27.4441 23.1815 27.2491V27.2924C23.2896 27.6823 23.3328 28.2022 23.2896 28.3971C23.2896 28.5921 23.1815 28.787 23.1383 29.0036C23.0303 29.2636 22.9871 29.4585 22.9871 29.4585C22.9871 29.4585 22.9871 29.5018 22.9439 29.6101C22.9007 29.8051 22.7495 30.1516 22.555 30.5199C22.1661 30.2599 21.7556 30.1733 21.2587 30.1733C20.805 30.1733 20.4162 30.2816 20.0705 30.4765C19.9193 30.13 19.768 29.8267 19.7248 29.6751C19.6816 29.5668 19.6816 29.5235 19.6816 29.5235C19.6816 29.5235 19.5736 29.3285 19.4872 29.0253C19.444 28.8737 19.3791 28.6787 19.3791 28.4838C19.3791 28.3321 19.3359 27.8339 19.4872 27.3791C19.4872 27.3358 19.5304 27.2708 19.5304 27.2274C19.876 27.4224 20.2865 27.6173 20.6322 27.6173L20.589 27.5957ZM22.339 26.9025C22.6846 26.9025 22.9439 26.6426 22.9439 26.296C22.9439 26.1877 22.9439 26.1444 22.9007 26.1011C23.0087 26.0578 23.1599 25.9928 23.2464 25.9495C23.2896 26.0578 23.3544 26.2094 23.3544 26.296C23.3544 26.8376 22.9007 27.2491 22.4038 27.2491C22.2093 27.2491 22.0581 27.2058 21.9069 27.0975C21.9501 26.9892 22.0149 26.9025 22.0581 26.7509C22.1013 26.8592 22.2525 26.9025 22.3606 26.9025H22.339ZM22.1877 26.5126C22.2958 26.361 22.447 26.2527 22.5766 26.2094V26.3177C22.5766 26.4693 22.4686 26.5776 22.3174 26.5776C22.2742 26.5776 22.2093 26.5776 22.1661 26.5343L22.1877 26.5126ZM16.3977 25.1047C16.5489 25.1047 16.657 25.148 16.7434 25.213C17.0891 25.0181 17.4995 24.9098 18.0397 24.9098C18.3421 24.9098 18.6446 24.9531 18.9903 25.0181H19.0335C19.0335 25.0181 19.0767 25.1697 19.1415 25.278L19.1847 25.3213L19.0767 25.278H18.9687C18.6662 25.2347 18.3637 25.1697 18.0613 25.1697C17.7156 25.1697 17.2619 25.213 16.9594 25.4296C17.0026 25.5379 17.0675 25.6246 17.0675 25.7762C17.0675 26.1228 16.765 26.426 16.4193 26.426C16.4193 27.0325 16.8082 27.8339 17.5644 28.722C17.9532 28.3321 18.4069 27.8773 18.9038 27.5307C18.9471 26.9242 19.0983 26.2744 19.2495 25.6895V25.6462L19.2927 25.6895L19.444 25.8412L19.4872 25.8845V25.9278C19.3791 26.3177 19.2927 26.6859 19.2279 27.0758V27.1191C19.1847 27.4224 19.1199 27.8123 19.1199 28.2238C19.1199 28.5271 19.0767 28.7654 19.0767 28.982C19.0767 29.2852 19.0767 29.5885 19.1199 29.9784V30.0217H19.0767C19.0767 30.0217 18.9254 29.9784 18.8822 29.9784H18.839V29.935C18.839 29.6751 18.7958 29.3285 18.7958 28.982C18.7958 28.6354 18.7958 28.2888 18.839 27.9423C18.4501 28.2888 18.0397 28.6354 17.7372 28.982C17.9965 29.2852 18.3421 29.5885 18.731 29.935L18.7742 29.9784H18.731C18.731 29.9784 18.4718 30.0217 18.3853 29.9784C18.0829 29.6751 17.8452 29.4802 17.586 29.2202C17.5428 29.2636 17.4779 29.3285 17.4779 29.3719L17.4347 29.4152C17.4347 29.4152 17.3267 29.4585 17.2403 29.5235L17.1971 29.4802C17.1971 29.4802 17.1539 29.4802 17.1539 29.4368H17.1107V29.3935C17.2187 29.2419 17.3051 29.1336 17.4131 29.0469C16.5706 28.0939 16.1601 27.2058 16.1601 26.491C15.9656 26.3827 15.8144 26.1877 15.8144 25.9495C15.7064 25.4513 16.0088 25.148 16.3545 25.148L16.3977 25.1047ZM23.484 32.8592C23.1383 33.8556 22.6414 34.5487 22.0797 34.852C22.0365 35.1552 21.7772 35.3935 21.4748 35.3935C21.1723 35.3935 20.9347 35.1336 20.8699 34.852C20.3297 34.5487 19.8328 33.8989 19.4656 32.9025V32.8592L19.768 32.7509V32.7942C20.0705 33.639 20.4594 34.2455 20.9131 34.5487C21.0211 34.2888 21.2155 34.0939 21.518 34.0939C21.8205 34.0939 22.0149 34.2888 22.1229 34.4838C22.5766 34.1805 22.9655 33.574 23.268 32.7942V32.7509H23.3112C23.3112 32.7509 23.3544 32.7942 23.4624 32.8592H23.484ZM20.9347 32.7942C20.9347 32.5993 20.9779 32.0361 21.0859 31.8412C21.1939 31.7978 21.3452 31.7329 21.4748 31.7329C21.6044 31.7329 21.7772 31.7762 21.9285 31.8845C21.9717 32.0794 22.0797 32.5776 22.0797 32.7942C22.0797 33.0108 21.5828 33.1408 21.5396 33.1841C21.3884 33.1408 20.9347 33.0325 20.9347 32.7942ZM27.308 30.8015C27.308 30.8015 27.2 30.9098 27.1568 30.9098C27.1568 30.9098 27.0488 30.9531 26.9623 30.9531H26.9191C26.9191 30.9531 26.7247 30.9531 26.6599 30.9098C26.6167 30.9098 26.6167 30.8664 26.5519 30.8664C26.4006 30.8664 26.0549 30.9747 25.9469 31.0181C25.9901 31.0181 26.4438 31.0614 26.7463 31.3213C26.8975 31.4296 27.2 31.4729 27.2864 31.4729C27.2864 31.5163 26.7895 31.8628 25.8389 31.6679L25.5796 31.6246C25.126 31.5163 24.7371 31.4729 24.2834 31.4729C24.3266 31.4729 24.3914 31.5163 24.3914 31.5163C24.4994 31.5596 24.6507 31.6246 24.7371 31.6679C24.7371 31.6679 24.7803 31.6679 24.7803 31.7112H24.8235C24.8235 31.7112 24.9315 31.7112 24.9315 31.7545C24.9747 31.7545 25.0395 31.7978 25.0827 31.7978C25.126 31.8412 25.234 31.9061 25.234 31.9495C25.234 31.9928 25.2772 31.9928 25.2772 32.0578C25.2772 32.0578 25.2772 32.2094 25.234 32.3177C25.0827 32.5126 24.8883 32.5126 24.6939 32.3177L24.6507 32.2744C24.6507 32.2744 24.5426 32.1661 24.4994 32.0794V32.0361H24.4562C24.4562 32.0361 24.305 31.8845 24.197 31.8845C24.0457 31.8412 23.8513 31.7762 23.7001 31.7329H23.5488C23.7001 31.8412 23.8513 31.9278 23.8945 32.0361V32.0794C24.0025 32.2311 24.0025 32.3827 24.0457 32.5343C24.197 32.8376 24.2402 32.8809 24.3914 32.9892C24.2402 33.0325 23.484 33.0325 23.1383 32.491C23.1383 32.491 23.0951 32.4477 23.0951 32.3827C22.9871 32.1877 22.9439 31.9928 22.9007 31.8412C22.8575 31.6895 22.9439 31.5379 22.8575 31.4946C22.7495 31.4513 22.7062 31.4946 22.7062 31.4946L22.663 31.5379V31.5812L22.6198 31.6246V31.6679C22.6198 31.6679 22.6198 31.7112 22.5766 31.7112H22.3822C22.3822 31.7112 22.339 31.7112 22.339 31.7545C22.2958 31.7545 22.2309 31.7978 22.1877 31.7978C22.1445 31.7978 22.0797 31.7545 22.0797 31.6895V31.5812H21.9717C21.9717 31.5812 21.9285 31.5812 21.8637 31.5379V31.3863C21.8637 31.3863 21.8205 31.4296 21.7556 31.4296H21.6476C21.6476 31.4296 21.6044 31.3863 21.6044 31.3213V31.278V31.2347H21.4964C21.4964 31.2347 21.3452 31.1913 21.3019 31.1913H21.2587C21.2587 31.1913 21.1075 31.2347 21.0643 31.2347H20.9563V31.1913V31.148L20.9995 31.1047V31.0614H20.8915V31.1047H20.8483V31.213C20.8483 31.213 20.8483 31.3213 20.805 31.3213C20.805 31.3213 20.769 31.3213 20.697 31.3213C20.697 31.3213 20.6538 31.3213 20.6538 31.278C20.6538 31.278 20.6106 31.278 20.6106 31.2347C20.6106 31.2347 20.6106 31.278 20.6538 31.278V31.3863C20.6538 31.3863 20.6106 31.4296 20.5458 31.4296H20.4378C20.4378 31.4296 20.481 31.4729 20.4378 31.5379C20.4378 31.5812 20.3946 31.5812 20.3297 31.5812H20.1353L20.0921 31.5379H19.9841C19.9841 31.5379 19.9409 31.5379 19.9409 31.4946L19.8977 31.4513V31.408L19.6384 31.6679C19.1847 32.621 18.0829 32.8159 18.0829 32.7726C18.0829 32.7726 18.3421 32.6643 18.4285 32.3177C18.4718 32.1228 18.4718 32.0578 18.5798 31.8628C18.5798 31.8195 18.623 31.8195 18.623 31.7545C18.6662 31.6462 18.8174 31.6029 18.9254 31.4946H18.7742C18.623 31.5379 18.4718 31.5379 18.2773 31.6462C18.1693 31.6895 18.1261 31.7545 18.0181 31.7978H17.9748V31.8412C17.9748 31.8412 17.9316 31.9495 17.8668 32.0361L17.8236 32.0794C17.6292 32.2744 17.4779 32.2744 17.2835 32.0794L17.2403 32.0361C17.2403 32.0361 17.1971 31.8845 17.2403 31.8412C17.2403 31.7978 17.2835 31.7329 17.3483 31.6895C17.3915 31.6462 17.4563 31.6462 17.4995 31.5812C17.5428 31.5379 17.6076 31.5379 17.6508 31.5379C17.694 31.5379 17.694 31.5379 17.7588 31.4946H17.8668C17.8668 31.4946 17.8668 31.4513 17.91 31.4513C17.9532 31.4513 18.0181 31.408 18.0613 31.408C18.1045 31.408 18.1693 31.3646 18.2125 31.3646C18.2125 31.3646 18.2557 31.3646 18.3205 31.3213C17.9316 31.3213 17.5212 31.3646 17.0675 31.4729C17.0242 31.4729 16.9162 31.5163 16.8082 31.5163C16.3113 31.6246 15.3607 31.3646 15.3607 31.3213C15.3607 31.278 15.62 31.278 15.8576 31.1264C16.052 31.0181 16.1601 30.9314 16.3113 30.8664C16.5706 31.0614 16.8514 31.0614 16.9162 31.0614C16.8082 31.0181 16.3761 30.9531 16.2249 30.9098C16.2249 30.9098 16.1817 30.9531 16.1169 30.9531C16.0088 30.9964 15.9224 30.9964 15.8144 30.9964C15.7712 30.9964 15.6632 30.9964 15.62 30.9531C15.62 30.9531 15.5119 30.9098 15.4687 30.8448C15.4255 30.8015 15.4255 30.7365 15.4255 30.5849C15.4687 30.3899 15.6848 30.2816 15.9224 30.3249C16.0736 30.3682 16.1817 30.4332 16.2249 30.4765L16.2681 30.5199C16.4193 30.5199 16.6138 30.6282 16.8082 30.6715C17.0026 30.7798 17.1539 30.8231 17.2619 30.8231C17.2187 30.8231 17.1539 30.7798 17.1107 30.7798C17.0675 30.7798 17.0026 30.7365 17.0026 30.7365C16.9594 30.6932 16.8946 30.6932 16.8514 30.6282C16.5489 30.4765 16.2465 30.3249 16.052 30.13C15.9008 29.935 15.8576 29.8267 15.7928 29.6318C15.7496 29.1769 15.5335 28.982 15.5335 28.9386C15.5767 28.8953 16.2897 29.2419 16.5273 29.4802C16.6786 29.6751 16.7218 29.8267 16.7866 29.9784V30.0217C16.8298 30.1733 16.981 30.3249 17.2403 30.4765C17.2835 30.4765 17.2835 30.5199 17.3483 30.5199C17.3051 30.4116 17.2403 30.3682 17.1971 30.2599V30.2166L17.1539 30.1733C17.1539 30.1733 17.1107 30.13 17.1107 30.065C17.0675 30.0217 17.0675 29.9567 17.0026 29.9134C16.9594 29.7617 16.9594 29.6101 17.0026 29.5668C17.0459 29.5235 17.1107 29.4585 17.1971 29.4152C17.3915 29.3719 17.5428 29.4585 17.586 29.7617V30.1516C17.694 30.4549 17.9316 30.6932 18.2341 30.9098C17.8884 30.6065 17.694 29.9134 17.7372 29.9134C17.7804 29.87 18.0829 30.065 18.3853 30.2166C18.5366 30.2599 18.6878 30.3682 18.839 30.4765C18.9471 30.5199 19.0335 30.6282 19.0983 30.6715C19.2063 30.7148 19.2495 30.8231 19.2927 30.8664L19.444 31.0181L19.552 31.1264H19.8112C19.8544 31.1264 19.9193 31.1264 19.9625 31.083L20.0057 31.0397C20.0057 31.0397 20.1137 30.9964 20.1569 30.9964V30.9531C20.1569 30.9531 20.2001 30.8015 20.3081 30.7581C20.3081 30.7581 20.3513 30.7581 20.3513 30.7148H20.5026C20.5026 30.7148 20.5458 30.6715 20.6106 30.6065C20.6106 30.6065 20.8699 30.5632 20.9563 30.6498C20.9995 30.6932 20.9995 30.7581 21.0643 30.8015V31.0614H21.3668C21.3668 31.0614 21.4748 31.0614 21.518 31.1047C21.518 31.1047 21.626 31.0614 21.6692 31.0614H21.8205V30.9098C21.8205 30.9098 21.8205 30.8015 21.8637 30.7581C21.8637 30.7581 21.8637 30.7148 21.9069 30.7148L21.9501 30.6715C21.9501 30.6715 22.1445 30.6282 22.2525 30.6715C22.2525 30.6715 22.2958 30.7148 22.3606 30.7798H22.555C22.555 30.7798 22.7062 30.8881 22.7062 30.9747H22.8143C22.8143 30.9747 23.0735 30.9747 23.1167 31.0181H23.376L23.484 30.9098L23.6784 30.7148C23.6784 30.7148 23.8297 30.5632 23.9377 30.5199C24.0889 30.4116 24.2834 30.3682 24.4346 30.3249C24.9315 30.13 24.9747 29.8267 25.0395 29.8267C25.0827 29.87 24.9315 30.6715 24.5858 30.9747C24.8451 30.7798 25.0827 30.5199 25.234 30.2166V29.8267C25.342 29.5668 25.4284 29.4368 25.6229 29.4802C25.7309 29.5235 25.7741 29.5885 25.8173 29.6318C25.8605 29.7401 25.8605 29.8267 25.8173 29.9784C25.8173 30.0217 25.7741 30.0867 25.7093 30.13L25.6013 30.2383L25.558 30.2816V30.3249C25.558 30.3249 25.45 30.4765 25.3636 30.5849L25.4716 30.4765C25.7309 30.2816 25.8605 30.13 25.9253 29.9784C25.9685 29.8267 26.0333 29.6751 26.1846 29.4802C26.4438 29.2202 26.487 29.1336 26.7247 28.982C26.7679 28.9386 27.1136 28.8737 27.1784 28.8737C27.2216 28.917 26.9191 29.0253 26.8327 29.5235C26.7895 29.6751 26.7247 29.9134 26.5735 30.13C26.379 30.3899 26.1846 30.4332 25.9253 30.5849L25.8821 30.6282C25.8821 30.6282 25.7741 30.6715 25.6877 30.7365C25.5796 30.7798 25.5364 30.8448 25.4932 30.8448C25.6445 30.8015 25.7957 30.7365 25.9901 30.6932C26.1414 30.5849 26.3358 30.5415 26.5302 30.5415C26.5302 30.5415 26.5302 30.4982 26.5735 30.4982C26.6167 30.4549 26.7247 30.3899 26.8759 30.3466C27.1352 30.2383 27.3296 30.3466 27.3728 30.6065C27.416 30.7581 27.3728 30.8664 27.3296 30.9098L27.308 30.8015Z" fill="white"/>
<path d="M36.0361 20.7509C36.7923 20.4043 38.0238 19.5596 38.5207 18.9531C37.8293 18.6931 36.425 18.5632 35.6257 18.5632C37.2676 17.4152 37.3108 15.0108 36.8787 13.2563C36.4898 14.6643 35.4744 15.8123 34.8263 16.5054C34.8695 17.1986 34.6751 18.4116 34.2862 19.1047C34.8263 19.2996 35.4744 19.6029 35.9281 19.9495C35.6257 20.3393 34.9775 20.9025 34.5886 21.2491C34.9343 21.5957 35.496 22.2455 35.7769 22.657C35.388 22.9603 34.5886 23.2635 34.1349 23.4152C34.3294 23.87 34.6319 24.6065 34.7399 25.1697C34.243 25.278 33.5948 25.3213 32.9035 25.3213C32.9467 25.8195 32.8603 26.6209 32.7523 27.1191C32.1041 27.0758 31.348 26.8159 31.0023 26.6209C30.8078 27.3141 30.3542 28.0289 30.3542 28.0722C29.7492 27.3791 29.1659 27.1191 28.6042 27.1191V26.6643C29.1443 26.6643 29.7492 26.8592 30.2029 27.3141C30.3974 26.9675 30.5918 26.3177 30.6998 25.9061C31.0887 26.1011 31.7368 26.361 32.2986 26.4477C32.3418 25.9495 32.4066 25.2996 32.3418 24.8014C32.8819 24.8448 33.4868 24.8448 34.1349 24.7581C34.0269 24.3032 33.638 23.5668 33.3788 23.1552C33.9189 23.0036 34.6319 22.7004 34.9775 22.5054C34.6751 22.1155 34.1782 21.5523 33.8325 21.2058C34.2214 20.9025 34.8695 20.4043 35.1288 20.1011C34.6751 19.7978 34.0917 19.4946 33.5732 19.2996C34.2646 18.3466 34.4158 16.3971 34.2646 15.509C33.6596 17.5668 31.8665 19.0614 30.7646 19.7545C30.7214 19.7978 30.6566 19.8628 30.6134 19.8628C30.6134 19.8628 30.3542 20.1661 30.4622 20.4693C30.4622 20.5776 30.5054 20.6209 30.5054 20.7292C30.6134 21.1191 30.6134 21.7256 30.0085 22.2888C29.5116 22.7437 28.9066 22.787 28.561 22.7437V21.639C28.561 21.4874 28.453 21.3791 28.3017 21.3791H27.5456L27.1999 21.0325H27.956C28.3449 20.9892 28.7986 20.7726 28.7986 20.7726C28.7986 20.7726 28.3449 20.7726 28.1505 20.7292C27.8912 20.7726 27.3511 20.5343 26.8974 20.0361C26.7462 19.8412 26.595 19.6462 26.5085 19.4296C26.1197 19.083 25.666 18.6282 25.3635 17.9783C25.1691 17.5235 25.061 16.8736 25.0178 16.4838C24.8666 16.5921 24.7154 16.787 24.5209 17.0253C24.1753 17.4801 24.024 18.13 24.024 18.13L23.8728 18.6282L23.6135 18.1733C23.6135 18.1733 23.2679 17.5668 23.2247 16.8303C23.2247 16.4838 23.2247 16.1805 23.2679 15.9206C23.1598 15.9639 23.0086 16.0722 22.879 16.1805C22.2741 16.6354 21.9284 17.0903 21.9284 17.0903C21.6259 17.4801 21.4315 17.8484 21.3883 18C21.3451 17.8051 21.129 17.5018 20.8482 17.0903C20.8482 17.0903 20.5457 16.5921 19.8976 16.1805C19.7463 16.0722 19.5951 15.9856 19.5087 15.9206C19.5519 16.1805 19.5519 16.5271 19.5519 16.8303C19.5087 17.5884 19.163 18.13 19.163 18.1733L18.9037 18.5632L18.7525 18.065C18.7525 18.065 18.5581 17.4152 18.2556 16.9603C18.0612 16.7004 17.9099 16.5054 17.7587 16.4188C17.7155 16.8087 17.6075 17.5235 17.413 17.9134C17.1106 18.5632 16.7217 19.0614 16.268 19.3646C16.16 19.5596 16.0087 19.7545 15.8791 19.9711C15.4254 20.4693 14.8853 20.7292 14.626 20.7726C14.4316 20.8159 13.9779 20.8159 13.9779 20.8159C13.9779 20.8159 14.4316 21.0108 14.8205 21.0758C15.2094 21.1191 15.5766 21.0758 15.5766 21.0758L15.231 21.4224H14.4748C14.3236 21.4224 14.2156 21.5307 14.2156 21.6823V22.787C13.8699 22.8303 13.2217 22.787 12.7681 22.3321C12.2279 21.7906 12.1631 21.1841 12.2711 20.7726C12.3144 20.7292 12.3144 20.6209 12.3144 20.5126C12.4224 20.2094 12.2063 19.9711 12.1631 19.9061C12.1631 19.9061 12.0551 19.7978 12.0119 19.7978C10.9101 19.1047 9.16009 17.5884 8.51196 15.5523C8.36072 16.4621 8.55516 18.3466 9.2033 19.343C8.7064 19.5379 8.05826 19.8412 7.64777 20.1444C7.90703 20.4477 8.55516 20.9892 8.94405 21.2491C8.59837 21.5523 8.03665 22.1588 7.799 22.5487C8.14468 22.7437 8.83602 23.0469 9.39774 23.1986C9.13849 23.5884 8.74961 24.3466 8.64158 24.8014C9.24651 24.9097 9.89465 24.9097 10.4348 24.8448C10.3916 25.343 10.4348 26.0361 10.478 26.491C11.0181 26.3827 11.6662 26.1877 12.0767 25.9495C12.1847 26.296 12.3792 26.9892 12.5736 27.3574C13.0273 26.9025 13.6106 26.7076 14.1723 26.7076V27.1625C13.6322 27.1625 13.0273 27.4224 12.4224 28.1155C12.4224 28.0722 11.9687 27.3574 11.7742 26.6643C11.4286 26.8159 10.6724 27.1191 10.0243 27.1625C9.91625 26.6643 9.87304 25.8628 9.87304 25.3646C9.1817 25.3646 8.53356 25.3213 8.03666 25.213C8.14468 24.6715 8.42554 23.9134 8.64158 23.4585C8.18789 23.3069 7.38852 22.9603 6.99964 22.7004C7.25889 22.3105 7.84221 21.6606 8.18789 21.2924C7.79901 20.9892 7.15087 20.3827 6.84841 19.9928C7.3021 19.6462 7.95024 19.343 8.49035 19.148C8.10147 18.3899 7.88542 17.1986 7.95024 16.5487C7.25889 15.8556 6.26508 14.7076 5.8978 13.2996C5.4009 15.0542 5.50892 17.5018 7.15087 18.6065C6.3515 18.6065 4.9472 18.8014 4.25586 18.9964C4.75276 19.6029 6.00583 20.4043 6.74038 20.7942C6.13545 20.9892 5.09844 21.5957 4.64474 21.9856C5.18486 22.3321 6.43792 22.7437 7.04285 22.8953C6.69717 23.1986 6.00583 24 5.74657 24.3899C6.24348 24.5415 7.23729 24.6931 7.88542 24.6931C7.69098 25.148 7.43173 25.8845 7.38852 26.3393C7.69098 26.3827 8.728 26.3393 9.28972 26.1877C9.24651 26.6426 9.24651 27.3791 9.33293 27.7473C9.82983 27.704 10.586 27.444 10.9317 27.3574C11.0397 27.7473 11.3854 28.5487 11.5366 28.7653C11.7958 28.722 12.0335 28.657 12.2928 28.5704C12.9841 28.3105 13.7403 28.6137 14.0427 29.2635C14.5396 30.4116 14.3452 31.7545 13.3946 31.5162C12.2928 31.7112 13.0489 33.1191 12.4008 33.574C13.2434 34.1805 13.5026 32.7726 14.6044 33.0325C14.4964 33.5307 14.4964 34.4838 14.6044 34.8736C14.9501 34.6137 15.447 34.4188 15.7495 34.3755C15.6415 34.6787 15.5982 35.3718 15.7063 35.8267C15.9007 35.6751 17.3482 35.2852 17.3482 35.2852C17.3482 35.2852 16.8081 36.3899 17.1538 37.4946C17.3482 37.6462 18.6445 36.9964 18.6445 36.6498C18.6877 37.1047 18.1476 38.1011 17.305 38.296C18.2124 39.2058 18.9902 39.1408 19.0982 39.1408C19.2494 39.1408 19.3574 39.1408 19.4439 39.0325C19.4006 39.2924 19.3358 39.639 19.4006 39.8339H19.5519C19.8111 39.8339 20.0056 39.7906 20.1568 39.7256C20.2 39.9856 20.308 40.2238 20.4593 40.4188C20.4593 40.4188 20.4953 40.4549 20.5673 40.5271C20.7617 40.5271 21.2586 40.2671 21.3667 40.1372C21.4747 40.2888 21.9716 40.5271 22.166 40.5271C22.2092 40.4838 22.2741 40.4838 22.2741 40.4188C22.4685 40.2238 22.5765 39.9206 22.5765 39.7256C22.771 39.8339 22.9654 39.8339 23.1814 39.8339H23.3327C23.3759 39.639 23.3759 39.2924 23.2895 39.0325C23.3975 39.0758 23.5487 39.1408 23.6351 39.1408C23.7216 39.1408 24.5425 39.1841 25.4283 38.296C24.5857 38.1011 24.024 37.1047 24.0888 36.6498C24.0888 37.0397 25.3851 37.6462 25.5795 37.4946C25.9252 36.3899 25.3851 35.2852 25.3851 35.2852C25.3851 35.2852 26.7894 35.6318 27.0271 35.8267C27.1351 35.3718 27.0703 34.6787 26.9838 34.3755C27.2863 34.3755 27.7832 34.6354 28.1289 34.8736C28.2369 34.4838 28.2369 33.574 28.1289 33.0325C29.1659 32.7726 29.4252 34.1805 30.3325 33.574C29.7276 33.1191 30.4838 31.7329 29.3387 31.5162C28.3881 31.8195 28.1937 30.4116 28.6906 29.2635C28.9931 28.6137 29.7924 28.3105 30.4406 28.5704C30.6998 28.6787 30.9375 28.722 31.1967 28.7653C31.3048 28.5704 31.6936 27.769 31.8017 27.3574C32.1473 27.509 32.9035 27.704 33.4004 27.7473C33.4436 27.4007 33.5084 26.6426 33.4436 26.1877C33.9405 26.296 35.0423 26.3393 35.3448 26.3393C35.3016 25.8412 35.0423 25.083 34.8479 24.6931C35.496 24.6498 36.4898 24.5415 36.9868 24.3899C36.7275 23.935 36.0361 23.1336 35.6905 22.8953C36.2954 22.7437 37.5269 22.3538 38.0886 21.9856C37.7429 21.5307 36.6843 20.9458 36.101 20.7292L36.0361 20.7509ZM27.956 31.9928C27.956 31.9928 27.848 32.1444 27.8048 32.2527C27.8048 32.296 27.7616 32.296 27.7616 32.361C27.7184 32.4043 27.6536 32.4693 27.6104 32.556C27.6104 32.556 27.5744 32.5921 27.5024 32.6643C27.5024 32.6643 27.3511 32.8159 27.3079 32.9242C27.2647 32.9675 27.1999 33.0325 27.1567 33.0758C27.1135 33.1191 27.0487 33.1841 27.0054 33.2274C26.9622 33.2708 26.8974 33.3357 26.811 33.4224C26.811 33.4224 26.775 33.4585 26.703 33.5307C26.5518 33.6823 26.3573 33.8339 26.1629 33.9206C25.9036 34.1155 25.666 34.2671 25.3635 34.4188C25.3635 34.4188 25.1691 34.5271 25.061 34.5704C22.8142 35.7184 21.7123 36.6282 21.3667 36.8664H21.3235C20.9778 36.5632 19.8759 35.7184 17.6291 34.5704C17.5211 34.5271 17.4346 34.4621 17.3266 34.4188C17.0241 34.2671 16.7865 34.1155 16.5272 33.9206C16.3328 33.769 16.1816 33.6173 15.9871 33.5307C15.9439 33.4874 15.8791 33.4874 15.8791 33.4224C15.8359 33.3791 15.7279 33.3141 15.6847 33.2274C15.6415 33.1841 15.5766 33.1191 15.5334 33.0758C15.4902 33.0325 15.4254 32.9675 15.3822 32.9242C15.2742 32.8159 15.231 32.7726 15.1878 32.6643L15.0797 32.556C15.0797 32.556 14.9717 32.4477 14.9285 32.361C14.9285 32.3177 14.8853 32.3177 14.8853 32.2527C14.8421 32.1444 14.7773 32.1011 14.7341 31.9928C14.4316 31.343 14.4748 30.8014 14.4748 30.8014V22.0505C14.4748 21.8989 14.5828 21.7906 14.7341 21.7906H27.8912C28.0425 21.7906 28.1505 21.8989 28.1505 22.0505V30.8014C28.1505 30.8014 28.2585 31.343 27.956 31.9928Z" fill="white"/>
<path d="M27.6755 7.99279C27.87 7.99279 27.978 7.84117 27.978 7.64622C27.978 7.45128 27.8267 7.29965 27.6755 7.29965C27.4811 7.29965 27.373 7.45128 27.373 7.64622C27.373 7.84117 27.5243 7.99279 27.6755 7.99279Z" fill="white"/>
<path d="M27.675 9.85559C27.8695 9.85559 28.0639 9.01083 28.0639 8.59927C28.0639 8.33935 27.8695 8.20938 27.675 8.20938C27.4806 8.20938 27.2861 8.36101 27.2861 8.59927C27.2861 8.98916 27.4806 9.85559 27.675 9.85559Z" fill="white"/>
<path d="M27.4598 6.80144H27.9135L27.8271 6.25992L28.3672 6.30324V5.84837L27.8271 5.95667L27.9135 5.39349H27.4598L27.5246 5.95667L26.9629 5.84837V6.30324L27.5246 6.25992L27.4598 6.80144Z" fill="white"/>
<path d="M25.7309 10.852C25.8822 10.8953 26.0334 10.8953 26.1846 10.9603H26.8328C27.2216 10.9603 27.6321 10.852 28.021 10.7653C28.4099 10.657 28.8204 10.5704 29.2741 10.5704H29.5765C29.6846 10.1155 29.8358 9.61734 29.8358 9.31409C29.8358 8.70759 29.4901 8.05777 28.3451 7.86282C28.3451 8.62095 27.9994 10.3538 27.5889 10.3538H27.5457C27.1568 10.3538 26.7895 8.59929 26.7895 7.86282C25.6445 8.05777 25.2988 8.70759 25.2988 9.31409C25.2988 9.66066 25.4501 10.3105 25.6013 10.7653C25.7021 10.7942 25.7525 10.8303 25.7525 10.8737L25.7309 10.852Z" fill="white"/>
<path d="M31.7159 7.7112C31.7159 7.7112 31.4134 6.90976 31.9103 6.67149C32.4504 6.47655 31.7159 6.56319 32.1047 5.48016C32.5584 4.18052 33.5522 4.48377 33.5522 4.48377C32.8609 3.94225 32.2992 3.98557 31.9103 4.28882C31.651 4.48377 31.3054 4.89532 31.0677 5.69676C30.8733 6.69315 31.2189 7.64622 31.7159 7.75452V7.7112Z" fill="white"/>
<path d="M34.3078 5.74007C34.351 7.38628 37.0948 8.10108 37.0948 8.10108C37.0948 8.10108 35.4961 6.95306 35.7985 6.1083C35.7985 6.1083 36.8355 6.56317 38.0454 6.36823C35.4961 5.82671 36.3602 5.02526 35.6905 4.37545C35.0424 3.6823 34.0486 3.61732 33.7893 3.574C33.1412 3.53068 33.098 3.53068 32.3418 3.72563C34.0918 3.76895 34.2862 4.67869 34.2862 5.78339L34.3078 5.74007Z" fill="white"/>
<path d="M33.9403 8.85922C34.286 7.55958 33.6379 6.95308 33.6379 6.95308C33.4434 6.69315 32.3848 6.75814 31.9959 6.9964C31.9959 6.9964 32.9897 6.9964 32.8385 8.44767C32.6873 9.89893 30.6997 10.2022 30.1379 10.2455L30.0947 10.4404C31.0453 10.4404 33.5298 10.1372 33.9403 8.83756V8.85922Z" fill="white"/>
<path d="M23.527 8.79422H22.5332C23.0301 10.2022 24.4776 10.6354 25.4282 10.787L25.385 10.6354C24.3912 10.2455 23.8943 9.83393 23.5486 8.79422H23.527Z" fill="white"/>
<path d="M15.2532 7.99279C15.4477 7.99279 15.5557 7.84117 15.5557 7.64622C15.5557 7.45128 15.4045 7.29965 15.2532 7.29965C15.0588 7.29965 14.9508 7.45128 14.9508 7.64622C14.9076 7.84117 15.0588 7.99279 15.2532 7.99279Z" fill="white"/>
<path d="M15.2531 9.85559C15.4476 9.85559 15.642 9.01083 15.642 8.59927C15.642 8.33935 15.4476 8.20938 15.2531 8.20938C15.0587 8.20938 14.8643 8.36101 14.8643 8.59927C14.8643 8.98916 15.0155 9.85559 15.2531 9.85559Z" fill="white"/>
<path d="M14.9937 6.80144H15.4474L15.4042 6.25992L15.9443 6.30324V5.84837L15.4042 5.95667L15.4474 5.39349H14.9937L15.1018 5.95667L14.54 5.84837V6.30324L15.1018 6.25992L14.9937 6.80144Z" fill="white"/>
<path d="M13.2441 10.5488H13.5466C14.0003 10.5921 14.454 10.6571 14.7996 10.7437C15.1453 10.852 15.599 10.9386 15.9879 10.9386H16.636C16.7873 10.9386 16.9385 10.8953 17.0897 10.8303C17.0897 10.8303 17.1041 10.8159 17.1329 10.787C17.2842 10.3321 17.4354 9.68232 17.4354 9.33575C17.4354 8.72926 17.1329 8.07944 15.9447 7.88449C15.9447 8.57763 15.599 10.3755 15.1885 10.3755H15.1453C14.7564 10.3755 14.3892 8.62095 14.3892 7.88449C13.2441 8.07944 12.8984 8.72926 12.8984 9.33575C12.8984 9.639 13.0065 10.1372 13.1577 10.5921C13.1577 10.5921 13.1937 10.5776 13.2657 10.5488H13.2441Z" fill="white"/>
<path d="M9.31152 4.44042C9.31152 4.44042 10.3053 4.13717 10.759 5.43681C11.1479 6.5415 10.4134 6.4332 10.9535 6.62814C11.4936 6.82309 11.1479 7.66786 11.1479 7.66786C11.688 7.55955 12.0553 6.62814 11.7528 5.56677C11.4936 4.76533 11.1479 4.37544 10.9103 4.15883C10.5214 3.8989 10.0029 3.85558 9.31152 4.41876V4.44042Z" fill="white"/>
<path d="M7.06462 6.10832C7.36708 6.95308 5.76834 8.1011 5.76834 8.1011C5.76834 8.1011 8.55533 7.40796 8.55533 5.74009C8.59854 4.63539 8.74977 3.74731 10.4565 3.68233C9.70037 3.5307 9.65716 3.5307 9.00903 3.5307C8.74977 3.5307 7.75596 3.639 7.10782 4.33214C6.5029 4.98196 7.30227 5.78341 4.75293 6.32492C6.00599 6.51987 7.04301 6.065 7.04301 6.065L7.06462 6.10832Z" fill="white"/>
<path d="M10.0676 8.44765C9.91636 6.99639 10.9102 6.99639 10.9102 6.99639C10.5645 6.73646 9.50587 6.73646 9.26822 6.95306C9.26822 6.95306 8.62008 7.49458 8.96576 8.8592C9.31143 10.1588 11.8608 10.4621 12.8114 10.4621L12.7682 10.2671C12.228 10.2238 10.2188 9.92057 10.0676 8.46931V8.44765Z" fill="white"/>
<path d="M20.3949 8.79422H19.4011C19.0554 9.83393 18.5585 10.2455 17.5647 10.6354L17.5215 10.787C18.5153 10.6354 19.9196 10.1805 20.4165 8.79422H20.3949Z" fill="white"/>
<path d="M22.7278 14.9459C22.4254 15.4007 22.1877 15.8989 21.9717 16.3971C22.1229 16.2022 22.3606 16.0072 22.6198 15.7906C23.0735 15.4874 23.4624 15.2924 23.4624 15.2924L23.8513 15.1408L23.7433 15.5307C23.7433 15.5307 23.592 16.1805 23.6352 16.722C23.6352 16.982 23.7433 17.2202 23.7865 17.3719C23.8945 17.1119 24.0457 16.8737 24.1753 16.6137C24.6722 15.9639 25.0827 15.704 25.0827 15.704L25.3852 15.5524V15.8989C25.3852 15.8989 25.4932 17.0469 25.7309 17.6534C26.1846 18.6498 27.0271 19.213 27.524 19.4513L27.2648 19.1913C27.0055 18.9314 26.7679 18.4982 26.6167 17.5451C26.5086 16.7437 26.8111 15.9422 26.9191 15.704C26.9623 15.8989 27.0704 16.0939 27.1784 16.1589C27.1784 16.1589 27.1784 15.9639 27.2216 15.769C27.3296 15.2274 27.9129 14.361 28.7123 13.8628C28.8635 13.7545 29.0148 13.6679 29.1012 13.6029C29.2524 13.5596 29.3604 13.4513 29.4469 13.343C29.2956 13.343 29.1012 13.3863 28.9499 13.3863H28.453C28.0642 13.3863 27.6105 13.343 27.2648 13.0397C26.9191 12.7365 26.7679 12.4332 26.7247 12.2383H26.1198C25.8173 12.2383 25.5796 12.13 25.4284 12.13C25.0395 12.3899 24.629 12.4765 24.1321 12.5199H23.9377C24.0889 12.6715 24.2834 12.7798 24.4346 12.8664H24.4778L24.3698 12.9098C24.3698 12.9098 23.7216 13.2563 22.6846 14.8592L22.7278 14.9459Z" fill="white"/>
<path d="M29.253 12.1516H28.7129V12.4549C28.7561 12.6065 28.8209 12.7148 28.9073 12.8014C29.0586 12.6931 29.2098 12.4549 29.253 12.1516Z" fill="white"/>
<path d="M29.6632 11.0036H29.4688C29.0799 11.0036 28.6694 11.1119 28.2806 11.1986C27.8917 11.3069 27.438 11.3935 27.0275 11.3935H26.3361C25.4288 11.2852 24.8454 11.0036 24.543 10.852C24.5862 10.9603 24.6942 11.0469 24.8454 11.1986C24.8886 11.2419 24.9535 11.3069 24.9967 11.3502C25.1047 11.4585 25.2559 11.5451 25.3855 11.6534C25.58 11.7617 26.4226 12.1083 27.5244 11.9567C28.7775 11.7617 29.0151 11.8051 29.3176 11.8051H29.4256C29.8793 11.8484 30.5274 12.1083 30.7651 12.2599C30.8731 12 31.0243 11.7617 31.0675 11.5018C31.0243 11.4585 30.9163 11.3502 30.7219 11.2419C30.6787 11.1986 30.6138 11.1986 30.5274 11.1336C30.441 11.0686 30.2682 11.0253 30.0737 11.0253C29.8793 10.982 29.7713 10.982 29.6849 10.982L29.6632 11.0036Z" fill="white"/>
<path d="M33.1626 15.0975C33.1626 15.0975 32.6657 15.3574 31.7151 14.7509C30.7645 14.1444 30.0731 13.9061 29.6626 13.7978C29.5546 13.8411 29.5114 13.9061 29.4034 13.9494C29.2954 13.9928 29.1441 14.1011 29.0145 14.2094C28.9713 14.2527 28.9065 14.2527 28.8633 14.3177H28.9713C29.8787 14.426 30.57 14.9242 30.6133 15.1191H30.6565C30.7645 14.8159 30.6133 14.5776 30.6133 14.5776C30.6133 14.5776 31.0021 14.8375 31.8015 15.2707C32.6441 15.8123 32.9898 15.3141 33.141 15.1191L33.1626 15.0975Z" fill="white"/>
<path d="M28.4097 12.6498C28.4097 12.6498 28.3017 12.4982 28.2585 12.4549C28.2152 12.3466 28.2152 12.3032 28.2152 12.2599C28.0208 12.2599 27.7616 12.3032 27.4591 12.3682H27.2646C27.4159 12.6715 27.6535 12.9747 28.172 13.0614H28.3665C28.5609 13.1047 28.8202 13.1047 28.9714 13.1047C29.3171 13.1047 29.7276 13.0614 30.1164 12.9531C30.2245 12.8448 30.2677 12.6931 30.3757 12.6065C30.3757 12.6065 30.3325 12.5632 30.2677 12.5632C30.1597 12.5198 29.922 12.3682 29.7708 12.3032C29.7276 12.4549 29.6195 12.6065 29.5115 12.6931C29.3603 12.8014 29.1658 12.8448 28.9714 12.8448C28.777 12.8448 28.5825 12.8014 28.4745 12.6931C28.4313 12.6931 28.4313 12.6498 28.4313 12.6498H28.4097Z" fill="white"/>
<path d="M31.0679 11.8917C30.7654 12.6931 30.2685 13.2996 29.9229 13.5812C32.1697 12.9747 32.5586 14.1227 32.5586 14.1877C32.5586 14.2527 32.5586 14.231 32.6018 14.1877C32.645 14.1444 33.4012 13.343 32.8611 12.5848C32.4074 11.9783 31.4136 11.8917 31.0679 11.8917ZM31.0679 12.4982L31.2191 12.1949C31.3704 12.1949 31.6728 12.2383 31.6728 12.4549C31.4784 12.4115 31.2191 12.4115 31.0679 12.4982Z" fill="white"/>
<path d="M14.1944 12.4549V12.1516H13.6543C13.6975 12.4549 13.8487 12.6931 14 12.8014C14.108 12.6931 14.1512 12.6065 14.1944 12.4549Z" fill="white"/>
<path d="M16.7433 11.3502H16.0519C15.5982 11.3502 15.2093 11.2419 14.7988 11.1552C14.3451 11.1119 13.9563 11.0036 13.5458 11.0036H13.1569C12.9625 11.0036 12.8112 11.0469 12.7032 11.1119C12.66 11.1552 12.552 11.1552 12.5088 11.2202C12.3575 11.3285 12.2495 11.3718 12.1631 11.4801C12.2063 11.7401 12.3575 12.0217 12.4655 12.2383C12.7248 12.0866 13.3729 11.7834 13.805 11.7834H13.9131C14.2155 11.7834 14.4532 11.7401 15.7062 11.935C16.8081 12.0866 17.6074 11.7401 17.8451 11.6318C17.9963 11.5235 18.1475 11.4368 18.234 11.3285C18.2772 11.2852 18.342 11.2202 18.3852 11.1769C18.4932 11.0253 18.5796 10.917 18.6877 10.8303C18.234 10.9819 17.6506 11.2852 16.7433 11.3718V11.3502Z" fill="white"/>
<path d="M9.76574 15.0975C9.91698 15.2491 10.2626 15.7906 11.062 15.3574C11.8614 14.9242 12.2503 14.6642 12.2503 14.6642C12.2503 14.6642 12.099 14.9242 12.2071 15.2058H12.2503C12.3583 15.0108 13.0496 14.4476 13.8922 14.4043H14.0002C14.0002 14.4043 13.8922 14.361 13.849 14.296C13.6978 14.1877 13.5465 14.1011 13.4601 14.0361C13.3521 13.9928 13.3089 13.9278 13.2009 13.8845C12.812 13.9278 12.099 14.231 11.1484 14.8375C10.241 15.3357 9.80895 15.0975 9.74414 15.0975H9.76574Z" fill="white"/>
<path d="M13.1577 12.3032L12.6608 12.5632C12.6608 12.5632 12.6175 12.6065 12.5527 12.6065C12.6608 12.7581 12.704 12.8664 12.812 12.9531C13.2009 13.0614 13.6114 13.1047 13.957 13.1047C14.1515 13.1047 14.3459 13.1047 14.562 13.0614H14.7564C15.2533 12.9531 15.5558 12.6065 15.6638 12.3682H15.4693C15.1669 12.3249 14.9292 12.2599 14.7132 12.2599C14.7132 12.3032 14.67 12.4115 14.67 12.4549C14.6268 12.5632 14.562 12.6065 14.5187 12.6498L14.4755 12.6931C14.3243 12.8014 14.1731 12.8448 13.9786 12.8448C13.7842 12.8448 13.5898 12.8014 13.4385 12.6931C13.2873 12.5848 13.2441 12.4332 13.1793 12.3032H13.1577Z" fill="white"/>
<path d="M10.0027 12.6065C9.46259 13.3646 10.1971 14.1661 10.262 14.2094C10.3268 14.2527 10.3052 14.2094 10.3052 14.2094C10.3052 14.1661 10.694 13.0181 12.9409 13.6029C12.5952 13.2996 12.0983 12.6931 11.7959 11.9134C11.4934 11.9134 10.4564 12.0217 10.0027 12.6065ZM11.8607 12.4982C11.7095 12.3899 11.4718 12.3899 11.2558 12.4549C11.2558 12.2599 11.5582 12.1949 11.7095 12.1949C11.7095 12.1949 11.7527 12.3899 11.8607 12.4982Z" fill="white"/>
<path d="M18.8822 12.6065H18.6878C18.1909 12.6065 17.7804 12.4549 17.3915 12.2166C17.2403 12.2599 16.9378 12.3249 16.7001 12.3249H16.0952C16.052 12.5199 15.9008 12.8664 15.5551 13.1264C15.2094 13.4296 14.7557 13.4729 14.3669 13.4729H13.87C13.87 13.4729 13.5675 13.4296 13.373 13.4296C13.5243 13.5379 13.6323 13.5812 13.7187 13.6895C13.8267 13.7329 13.978 13.8412 14.1076 13.9495C14.907 14.491 15.5119 15.2924 15.5983 15.8556C15.6415 16.0505 15.6415 16.2455 15.6415 16.2455C15.7495 16.2022 15.836 15.9856 15.9008 15.7906C16.0088 16.0505 16.3545 16.8303 16.2032 17.6318C16.052 18.5848 15.8144 19.0397 15.5551 19.278C15.4471 19.3863 15.3607 19.4729 15.2959 19.5379C15.7928 19.278 16.6353 18.7365 17.089 17.7401C17.3483 17.1986 17.4347 16.0505 17.4347 16.0505V15.704L17.7372 15.8556C17.7372 15.8556 18.1909 16.1155 18.6446 16.7653C18.7958 17.0253 18.947 17.2635 19.0334 17.5235C19.0766 17.3285 19.1415 17.1336 19.1847 16.8737C19.2279 16.2672 19.0766 15.6823 19.0766 15.6823L18.9686 15.2924L19.3575 15.4441C19.3575 15.4441 19.7464 15.5957 20.2001 15.9422C20.5025 16.1372 20.697 16.3321 20.8482 16.5487C20.6538 16.0505 20.4593 15.5524 20.0921 15.0975C19.055 13.4946 18.4069 13.148 18.4069 13.148L18.2989 13.1047H18.3421C18.4933 12.9531 18.6878 12.8015 18.839 12.7148L18.8822 12.6065Z" fill="white"/>
</g>
<defs>
<clipPath id="clip0_26_2">
<rect width="171" height="48" fill="white"/>
</clipPath>
</defs>
</svg>
