<svg width="7314" height="1378" viewBox="0 0 7314 1378" fill="none" xmlns="http://www.w3.org/2000/svg">
<g clip-path="url(#clip0_1213_2)">
<mask id="mask0_1213_2" style="mask-type:luminance" maskUnits="userSpaceOnUse" x="0" y="0" width="7314" height="1378">
<path d="M7314 0H0V1378H7314V0Z" fill="white"/>
</mask>
<g mask="url(#mask0_1213_2)">
<path d="M646.918 1.4209V39.9956C474.386 54.3783 327.914 122.58 210.73 249.439C102.232 366.953 44.5215 506.703 39.3296 666.073C33.6717 840.521 89.9176 994.158 207.468 1123.86C325.019 1253.58 472.622 1322.44 646.951 1337.15V1375.79C477.016 1362.9 329.478 1299.58 208.2 1180.5C66.8867 1041.71 -1.47359 871.937 0.0240773 674.292C6.41414 480.292 79.8998 315.785 222.112 183.358C341.36 72.4727 483.871 12.8541 646.918 1.4209Z" fill="white"/>
<path d="M530.547 803.452V1269.23C530.547 1278.48 530.547 1278.31 521.927 1275.86C500.161 1269.64 478.752 1262.23 457.793 1253.69C451.869 1251.34 451.77 1251.27 451.77 1244.58V336.546C451.77 328.989 451.77 328.956 459.125 328.956H527.252C529.648 328.956 530.58 330.182 530.58 332.271C530.58 334.358 530.58 336.015 530.58 337.871L530.547 803.452Z" fill="white"/>
<path d="M411.008 1231.25C403.394 1228.1 396.058 1224.32 389.076 1219.94C374.432 1211.7 360.121 1202.82 346.309 1193.2C343.538 1191.04 340.649 1189.03 337.656 1187.18C336.01 1186.31 334.677 1184.95 333.842 1183.29C333.006 1181.63 332.711 1179.76 332.996 1177.93C332.996 990.577 332.996 803.249 332.996 615.943C332.996 615.115 332.996 614.286 332.996 613.458C333.196 609.083 333.296 608.818 337.656 608.785C348.073 608.785 358.49 608.785 368.907 608.785C381.388 608.785 393.902 608.785 406.382 608.785C411.608 608.785 411.641 608.785 411.774 613.954C411.774 615.412 411.774 616.837 411.774 618.296C411.774 819.742 411.774 1021.19 411.774 1222.63C412.174 1225.53 411.912 1228.47 411.008 1231.25Z" fill="white"/>
<path d="M649.383 916.365V1288.65C649.383 1298.2 650.281 1297.74 640.763 1297.34C630.412 1296.88 620.162 1295.52 609.878 1294.03C598.595 1292.47 587.346 1290.71 576.163 1288.62C571.071 1287.63 570.739 1287.3 570.605 1282.23C570.605 1280.97 570.605 1279.74 570.605 1278.48V543.41C570.605 533.103 569.474 534.229 580.057 534.196H641.961C649.782 534.196 649.383 533.766 649.383 541.686V916.365Z" fill="white"/>
<path d="M292.568 1150.81C291.856 1150.81 291.152 1150.67 290.495 1150.4C289.838 1150.13 289.242 1149.73 288.741 1149.23C271.634 1134.05 255.459 1117.91 239.65 1101.44C231.763 1093.22 224.707 1084.23 217.252 1075.62C216.237 1074.58 215.45 1073.34 214.94 1071.98C214.43 1070.62 214.209 1069.18 214.29 1067.74C214.29 1066.68 214.29 1065.65 214.29 1064.62V729.011C214.29 719.864 213.691 720.759 222.843 720.759H285.346H290.338C290.704 720.743 291.068 720.805 291.407 720.942C291.746 721.078 292.052 721.285 292.305 721.548C292.557 721.812 292.749 722.126 292.87 722.471C292.99 722.814 293.034 723.18 293.001 723.543C293.001 724.968 293.001 726.426 293.001 727.884C293.001 866.916 293.001 1005.92 293.001 1144.88C293.31 1146.87 293.162 1148.9 292.568 1150.81Z" fill="white"/>
<path d="M174.007 1014.51C169.714 1011.21 168.016 1006.5 165.52 1002.38C155.148 985.38 145.694 967.836 137.198 949.827C124.243 922.716 113.438 894.639 104.881 865.851C102.751 858.494 100.488 851.169 98.3913 843.846C97.1317 839.675 96.4816 835.344 96.4609 830.988C96.4609 812.96 96.4609 794.898 96.4609 776.837C96.4609 770.74 96.4609 770.707 102.751 770.707H168.981C175.172 770.707 175.205 770.707 175.238 776.87C175.238 854.196 175.238 931.6 175.238 1009.08C175.272 1010.84 175.804 1012.8 174.007 1014.51Z" fill="white"/>
<path d="M726.295 688.028V1223.93C726.295 1231.52 726.295 1231.52 718.74 1231.52H692.481C686.024 1231.52 686.989 1231.52 686.923 1225.69V151.958C686.923 143.607 686.923 143.607 695.11 143.607C704.063 143.607 713.015 143.607 721.968 143.607C725.063 143.607 726.761 144.336 726.328 147.749C726.245 149.195 726.245 150.645 726.328 152.091L726.295 688.028Z" fill="white"/>
<path d="M801.961 48.9144C802.528 49.9733 803.445 50.8045 804.557 51.2673C868.124 89.5438 918.513 141.209 959.083 202.75C983.762 240.653 1004.31 281.069 1020.39 323.312C1022.55 328.879 1022.55 328.912 1028.71 328.912H1246.27C1255.85 328.912 1265.44 329.244 1275.02 328.912C1276.74 328.731 1278.46 329.092 1279.95 329.943C1281.45 330.794 1282.63 332.091 1283.35 333.652C1309.35 376.819 1330.55 422.678 1346.58 470.42C1359.78 509.726 1369.36 550.147 1375.2 591.181C1376.9 603.045 1378.06 615.042 1379.46 626.74C1377.76 628.397 1376.13 627.767 1374.4 627.767C1364.62 627.767 1354.83 627.767 1345.05 627.767C1339.92 627.767 1339.89 627.767 1339.42 622.83C1337.76 605.067 1335.1 587.47 1331.87 569.805C1321.15 511.497 1302.29 454.966 1275.86 401.853C1270.96 391.912 1265.54 382.466 1260.58 372.691C1260.06 371.26 1259.08 370.039 1257.79 369.224C1256.5 368.408 1254.98 368.042 1253.46 368.184C1182.46 368.316 1111.39 368.316 1040.26 368.184C1039.06 368.184 1037.76 367.852 1036.63 368.879C1036.76 371.543 1037.41 374.156 1038.56 376.568C1049.44 413.313 1058.04 450.687 1064.32 488.48C1070.77 527.367 1075.21 566.557 1077.63 605.895C1078.73 623.261 1079.53 640.692 1079.6 658.123C1079.6 659.349 1079.6 660.609 1079.6 661.835C1080.16 667.105 1078.93 667.138 1085.35 667.138H1344.18C1355.28 667.138 1366.37 667.138 1377.47 667.138C1381.86 667.138 1381.93 667.138 1381.99 671.479C1382.29 696.797 1381.99 722.083 1379.73 747.336C1375.34 798.977 1365.12 849.959 1349.24 899.315C1342.59 920.226 1334.73 940.74 1326.11 960.922C1325.72 962.483 1324.77 963.847 1323.44 964.761C1322.11 965.676 1320.49 966.078 1318.89 965.893C1306.61 965.661 1294.33 965.893 1282.28 965.893C1281.12 963.772 1282.45 962.414 1283.08 960.989C1303.45 917.186 1318.82 871.243 1328.87 824.021C1334.75 796.865 1338.74 769.338 1340.82 741.636C1341.59 731.296 1342.22 720.957 1342.82 710.584C1343.09 706.176 1342.82 706.11 1338.43 706.077C1332.6 706.077 1326.78 706.077 1320.92 706.077H1087.08C1080.19 706.077 1080.19 706.077 1079.93 712.937C1079.33 729.738 1079.2 746.54 1078.16 763.309C1076.67 787.104 1074.84 810.898 1072.11 834.593C1068.95 861.999 1064.82 889.208 1059.56 916.283C1054.04 944.561 1047.16 972.499 1038.93 1000.09C1038.25 1001.64 1038.04 1003.36 1038.33 1005.03H1304.01C1303.96 1007.33 1303.16 1009.55 1301.75 1011.36C1233.26 1137.8 1135.11 1234.32 1007.31 1300.94C953.299 1328.91 895.73 1349.45 836.174 1362.01C810.762 1367.47 785.045 1371.4 759.161 1373.81C736.762 1375.86 714.33 1377.12 691.799 1377.12C687.073 1377.12 686.973 1377.12 686.973 1372.48V1275.85C686.973 1271.01 686.973 1270.95 691.632 1270.91C701.85 1270.91 712.034 1270.91 722.251 1270.91C725.579 1270.91 726.478 1272.04 726.412 1275.22C726.245 1285.83 726.412 1296.4 726.412 1306.97C726.187 1309.11 726.356 1311.28 726.911 1313.37C733.083 1311.53 739.112 1309.25 744.949 1306.54C784.726 1288.77 821.057 1264.18 852.282 1233.89C899.309 1189.23 934.654 1136.4 961.812 1077.87C966.571 1067.54 970.898 1056.96 975.391 1046.52C975.391 1046.19 975.391 1045.73 975.391 1044.5H968.934C903.702 1044.5 838.471 1044.5 773.239 1044.5C764.952 1044.5 765.917 1045.59 765.883 1037.28C765.883 1027.96 765.883 1018.62 765.883 1009.28C765.883 1006.22 766.549 1004.5 770.01 1004.93C771.473 1005.03 772.941 1005.03 774.404 1004.93H985.708C990.501 1004.93 990.534 1004.93 992.065 1000.22C1003.05 965.893 1011.76 930.876 1018.12 895.404C1023.55 866.042 1027.51 836.449 1030.27 806.723C1032.5 782.762 1034.13 758.769 1034.67 734.677C1034.83 726.79 1035.26 718.935 1035.46 711.048C1035.46 706.11 1035.46 706.044 1030.27 706.044H773.239C764.752 706.044 765.95 707.005 765.883 698.886C765.883 689.738 765.883 680.625 765.883 671.479C765.883 668.397 766.549 666.74 769.977 667.138C771.44 667.237 772.908 667.237 774.37 667.138H1026.94C1028.18 667.138 1029.44 667.138 1030.67 667.138C1035.36 667.138 1035.46 667.138 1035.33 662.299C1034.53 634.925 1033.43 607.585 1031.04 580.311C1028.84 555.092 1025.91 529.972 1022.02 504.985C1015.26 460.338 1004.85 416.315 990.9 373.353C989.203 368.184 989.169 368.184 983.611 368.184H773.472C764.918 368.184 765.917 369.277 765.883 360.528C765.85 351.779 765.883 342.268 765.883 333.154C765.883 330.072 766.582 328.35 770.044 328.813C771.285 328.896 772.53 328.896 773.771 328.813H973.627C974.659 327.19 973.627 326.129 973.161 325.068C951.373 270.731 920.905 220.259 882.935 175.608C849.447 135.993 808.581 103.202 762.589 79.0384C751.16 73.0165 739.249 67.9508 726.977 63.8935C726.275 66.3021 726.071 68.8275 726.378 71.3168C726.378 81.0931 726.378 90.8362 726.378 100.579C726.378 103.463 725.646 104.622 722.518 104.589C711.912 104.434 701.284 104.434 690.634 104.589C687.306 104.589 686.906 103.297 686.906 100.513C686.906 68.3453 686.906 36.1776 686.906 4.00992C686.906 1.1599 687.505 -2.54872e-10 690.667 0C707.308 1.12774e-09 723.949 0.861635 740.589 1.98839C754.102 2.88317 767.548 4.30817 780.96 5.99831C899.841 21.3913 1012.63 67.4277 1108.15 139.552C1162.6 180.53 1210.63 229.337 1250.66 284.373C1251.69 285.831 1253.29 287.024 1253.26 289.211C1251.79 290.404 1249.93 289.775 1248.5 289.775C1235.79 289.775 1223.07 289.775 1210.39 289.775C1208.86 289.878 1207.34 289.576 1205.96 288.9C1204.59 288.226 1203.42 287.201 1202.57 285.93C1103.34 160.748 961.284 76.3381 803.525 48.815C803.001 48.7765 802.475 48.81 801.961 48.9144ZM801.961 1328.61C889.987 1313.33 973.932 1280.24 1048.61 1231.39C1123.29 1182.53 1187.12 1118.95 1236.15 1044.56H1029.71C1028.67 1044.56 1027.61 1044.56 1026.58 1044.56C1026.17 1044.5 1025.74 1044.52 1025.34 1044.62C1024.94 1044.72 1024.56 1044.9 1024.22 1045.15C1023.89 1045.4 1023.61 1045.72 1023.4 1046.08C1023.2 1046.44 1023.07 1046.84 1023.02 1047.25C1022.66 1048.43 1022.24 1049.6 1021.75 1050.73C1004.03 1098.12 980.655 1143.21 952.127 1185.05C912.822 1241.95 864.73 1289.8 805.189 1325.76C804.124 1326.39 802.859 1326.76 802.227 1328.61H801.961Z" fill="white"/>
<path d="M1932.86 585.543H1864.28V374.111L1715.19 585.543H1663V238.932H1731.59V450.86L1880.68 238.932H1932.86V585.543Z" fill="white"/>
<path d="M2195.19 376.586V238.932H2263.28V585.543H2195.19V441.947H2065.98V585.543H1997.39V238.932H2065.98V376.586H2195.19Z" fill="white"/>
<path d="M2492.9 592.475C2440.88 592.475 2397.65 575.145 2363.19 540.483C2329.06 506.153 2312 463.404 2312 412.238C2312 360.741 2329.06 317.992 2363.19 283.992C2397.65 249.331 2440.88 232 2492.9 232C2524.38 232 2553.37 239.427 2579.87 254.282C2606.71 268.807 2627.58 288.613 2642.49 313.702L2583.35 347.867C2574.74 332.352 2562.48 320.303 2546.57 311.72C2530.67 302.807 2512.78 298.352 2492.9 298.352C2459.11 298.352 2431.77 308.915 2410.9 330.042C2390.36 351.498 2380.09 378.897 2380.09 412.238C2380.09 445.248 2390.36 472.481 2410.9 493.939C2431.77 515.065 2459.11 525.629 2492.9 525.629C2512.78 525.629 2530.67 521.337 2546.57 512.755C2562.81 503.842 2575.07 491.793 2583.35 476.608L2642.49 510.774C2627.58 535.862 2606.71 555.834 2579.87 570.688C2553.37 585.212 2524.38 592.475 2492.9 592.475Z" fill="white"/>
<path d="M2657.32 238.932H2913.26V304.293H2819.34V585.543H2750.75V304.293H2657.32V238.932Z" fill="white"/>
<path d="M3221.41 585.543H3152.83V374.111L3003.73 585.543H2951.55V238.932H3020.13V450.86L3169.23 238.932H3221.41V585.543Z" fill="white"/>
<path d="M3260.1 238.932H3516.04V304.293H3422.11V585.543H3353.53V304.293H3260.1V238.932Z" fill="white"/>
<path d="M3678.08 406.295L3746.66 238.932H3815.24L3710.88 489.978C3683.05 557.319 3637.32 589.174 3573.71 585.543V521.668C3591.93 523.318 3606.68 520.842 3617.94 514.24C3629.54 507.638 3639.31 496.58 3647.26 481.064L3533.46 238.932H3602.04L3678.08 406.295Z" fill="white"/>
<path d="M3826.48 238.932H4082.42V304.293H3988.49V585.543H3919.91V304.293H3826.48V238.932Z" fill="white"/>
<path d="M4375.66 232C4428.01 232 4471.24 249.331 4505.37 283.992C4539.49 317.992 4556.56 360.741 4556.56 412.238C4556.56 463.404 4539.49 506.153 4505.37 540.483C4471.24 575.145 4428.01 592.475 4375.66 592.475C4344.18 592.475 4315.19 585.212 4288.69 570.688C4262.18 555.834 4241.47 535.862 4226.56 510.774L4285.71 476.608C4293.99 491.793 4306.08 503.842 4321.98 512.755C4338.22 521.337 4356.11 525.629 4375.66 525.629C4403.49 525.629 4427.01 518.366 4446.23 503.842C4465.78 488.987 4478.53 469.016 4484.5 443.928H4329.44V380.052H4484.5C4478.53 354.965 4465.78 335.158 4446.23 320.633C4427.01 305.778 4403.49 298.352 4375.66 298.352C4356.11 298.352 4338.38 302.807 4322.48 311.72C4306.58 320.303 4294.32 332.352 4285.71 347.867L4226.56 313.702C4241.47 288.613 4262.18 268.807 4288.69 254.282C4315.52 239.427 4344.51 232 4375.66 232Z" fill="white"/>
<path d="M4742.74 407.285L4876.43 585.543H4797.41L4673.16 423.131V585.543H4604.58V238.932H4673.16V391.936L4792.44 238.932H4871.46L4742.74 407.285Z" fill="white"/>
<path d="M5173.45 540.483C5138.33 575.145 5095.59 592.475 5045.23 592.475C4994.87 592.475 4952.13 575.145 4917.01 540.483C4882.22 505.163 4864.83 462.414 4864.83 412.238C4864.83 361.732 4882.22 319.148 4917.01 284.487C4952.13 249.496 4994.87 232 5045.23 232C5095.59 232 5138.33 249.496 5173.45 284.487C5208.57 319.148 5226.13 361.732 5226.13 412.238C5226.13 462.743 5208.57 505.492 5173.45 540.483ZM4965.22 493.939C4986.42 515.065 5013.1 525.629 5045.23 525.629C5077.37 525.629 5104.04 515.065 5125.25 493.939C5146.78 472.481 5157.55 445.248 5157.55 412.238C5157.55 379.227 5146.78 351.994 5125.25 330.536C5103.71 309.08 5077.04 298.352 5045.23 298.352C5013.43 298.352 4986.76 309.08 4965.22 330.536C4943.68 351.994 4932.92 379.227 4932.92 412.238C4932.92 445.248 4943.68 472.481 4965.22 493.939Z" fill="white"/>
<path d="M5472.13 376.586V238.932H5540.22V585.543H5472.13V441.947H5342.92V585.543H5274.34V238.932H5342.92V376.586H5472.13Z" fill="white"/>
<path d="M5897.56 540.483C5862.44 575.145 5819.7 592.475 5769.34 592.475C5718.98 592.475 5676.24 575.145 5641.12 540.483C5606.34 505.163 5588.94 462.414 5588.94 412.238C5588.94 361.732 5606.34 319.148 5641.12 284.487C5676.24 249.496 5718.98 232 5769.34 232C5819.7 232 5862.44 249.496 5897.56 284.487C5932.68 319.148 5950.24 361.732 5950.24 412.238C5950.24 462.743 5932.68 505.492 5897.56 540.483ZM5689.33 493.939C5710.53 515.065 5737.21 525.629 5769.34 525.629C5801.48 525.629 5828.15 515.065 5849.36 493.939C5870.89 472.481 5881.66 445.248 5881.66 412.238C5881.66 379.227 5870.89 351.994 5849.36 330.536C5827.82 309.08 5801.15 298.352 5769.34 298.352C5737.54 298.352 5710.87 309.08 5689.33 330.536C5667.79 351.994 5657.03 379.227 5657.03 412.238C5657.03 445.248 5667.79 472.481 5689.33 493.939Z" fill="white"/>
<path d="M6268.3 238.932H6338.88V585.543H6270.79V360.741L6172.88 521.668H6164.93L6067.03 361.236V585.543H5998.45V238.932H6069.02L6168.91 402.83L6268.3 238.932Z" fill="white"/>
<path d="M6673.55 585.543H6604.97V374.111L6455.88 585.543H6403.7V238.932H6472.28V450.86L6621.37 238.932H6673.55V585.543Z" fill="white"/>
<path d="M6876.25 407.285L7009.93 585.543H6930.91L6806.67 423.131V585.543H6738.09V238.932H6806.67V391.936L6925.94 238.932H7004.96L6876.25 407.285Z" fill="white"/>
<path d="M7313.7 585.543H7245.12V374.111L7096.03 585.543H7043.84V238.932H7112.43V450.86L7261.52 238.932H7313.7V585.543Z" fill="white"/>
<path d="M1932.86 1079.4H1864.28V867.97L1715.19 1079.4H1663V732.792H1731.59V944.72L1880.68 732.792H1932.86V1079.4Z" fill="white"/>
<path d="M2391.5 732.792H2462.07V1079.4H2393.98V854.601L2296.08 1015.53H2288.13L2190.22 855.096V1079.4H2121.64V732.792H2192.21L2292.1 896.689L2391.5 732.792Z" fill="white"/>
<path d="M2595.47 936.303V1014.04H2742.08V1079.4H2526.89V732.792H2739.59V798.153H2595.47V871.932H2727.17V936.303H2595.47Z" fill="white"/>
<path d="M2988.22 870.446V732.792H3056.3V1079.4H2988.22V935.807H2859V1079.4H2790.42V732.792H2859V870.446H2988.22Z" fill="white"/>
<path d="M3189.51 936.303V1014.04H3336.12V1079.4H3120.93V732.792H3333.64V798.153H3189.51V871.932H3321.21V936.303H3189.51Z" fill="white"/>
<path d="M3651.84 732.792V1014.04H3689.11V1145.75H3620.53V1079.4H3428.2V1145.75H3359.62V1014.04H3393.41C3412.63 987.633 3422.23 948.517 3422.23 896.689V732.792H3651.84ZM3466.96 1014.04H3583.26V796.668H3490.82V897.68C3490.82 948.186 3482.87 986.974 3466.96 1014.04Z" fill="white"/>
<path d="M4024.61 902.632L4145.87 1079.4H4069.34L3961.49 921.447V1079.4H3892.91V921.447L3785.07 1079.4H3709.03L3829.79 902.632L3714 732.792H3790.04L3892.91 887.282V732.792H3961.49V887.282L4064.37 732.792H4140.9L4024.61 902.632Z" fill="white"/>
<path d="M4454.14 732.792H4524.72V1079.4H4456.63V854.601L4358.73 1015.53H4350.77L4252.87 855.096V1079.4H4184.29V732.792H4254.86L4354.75 896.689L4454.14 732.792Z" fill="white"/>
<path d="M4658.12 936.303V1014.04H4804.73V1079.4H4589.54V732.792H4802.24V798.153H4658.12V871.932H4789.82V936.303H4658.12Z" fill="white"/>
<path d="M5050.87 870.446V732.792H5118.95V1079.4H5050.87V935.807H4921.65V1079.4H4853.07V732.792H4921.65V870.446H5050.87Z" fill="white"/>
<path d="M5157.74 732.792H5413.68V798.153H5319.75V1079.4H5251.17V798.153H5157.74V732.792Z" fill="white"/>
<path d="M5724.91 1079.4H5650.37L5629.5 1017.01H5490.84L5469.97 1079.4H5395.92L5517.68 732.792H5602.66L5724.91 1079.4ZM5560.42 811.522L5512.71 953.137H5608.13L5560.42 811.522Z" fill="white"/>
</g>
</g>
<defs>
<clipPath id="clip0_1213_2">
<rect width="7314" height="1378" fill="white"/>
</clipPath>
</defs>
</svg>
