<svg width="7314" height="1379" viewBox="0 0 7314 1379" fill="none" xmlns="http://www.w3.org/2000/svg">
<g clip-path="url(#clip0_2293_107)">
<path d="M646.918 1.42188V40.0246C474.386 54.4177 327.914 122.669 210.73 249.62C102.232 367.219 44.5215 507.071 39.3296 666.556C33.6717 841.131 89.9176 994.879 207.468 1124.68C325.019 1254.49 472.622 1323.4 646.951 1338.12V1376.79C477.016 1363.89 329.478 1300.52 208.2 1181.36C66.8867 1042.47 -1.47359 872.57 0.0240773 674.781C6.41414 480.64 79.8998 316.014 222.112 183.491C341.36 72.5252 483.871 12.8634 646.918 1.42188Z" fill="white"/>
<path d="M530.547 804.035V1270.15C530.547 1279.41 530.547 1279.24 521.927 1276.79C500.161 1270.56 478.752 1263.15 457.793 1254.6C451.869 1252.25 451.77 1252.18 451.77 1245.48V336.79C451.77 329.228 451.77 329.195 459.125 329.195H527.252C529.648 329.195 530.58 330.422 530.58 332.512C530.58 334.601 530.58 336.259 530.58 338.116L530.547 804.035Z" fill="white"/>
<path d="M411.008 1232.14C403.394 1228.99 396.058 1225.21 389.076 1220.83C374.432 1212.58 360.121 1203.69 346.309 1194.07C343.538 1191.9 340.649 1189.89 337.656 1188.04C336.01 1187.17 334.677 1185.81 333.842 1184.15C333.006 1182.49 332.711 1180.62 332.996 1178.78C332.996 991.296 332.996 803.832 332.996 616.39C332.996 615.561 332.996 614.732 332.996 613.903C333.196 609.525 333.296 609.26 337.656 609.227C348.073 609.227 358.49 609.227 368.907 609.227C381.388 609.227 393.902 609.227 406.382 609.227C411.608 609.227 411.641 609.227 411.774 614.4C411.774 615.859 411.774 617.285 411.774 618.745C411.774 820.337 411.774 1021.93 411.774 1223.52C412.174 1226.42 411.912 1229.36 411.008 1232.14Z" fill="white"/>
<path d="M649.383 917.03V1289.59C649.383 1299.14 650.281 1298.68 640.763 1298.28C630.412 1297.82 620.162 1296.46 609.878 1294.97C598.595 1293.41 587.346 1291.65 576.163 1289.56C571.071 1288.56 570.739 1288.23 570.605 1283.16C570.605 1281.9 570.605 1280.67 570.605 1279.41V543.804C570.605 533.49 569.474 534.617 580.057 534.584H641.961C649.782 534.584 649.383 534.153 649.383 542.079V917.03Z" fill="white"/>
<path d="M292.568 1151.65C291.856 1151.65 291.152 1151.51 290.495 1151.23C289.838 1150.96 289.242 1150.56 288.741 1150.06C271.634 1134.87 255.459 1118.72 239.65 1102.24C231.763 1094.01 224.707 1085.02 217.252 1076.4C216.237 1075.36 215.45 1074.12 214.94 1072.76C214.43 1071.4 214.209 1069.96 214.29 1068.51C214.29 1067.45 214.29 1066.42 214.29 1065.39V729.54C214.29 720.386 213.691 721.282 222.843 721.282H285.346H290.338C290.704 721.266 291.068 721.328 291.407 721.465C291.746 721.601 292.052 721.808 292.305 722.072C292.557 722.336 292.749 722.65 292.87 722.995C292.99 723.339 293.034 723.705 293.001 724.068C293.001 725.494 293.001 726.953 293.001 728.412C293.001 867.545 293.001 1006.65 293.001 1145.71C293.31 1147.7 293.162 1149.73 292.568 1151.65Z" fill="white"/>
<path d="M174.007 1015.25C169.714 1011.94 168.016 1007.23 165.52 1003.11C155.148 986.095 145.694 968.538 137.198 950.516C124.243 923.386 113.438 895.288 104.881 866.479C102.751 859.117 100.488 851.787 98.3913 844.458C97.1317 840.284 96.4816 835.95 96.4609 831.591C96.4609 813.55 96.4609 795.475 96.4609 777.401C96.4609 771.299 96.4609 771.266 102.751 771.266H168.981C175.172 771.266 175.205 771.266 175.238 777.434C175.238 854.816 175.238 932.276 175.238 1009.81C175.272 1011.57 175.804 1013.53 174.007 1015.25Z" fill="white"/>
<path d="M726.295 688.527V1224.82C726.295 1232.41 726.295 1232.41 718.74 1232.41H692.481C686.024 1232.41 686.989 1232.41 686.923 1226.58V152.068C686.923 143.711 686.923 143.711 695.11 143.711C704.063 143.711 713.015 143.711 721.968 143.711C725.063 143.711 726.761 144.441 726.328 147.856C726.245 149.303 726.245 150.754 726.328 152.201L726.295 688.527Z" fill="white"/>
<path d="M801.961 48.9499C802.528 50.0096 803.445 50.8414 804.557 51.3045C868.124 89.6088 918.513 141.311 959.083 202.897C983.762 240.828 1004.31 281.273 1020.39 323.547C1022.55 329.118 1022.55 329.151 1028.71 329.151H1246.27C1255.85 329.151 1265.44 329.483 1275.02 329.151C1276.74 328.97 1278.46 329.331 1279.95 330.182C1281.45 331.034 1282.63 332.332 1283.35 333.894C1309.35 377.092 1330.55 422.985 1346.58 470.761C1359.78 510.096 1369.36 550.546 1375.2 591.61C1376.9 603.483 1378.06 615.488 1379.46 627.195C1377.76 628.853 1376.13 628.223 1374.4 628.223C1364.62 628.223 1354.83 628.223 1345.05 628.223C1339.92 628.223 1339.89 628.223 1339.42 623.282C1337.76 605.506 1335.1 587.896 1331.87 570.219C1321.15 511.868 1302.29 455.296 1275.86 402.145C1270.96 392.196 1265.54 382.744 1260.58 372.961C1260.06 371.529 1259.08 370.308 1257.79 369.492C1256.5 368.675 1254.98 368.309 1253.46 368.451C1182.46 368.583 1111.39 368.583 1040.26 368.451C1039.06 368.451 1037.76 368.119 1036.63 369.147C1036.76 371.813 1037.41 374.428 1038.56 376.841C1049.44 413.613 1058.04 451.014 1064.32 488.835C1070.77 527.75 1075.21 566.968 1077.63 606.335C1078.73 623.713 1079.53 641.157 1079.6 658.601C1079.6 659.828 1079.6 661.088 1079.6 662.315C1080.16 667.589 1078.93 667.622 1085.35 667.622H1344.18C1355.28 667.622 1366.37 667.622 1377.47 667.622C1381.86 667.622 1381.93 667.622 1381.99 671.966C1382.29 697.303 1381.99 722.607 1379.73 747.878C1375.34 799.557 1365.12 850.576 1349.24 899.968C1342.59 920.894 1334.73 941.423 1326.11 961.619C1325.72 963.181 1324.77 964.546 1323.44 965.461C1322.11 966.377 1320.49 966.779 1318.89 966.594C1306.61 966.362 1294.33 966.594 1282.28 966.594C1281.12 964.471 1282.45 963.112 1283.08 961.686C1303.45 917.852 1318.82 871.875 1328.87 824.619C1334.75 797.443 1338.74 769.896 1340.82 742.174C1341.59 731.827 1342.22 721.48 1342.82 711.1C1343.09 706.689 1342.82 706.622 1338.43 706.589C1332.6 706.589 1326.78 706.589 1320.92 706.589H1087.08C1080.19 706.589 1080.19 706.589 1079.93 713.454C1079.33 730.268 1079.2 747.082 1078.16 763.863C1076.67 787.675 1074.84 811.487 1072.11 835.199C1068.95 862.625 1064.82 889.853 1059.56 916.948C1054.04 945.247 1047.16 973.205 1038.93 1000.82C1038.25 1002.37 1038.04 1004.09 1038.33 1005.76H1304.01C1303.96 1008.06 1303.16 1010.28 1301.75 1012.09C1233.26 1138.63 1135.11 1235.22 1007.31 1301.88C953.299 1329.87 895.73 1350.43 836.174 1363C810.762 1368.46 785.045 1372.4 759.161 1374.81C736.762 1376.86 714.33 1378.12 691.799 1378.12C687.073 1378.12 686.973 1378.12 686.973 1373.48V1276.78C686.973 1271.93 686.973 1271.87 691.632 1271.83C701.85 1271.83 712.034 1271.83 722.251 1271.83C725.579 1271.83 726.478 1272.96 726.412 1276.15C726.245 1286.76 726.412 1297.34 726.412 1307.92C726.187 1310.06 726.356 1312.23 726.911 1314.32C733.083 1312.48 739.112 1310.2 744.949 1307.49C784.726 1289.71 821.057 1265.1 852.282 1234.79C899.309 1190.09 934.654 1137.22 961.812 1078.65C966.571 1068.31 970.898 1057.73 975.391 1047.28C975.391 1046.95 975.391 1046.49 975.391 1045.26H968.934C903.702 1045.26 838.471 1045.26 773.239 1045.26C764.952 1045.26 765.917 1046.35 765.883 1038.03C765.883 1028.71 765.883 1019.36 765.883 1010.01C765.883 1006.95 766.549 1005.23 770.01 1005.66C771.473 1005.76 772.941 1005.76 774.404 1005.66H985.708C990.501 1005.66 990.534 1005.66 992.065 1000.95C1003.05 966.594 1011.76 931.552 1018.12 896.054C1023.55 866.671 1027.51 837.056 1030.27 807.308C1032.5 783.33 1034.13 759.32 1034.67 735.21C1034.83 727.317 1035.26 719.457 1035.46 711.564C1035.46 706.622 1035.46 706.556 1030.27 706.556H773.239C764.752 706.556 765.95 707.518 765.883 699.393C765.883 690.239 765.883 681.119 765.883 671.966C765.883 668.882 766.549 667.224 769.977 667.622C771.44 667.721 772.908 667.721 774.37 667.622H1026.94C1028.18 667.622 1029.44 667.622 1030.67 667.622C1035.36 667.622 1035.46 667.622 1035.33 662.78C1034.53 635.386 1033.43 608.026 1031.04 580.732C1028.84 555.495 1025.91 530.357 1022.02 505.351C1015.26 460.672 1004.85 416.617 990.9 373.624C989.203 368.451 989.169 368.451 983.611 368.451H773.472C764.918 368.451 765.917 369.545 765.883 360.79C765.85 352.034 765.883 342.516 765.883 333.396C765.883 330.312 766.582 328.588 770.044 329.052C771.285 329.135 772.53 329.135 773.771 329.052H973.627C974.659 327.427 973.627 326.366 973.161 325.304C951.373 270.927 920.905 220.419 882.935 175.735C849.447 136.092 808.581 103.277 762.589 79.0958C751.16 73.0695 739.249 68.0001 726.977 63.9399C726.275 66.3502 726.071 68.8775 726.378 71.3686C726.378 81.152 726.378 90.9021 726.378 100.652C726.378 103.538 725.646 104.698 722.518 104.665C711.912 104.51 701.284 104.51 690.634 104.665C687.306 104.665 686.906 103.372 686.906 100.586C686.906 68.3949 686.906 36.2039 686.906 4.01283C686.906 1.16074 687.505 -2.55057e-10 690.667 0C707.308 1.12856e-09 723.949 0.86226 740.589 1.98983C754.102 2.88526 767.548 4.3113 780.96 6.00266C899.841 21.4068 1012.63 67.4766 1108.15 139.653C1162.6 180.661 1210.63 229.503 1250.66 284.579C1251.69 286.038 1253.29 287.232 1253.26 289.421C1251.79 290.615 1249.93 289.985 1248.5 289.985C1235.79 289.985 1223.07 289.985 1210.39 289.985C1208.86 290.088 1207.34 289.786 1205.96 289.11C1204.59 288.435 1203.42 287.409 1202.57 286.138C1103.34 160.865 961.284 76.3935 803.525 48.8504C803.001 48.8119 802.475 48.8454 801.961 48.9499ZM801.961 1329.57C889.987 1314.28 973.932 1281.17 1048.61 1232.28C1123.29 1183.39 1187.12 1119.76 1236.15 1045.32H1029.71C1028.67 1045.32 1027.61 1045.32 1026.58 1045.32C1026.17 1045.26 1025.74 1045.28 1025.34 1045.38C1024.94 1045.48 1024.56 1045.66 1024.22 1045.91C1023.89 1046.16 1023.61 1046.48 1023.4 1046.84C1023.2 1047.2 1023.07 1047.6 1023.02 1048.01C1022.66 1049.19 1022.24 1050.36 1021.75 1051.49C1004.03 1098.92 980.655 1144.04 952.127 1185.91C912.822 1242.85 864.73 1290.74 805.189 1326.72C804.124 1327.35 802.859 1327.72 802.227 1329.57H801.961Z" fill="white"/>
<path d="M1669.7 1144.41H1734.95C1751.64 1144.41 1765.55 1150.03 1776.68 1161.27C1787.98 1172.5 1793.63 1186.47 1793.63 1203.15C1793.63 1219.66 1787.98 1233.62 1776.68 1245.03C1765.55 1256.27 1751.64 1261.88 1734.95 1261.88H1698.78V1323.17H1669.7V1144.41ZM1698.78 1234.3H1734.95C1743.55 1234.3 1750.63 1231.41 1756.19 1225.62C1761.76 1219.66 1764.54 1212.17 1764.54 1203.15C1764.54 1194.13 1761.76 1186.72 1756.19 1180.93C1750.63 1174.97 1743.55 1171.99 1734.95 1171.99H1698.78V1234.3ZM1818.88 1144.41H1918.78V1172.5H1847.96V1323.17H1818.88V1144.41ZM2001.35 1238.65L2040.05 1144.41H2069.39L2014.5 1277.21C2001.01 1309.72 1979.18 1325.05 1949 1323.17V1295.85C1958.94 1296.87 1966.95 1295.42 1973.02 1291.51C1979.26 1287.42 1984.24 1280.53 1987.95 1270.82L1929.02 1144.41H1958.35L2001.35 1238.65ZM2177.85 1276.44L2242.59 1195.49H2263.59V1323.17H2236.78V1241.97L2172.03 1323.17H2151.04V1195.49H2177.85V1276.44ZM2396.45 1195.49H2424.27V1323.17H2397.71V1239.16L2361.29 1297.64H2358L2321.84 1239.41V1323.17H2295.28V1195.49H2323.1L2359.77 1254.48L2396.45 1195.49ZM2472.26 1287.93C2477.49 1287.93 2481.96 1289.81 2485.67 1293.55C2489.38 1297.3 2491.23 1301.81 2491.23 1307.09C2491.23 1312.36 2489.38 1316.88 2485.67 1320.62C2481.96 1324.37 2477.49 1326.24 2472.26 1326.24C2467.04 1326.24 2462.57 1324.37 2458.86 1320.62C2455.15 1316.88 2453.29 1312.36 2453.29 1307.09C2453.29 1301.81 2455.06 1297.3 2458.61 1293.55C2462.31 1289.81 2466.87 1287.93 2472.26 1287.93ZM2731.98 1323.17H2700.62L2688.22 1287.17H2612.85L2600.46 1323.17H2568.85L2633.09 1144.41H2667.99L2731.98 1323.17ZM2650.54 1178.89L2622.47 1259.59H2678.61L2650.54 1178.89ZM2770.63 1287.93C2775.85 1287.93 2780.32 1289.81 2784.03 1293.55C2787.74 1297.3 2789.59 1301.81 2789.59 1307.09C2789.59 1312.36 2787.74 1316.88 2784.03 1320.62C2780.32 1324.37 2775.85 1326.24 2770.63 1326.24C2765.4 1326.24 2760.93 1324.37 2757.22 1320.62C2753.51 1316.88 2751.66 1312.36 2751.66 1307.09C2751.66 1301.81 2753.43 1297.3 2756.97 1293.55C2760.68 1289.81 2765.23 1287.93 2770.63 1287.93ZM2925.38 1217.71V1144.41H2954.47V1323.17H2925.38V1245.8H2849.51V1323.17H2820.42V1144.41H2849.51V1217.71H2925.38ZM3004.53 1287.93C3009.75 1287.93 3014.22 1289.81 3017.94 1293.55C3021.64 1297.3 3023.5 1301.81 3023.5 1307.09C3023.5 1312.36 3021.64 1316.88 3017.94 1320.62C3014.22 1324.37 3009.75 1326.24 3004.53 1326.24C2999.3 1326.24 2994.83 1324.37 2991.13 1320.62C2987.41 1316.88 2985.56 1312.36 2985.56 1307.09C2985.56 1301.81 2987.33 1297.3 2990.87 1293.55C2994.58 1289.81 2999.13 1287.93 3004.53 1287.93ZM3176.98 1231.5L3251.09 1323.17H3216.44L3146.63 1238.14V1323.17H3117.55V1144.41H3146.63V1224.6L3213.91 1144.41H3248.56L3176.98 1231.5ZM3363.55 1307.09C3350.74 1320.02 3334.97 1326.49 3316.25 1326.49C3297.54 1326.49 3281.77 1320.02 3268.96 1307.09C3255.97 1293.98 3249.48 1278.06 3249.48 1259.33C3249.48 1240.6 3255.97 1224.69 3268.96 1211.58C3281.77 1198.64 3297.54 1192.17 3316.25 1192.17C3334.97 1192.17 3350.74 1198.64 3363.55 1211.58C3376.54 1224.69 3383.02 1240.6 3383.02 1259.33C3383.02 1278.06 3376.54 1293.98 3363.55 1307.09ZM3276.8 1259.33C3276.8 1270.91 3280.59 1280.53 3288.18 1288.19C3295.77 1295.85 3305.12 1299.68 3316.25 1299.68C3327.38 1299.68 3336.74 1295.85 3344.33 1288.19C3351.91 1280.53 3355.71 1270.91 3355.71 1259.33C3355.71 1247.75 3351.91 1238.14 3344.33 1230.47C3336.74 1222.81 3327.38 1218.98 3316.25 1218.98C3305.12 1218.98 3295.77 1222.81 3288.18 1230.47C3280.59 1238.14 3276.8 1247.75 3276.8 1259.33ZM3467.41 1326.49C3448.35 1326.49 3432.42 1320.02 3419.61 1307.09C3406.96 1293.98 3400.64 1278.06 3400.64 1259.33C3400.64 1240.26 3406.96 1224.35 3419.61 1211.58C3432.42 1198.64 3448.35 1192.17 3467.41 1192.17C3479.71 1192.17 3490.93 1195.15 3501.05 1201.11C3511.16 1207.07 3518.75 1215.07 3523.81 1225.11L3500.29 1238.9C3497.42 1232.77 3493.04 1228.01 3487.14 1224.6C3481.41 1221.03 3474.74 1219.24 3467.16 1219.24C3456.03 1219.24 3446.67 1223.07 3439.08 1230.73C3431.66 1238.56 3427.95 1248.09 3427.95 1259.33C3427.95 1270.57 3431.66 1280.1 3439.08 1287.93C3446.67 1295.59 3456.03 1299.42 3467.16 1299.42C3474.58 1299.42 3481.23 1297.72 3487.14 1294.32C3493.21 1290.74 3497.76 1285.89 3500.79 1279.76L3524.32 1293.3C3518.92 1303.51 3511.08 1311.6 3500.79 1317.56C3490.68 1323.51 3479.55 1326.49 3467.41 1326.49ZM3572.12 1238.9H3599.94C3613.6 1238.9 3624.64 1242.82 3633.07 1250.65C3641.67 1258.31 3645.97 1268.44 3645.97 1281.04C3645.97 1293.47 3641.67 1303.6 3633.07 1311.43C3624.64 1319.26 3613.6 1323.17 3599.94 1323.17H3544.8V1195.49H3572.12V1238.9ZM3661.14 1323.17V1195.49H3688.46V1323.17H3661.14ZM3572.12 1298.4H3600.19C3605.59 1298.4 3610.06 1296.79 3613.6 1293.55C3617.3 1290.32 3619.16 1286.15 3619.16 1281.04C3619.16 1275.93 3617.39 1271.76 3613.85 1268.52C3610.31 1265.29 3605.76 1263.67 3600.19 1263.67H3572.12V1298.4ZM3720.16 1195.49H3804.89V1222.05H3747.48V1323.17H3720.16V1195.49ZM3850.21 1276.44L3914.96 1195.49H3935.95V1323.17H3909.14V1241.97L3844.4 1323.17H3823.4V1195.49H3850.21V1276.44ZM4052.88 1246.31V1195.49H4080.19V1323.17H4052.88V1272.36H3994.96V1323.17H3967.64V1195.49H3994.96V1246.31H4052.88ZM4212.05 1213.62V1195.49H4239.37V1323.17H4212.05V1304.79C4201.76 1319.26 4187.01 1326.49 4167.79 1326.49C4150.41 1326.49 4135.58 1320.02 4123.28 1307.09C4110.96 1294.15 4104.81 1278.23 4104.81 1259.33C4104.81 1240.43 4110.96 1224.52 4123.28 1211.58C4135.58 1198.64 4150.41 1192.17 4167.79 1192.17C4187.01 1192.17 4201.76 1199.32 4212.05 1213.62ZM4143.51 1288.7C4151.1 1296.36 4160.62 1300.19 4172.09 1300.19C4183.55 1300.19 4193.08 1296.36 4200.67 1288.7C4208.26 1280.87 4212.05 1271.08 4212.05 1259.33C4212.05 1247.58 4208.26 1237.88 4200.67 1230.22C4193.08 1222.39 4183.55 1218.47 4172.09 1218.47C4160.62 1218.47 4151.1 1222.39 4143.51 1230.22C4135.92 1237.88 4132.13 1247.58 4132.13 1259.33C4132.13 1270.91 4135.92 1280.7 4143.51 1288.7Z" fill="white"/>
<path d="M1932.56 416.167H1863.98V204.581L1714.89 416.167H1662.7V69.3047H1731.29V281.386L1880.38 69.3047H1932.56V416.167Z" fill="white"/>
<path d="M2194.89 207.058V69.3047H2262.98V416.167H2194.89V272.467H2065.68V416.167H1997.09V69.3047H2065.68V207.058H2194.89Z" fill="white"/>
<path d="M2492.6 423.104C2440.58 423.104 2397.35 405.761 2362.89 371.074C2328.76 336.719 2311.7 293.939 2311.7 242.736C2311.7 191.202 2328.76 148.422 2362.89 114.397C2397.35 79.7103 2440.58 62.3672 2492.6 62.3672C2524.08 62.3672 2553.07 69.7999 2579.57 84.6655C2606.41 99.2007 2627.28 119.021 2642.19 144.128L2583.05 178.318C2574.44 162.792 2562.18 150.734 2546.27 142.145C2530.37 133.226 2512.48 128.767 2492.6 128.767C2458.81 128.767 2431.47 139.338 2410.6 160.48C2390.06 181.952 2379.79 209.371 2379.79 242.736C2379.79 275.77 2390.06 303.023 2410.6 324.496C2431.47 345.638 2458.81 356.209 2492.6 356.209C2512.48 356.209 2530.37 351.914 2546.27 343.326C2562.51 334.406 2574.77 322.349 2583.05 307.153L2642.19 341.343C2627.28 366.45 2606.41 386.436 2579.57 401.301C2553.07 415.836 2524.08 423.104 2492.6 423.104Z" fill="white"/>
<path d="M2657.02 69.3047H2912.96V134.713H2819.04V416.167H2750.45V134.713H2657.02V69.3047Z" fill="white"/>
<path d="M3221.11 416.167H3152.53V204.581L3003.43 416.167H2951.25V69.3047H3019.83V281.386L3168.93 69.3047H3221.11V416.167Z" fill="white"/>
<path d="M3259.8 69.3047H3515.74V134.713H3421.81V416.167H3353.23V134.713H3259.8V69.3047Z" fill="white"/>
<path d="M3677.78 236.789L3746.36 69.3047H3814.94L3710.58 320.532C3682.75 387.922 3637.02 419.8 3573.41 416.167V352.245C3591.63 353.897 3606.38 351.419 3617.64 344.812C3629.24 338.205 3639.01 327.139 3646.96 311.612L3533.16 69.3047H3601.74L3677.78 236.789Z" fill="white"/>
<path d="M3826.18 69.3047H4082.12V134.713H3988.19V416.167H3919.61V134.713H3826.18V69.3047Z" fill="white"/>
<path d="M4375.36 62.3672C4427.71 62.3672 4470.94 79.7103 4505.07 114.397C4539.19 148.422 4556.26 191.202 4556.26 242.736C4556.26 293.939 4539.19 336.719 4505.07 371.074C4470.94 405.761 4427.71 423.104 4375.36 423.104C4343.88 423.104 4314.89 415.836 4288.39 401.301C4261.88 386.436 4241.17 366.45 4226.26 341.343L4285.41 307.153C4293.69 322.349 4305.78 334.406 4321.68 343.326C4337.92 351.914 4355.81 356.209 4375.36 356.209C4403.19 356.209 4426.71 348.941 4445.93 334.406C4465.48 319.541 4478.23 299.555 4484.2 274.449H4329.14V210.527H4484.2C4478.23 185.421 4465.48 165.6 4445.93 151.065C4426.71 136.199 4403.19 128.767 4375.36 128.767C4355.81 128.767 4338.08 133.226 4322.18 142.145C4306.28 150.734 4294.02 162.792 4285.41 178.318L4226.26 144.128C4241.17 119.021 4261.88 99.2007 4288.39 84.6655C4315.22 69.7999 4344.21 62.3672 4375.36 62.3672Z" fill="white"/>
<path d="M4742.44 237.78L4876.13 416.167H4797.11L4672.86 253.637V416.167H4604.28V69.3047H4672.86V222.419L4792.14 69.3047H4871.16L4742.44 237.78Z" fill="white"/>
<path d="M5173.15 371.074C5138.03 405.761 5095.29 423.104 5044.93 423.104C4994.57 423.104 4951.83 405.761 4916.71 371.074C4881.92 335.728 4864.53 292.948 4864.53 242.736C4864.53 192.193 4881.92 149.578 4916.71 114.892C4951.83 79.8755 4994.57 62.3672 5044.93 62.3672C5095.29 62.3672 5138.03 79.8755 5173.15 114.892C5208.27 149.578 5225.83 192.193 5225.83 242.736C5225.83 293.278 5208.27 336.058 5173.15 371.074ZM4964.92 324.496C4986.12 345.638 5012.8 356.209 5044.93 356.209C5077.07 356.209 5103.74 345.638 5124.95 324.496C5146.48 303.023 5157.25 275.77 5157.25 242.736C5157.25 209.701 5146.48 182.448 5124.95 160.975C5103.41 139.503 5076.74 128.767 5044.93 128.767C5013.13 128.767 4986.46 139.503 4964.92 160.975C4943.38 182.448 4932.62 209.701 4932.62 242.736C4932.62 275.77 4943.38 303.023 4964.92 324.496Z" fill="white"/>
<path d="M5471.83 207.058V69.3047H5539.92V416.167H5471.83V272.467H5342.62V416.167H5274.04V69.3047H5342.62V207.058H5471.83Z" fill="white"/>
<path d="M5897.26 371.074C5862.14 405.761 5819.4 423.104 5769.04 423.104C5718.68 423.104 5675.94 405.761 5640.82 371.074C5606.04 335.728 5588.64 292.948 5588.64 242.736C5588.64 192.193 5606.04 149.578 5640.82 114.892C5675.94 79.8755 5718.68 62.3672 5769.04 62.3672C5819.4 62.3672 5862.14 79.8755 5897.26 114.892C5932.38 149.578 5949.94 192.193 5949.94 242.736C5949.94 293.278 5932.38 336.058 5897.26 371.074ZM5689.03 324.496C5710.23 345.638 5736.91 356.209 5769.04 356.209C5801.18 356.209 5827.85 345.638 5849.06 324.496C5870.59 303.023 5881.36 275.77 5881.36 242.736C5881.36 209.701 5870.59 182.448 5849.06 160.975C5827.52 139.503 5800.85 128.767 5769.04 128.767C5737.24 128.767 5710.57 139.503 5689.03 160.975C5667.49 182.448 5656.73 209.701 5656.73 242.736C5656.73 275.77 5667.49 303.023 5689.03 324.496Z" fill="white"/>
<path d="M6268 69.3047H6338.58V416.167H6270.49V191.202L6172.58 352.245H6164.63L6066.73 191.697V416.167H5998.15V69.3047H6068.72L6168.61 233.321L6268 69.3047Z" fill="white"/>
<path d="M6673.25 416.167H6604.67V204.581L6455.58 416.167H6403.4V69.3047H6471.98V281.386L6621.07 69.3047H6673.25V416.167Z" fill="white"/>
<path d="M6875.95 237.78L7009.63 416.167H6930.61L6806.37 253.637V416.167H6737.79V69.3047H6806.37V222.419L6925.64 69.3047H7004.66L6875.95 237.78Z" fill="white"/>
<path d="M7313.4 416.167H7244.82V204.581L7095.73 416.167H7043.54V69.3047H7112.13V281.386L7261.22 69.3047H7313.4V416.167Z" fill="white"/>
<path d="M1932.56 910.385H1863.98V698.799L1714.89 910.385H1662.7V563.523H1731.29V775.605L1880.38 563.523H1932.56V910.385Z" fill="white"/>
<path d="M2391.2 563.523H2461.77V910.385H2393.68V685.42L2295.78 846.464H2287.83L2189.92 685.916V910.385H2121.34V563.523H2191.91L2291.8 727.539L2391.2 563.523Z" fill="white"/>
<path d="M2595.17 767.181V844.977H2741.78V910.385H2526.59V563.523H2739.29V628.931H2595.17V702.764H2726.87V767.181H2595.17Z" fill="white"/>
<path d="M2987.92 701.277V563.523H3056V910.385H2987.92V766.685H2858.7V910.385H2790.12V563.523H2858.7V701.277H2987.92Z" fill="white"/>
<path d="M3189.21 767.181V844.977H3335.82V910.385H3120.63V563.523H3333.34V628.931H3189.21V702.764H3320.91V767.181H3189.21Z" fill="white"/>
<path d="M3651.54 563.523V844.977H3688.81V976.785H3620.23V910.385H3427.9V976.785H3359.32V844.977H3393.11C3412.33 818.549 3421.93 779.404 3421.93 727.539V563.523H3651.54ZM3466.66 844.977H3582.96V627.445H3490.52V728.53C3490.52 779.073 3482.57 817.889 3466.66 844.977Z" fill="white"/>
<path d="M4024.31 733.486L4145.57 910.385H4069.04L3961.19 752.315V910.385H3892.61V752.315L3784.77 910.385H3708.73L3829.49 733.486L3713.7 563.523H3789.74L3892.61 718.125V563.523H3961.19V718.125L4064.07 563.523H4140.6L4024.31 733.486Z" fill="white"/>
<path d="M4453.84 563.523H4524.42V910.385H4456.33V685.42L4358.43 846.464H4350.47L4252.57 685.916V910.385H4183.99V563.523H4254.56L4354.45 727.539L4453.84 563.523Z" fill="white"/>
<path d="M4657.82 767.181V844.977H4804.43V910.385H4589.24V563.523H4801.94V628.931H4657.82V702.764H4789.52V767.181H4657.82Z" fill="white"/>
<path d="M5050.57 701.277V563.523H5118.65V910.385H5050.57V766.685H4921.35V910.385H4852.77V563.523H4921.35V701.277H5050.57Z" fill="white"/>
<path d="M5157.44 563.523H5413.38V628.931H5319.45V910.385H5250.87V628.931H5157.44V563.523Z" fill="white"/>
<path d="M5724.61 910.385H5650.07L5629.2 847.95H5490.54L5469.67 910.385H5395.62L5517.38 563.523H5602.36L5724.61 910.385ZM5560.12 642.31L5512.41 784.028H5607.83L5560.12 642.31Z" fill="white"/>
</g>
<defs>
<clipPath id="clip0_2293_107">
<rect width="7314" height="1379" fill="white"/>
</clipPath>
</defs>
</svg>
